<svg width="28.914062" height="4.814453" viewBox="0 0 28.9141 4.81445" fill="none" xmlns="http://www.w3.org/2000/svg" xmlns:xlink="http://www.w3.org/1999/xlink">
	<desc>
			Created with Pixso.
	</desc>
	<defs/>
	<path id="Vector" d="M22.33 4.81C21.66 4.81 21.1 4.57 20.65 4.11C20.21 3.66 19.96 3.04 19.97 2.4C19.97 1.72 20.2 1.15 20.65 0.7C21.09 0.23 21.66 0 22.33 0C22.99 0 23.56 0.23 24.01 0.7C24.46 1.16 24.69 1.74 24.69 2.4C24.69 3.08 24.46 3.65 24.01 4.11C23.57 4.58 23 4.81 22.33 4.81ZM2.38 4.81C1.73 4.81 1.16 4.58 0.69 4.12C0.23 3.66 0 3.08 0 2.4C0 1.72 0.23 1.14 0.69 0.69C1.15 0.23 1.72 0 2.38 0C2.71 0 3.02 0.06 3.33 0.19C3.62 0.32 3.86 0.5 4.04 0.71L4.09 0.76L3.59 1.26L3.54 1.2C3.25 0.86 2.87 0.69 2.37 0.69C1.93 0.69 1.54 0.85 1.22 1.17C0.89 1.49 0.73 1.9 0.73 2.41C0.73 2.91 0.89 3.32 1.22 3.64C1.54 3.96 1.93 4.12 2.37 4.12C2.85 4.12 3.25 3.96 3.56 3.64C3.75 3.46 3.86 3.2 3.9 2.87L2.3 2.87L2.3 2.17L4.59 2.17L4.6 2.24C4.62 2.35 4.64 2.47 4.64 2.58C4.64 3.23 4.44 3.74 4.06 4.13C3.63 4.58 3.07 4.81 2.38 4.81ZM28.91 4.71L28.2 4.71L26.03 1.23L26.05 1.85L26.05 4.71L25.34 4.71L25.34 0.1L26.15 0.1L26.17 0.13L28.21 3.41L28.19 2.79L28.19 0.1L28.91 0.1L28.91 4.71ZM17.02 4.71L16.3 4.71L16.3 0.79L15.06 0.79L15.06 0.1L18.26 0.1L18.26 0.79L17.01 0.79L17.01 4.71L17.02 4.71ZM14.47 4.71L13.76 4.71L13.76 0.1L14.47 0.1L14.47 4.71ZM10.46 4.71L9.74 4.71L9.74 0.79L8.5 0.79L8.5 0.1L11.7 0.1L11.7 0.79L10.46 0.79L10.46 4.71ZM8.05 4.7L5.3 4.7L5.3 0.1L8.05 0.1L8.05 0.79L6.02 0.79L6.02 2.06L7.85 2.06L7.85 2.74L6.02 2.74L6.02 4.01L8.05 4.01L8.05 4.7ZM21.17 3.63C21.49 3.95 21.88 4.12 22.33 4.12C22.8 4.12 23.17 3.96 23.49 3.63C23.81 3.32 23.96 2.9 23.96 2.4C23.96 1.9 23.81 1.49 23.49 1.17C23.17 0.85 22.78 0.69 22.33 0.69C21.87 0.69 21.49 0.85 21.18 1.17C20.86 1.49 20.71 1.9 20.71 2.4C20.71 2.9 20.86 3.32 21.17 3.63Z" fill="#FFFFFF" fill-opacity="1.000000" fill-rule="nonzero"/>
</svg>
