<svg width="17.097656" height="19.154297" viewBox="0 0 17.0977 19.1543" fill="none" xmlns="http://www.w3.org/2000/svg" xmlns:xlink="http://www.w3.org/1999/xlink">
	<desc>
			Created with Pixso.
	</desc>
	<defs>
		<linearGradient x1="8.756166" y1="1.167539" x2="-3.674564" y2="13.662838" id="paint_linear_70_1804_0" gradientUnits="userSpaceOnUse">
			<stop stop-color="#00A0FF"/>
			<stop offset="0.006570" stop-color="#00A1FF"/>
			<stop offset="0.260100" stop-color="#00BEFF"/>
			<stop offset="0.512200" stop-color="#00D2FF"/>
			<stop offset="0.760400" stop-color="#00DFFF"/>
			<stop offset="1.000000" stop-color="#00E3FF"/>
		</linearGradient>
		<linearGradient x1="17.671257" y1="9.576880" x2="-0.251503" y2="9.576880" id="paint_linear_70_1805_0" gradientUnits="userSpaceOnUse">
			<stop stop-color="#FFE000"/>
			<stop offset="0.408700" stop-color="#FFBD00"/>
			<stop offset="0.775400" stop-color="#FFA500"/>
			<stop offset="1.000000" stop-color="#FF9C00"/>
		</linearGradient>
		<linearGradient x1="11.375423" y1="11.287622" x2="-6.077702" y2="28.231958" id="paint_linear_70_1806_0" gradientUnits="userSpaceOnUse">
			<stop stop-color="#FF3A44"/>
			<stop offset="1.000000" stop-color="#C31162"/>
		</linearGradient>
		<linearGradient x1="-1.987301" y1="-5.181135" x2="5.540040" y2="2.385349" id="paint_linear_70_1807_0" gradientUnits="userSpaceOnUse">
			<stop stop-color="#32A071"/>
			<stop offset="0.068500" stop-color="#2DA771"/>
			<stop offset="0.476200" stop-color="#15CF74"/>
			<stop offset="0.800900" stop-color="#06E775"/>
			<stop offset="1.000000" stop-color="#00F076"/>
		</linearGradient>
	</defs>
	<path id="Vector" d="M0.33 0.29C0.12 0.52 0 0.88 0 1.34L0 17.8C0 18.27 0.12 18.62 0.34 18.85L0.4 18.9L9.58 9.67L9.58 9.46L0.39 0.24L0.33 0.29Z" fill="url(#paint_linear_70_1804_0)" fill-opacity="1.000000" fill-rule="evenodd"/>
	<path id="Vector" d="M12.63 12.76L9.57 9.68L9.57 9.46L12.63 6.39L12.69 6.43L16.32 8.5C17.35 9.08 17.35 10.05 16.32 10.65L12.69 12.72L12.63 12.76Z" fill="url(#paint_linear_70_1805_0)" fill-opacity="1.000000" fill-rule="evenodd"/>
	<path id="Vector" d="M12.69 12.72C14.62 10.38 9.57 9.57 9.57 9.57L0.33 18.85C0.67 19.22 1.24 19.26 1.87 18.9C1.87 18.9 10.77 15.05 12.69 12.72Z" fill="url(#paint_linear_70_1806_0)" fill-opacity="1.000000" fill-rule="evenodd"/>
	<path id="Vector" d="M12.69 6.43L1.87 0.25C1.24 -0.12 0.67 -0.06 0.33 0.3L9.57 9.57L12.69 6.43Z" fill="url(#paint_linear_70_1807_0)" fill-opacity="1.000000" fill-rule="evenodd"/>
	<g opacity="0.120000">
		<path id="Vector" d="M16.32 10.54L12.62 12.65L12.69 12.72L16.31 10.65C16.83 10.35 17.08 9.96 17.08 9.57C17.08 9.18 16.79 10.27 16.32 10.54Z" fill="#140F14" fill-opacity="1.000000" fill-rule="evenodd"/>
	</g>
	<g opacity="0.250000">
		<path id="Vector" d="M1.87 0.36L16.32 8.6C16.78 8.87 17.05 9.22 17.09 9.57C17.09 9.18 16.83 8.79 16.32 8.5L1.87 0.25C0.83 -0.35 0 0.15 0 1.34L0 1.45C0 0.25 0.83 -0.23 1.87 0.36Z" fill="#FFFFFF" fill-opacity="1.000000" fill-rule="evenodd"/>
	</g>
</svg>
