<svg width="62.771484" height="12.683594" viewBox="0 0 62.7715 12.6836" fill="none" xmlns="http://www.w3.org/2000/svg" xmlns:xlink="http://www.w3.org/1999/xlink">
	<desc>
			Created with Pixso.
	</desc>
	<defs/>
	<path id="Vector" d="M20.04 3.51C18.3 3.51 16.88 4.84 16.88 6.68C16.88 8.5 18.31 9.85 20.04 9.85C21.79 9.85 23.2 8.51 23.2 6.68C23.2 4.84 21.79 3.51 20.04 3.51ZM20.04 8.59C19.09 8.59 18.27 7.8 18.27 6.67C18.27 5.53 19.09 4.75 20.04 4.75C21 4.75 21.82 5.53 21.82 6.67C21.82 7.8 21 8.59 20.04 8.59ZM13.15 3.51C11.4 3.51 9.99 4.84 9.99 6.68C9.99 8.5 11.41 9.85 13.15 9.85C14.89 9.85 16.31 8.51 16.31 6.68C16.31 4.84 14.89 3.51 13.15 3.51ZM13.15 8.59C12.19 8.59 11.37 7.8 11.37 6.67C11.37 5.53 12.2 4.75 13.15 4.75C14.1 4.75 14.92 5.53 14.92 6.67C14.92 7.8 14.1 8.59 13.15 8.59ZM4.94 4.48L4.94 5.82L8.15 5.82C8.05 6.57 7.8 7.13 7.42 7.51C6.95 7.98 6.23 8.49 4.95 8.49C2.98 8.49 1.44 6.89 1.44 4.92C1.44 2.94 2.98 1.34 4.95 1.34C6.01 1.34 6.79 1.76 7.36 2.3L8.31 1.35C7.51 0.58 6.45 0 4.96 0C2.26 0 0 2.2 0 4.91C0 7.62 2.26 9.82 4.96 9.82C6.41 9.82 7.51 9.35 8.37 8.44C9.25 7.56 9.53 6.31 9.53 5.3C9.53 4.99 9.51 4.7 9.46 4.46L4.94 4.46C4.94 4.46 4.94 4.48 4.94 4.48ZM38.5 5.52C38.24 4.81 37.44 3.5 35.81 3.5C34.18 3.5 32.83 4.79 32.83 6.67C32.83 8.45 34.17 9.84 35.96 9.84C37.4 9.84 38.24 8.95 38.59 8.43L37.52 7.71C37.16 8.24 36.67 8.59 35.97 8.59C35.26 8.59 34.77 8.27 34.44 7.63L38.65 5.87C38.65 5.88 38.5 5.52 38.5 5.52ZM34.21 6.58C34.17 5.36 35.15 4.74 35.85 4.74C36.41 4.74 36.87 5.01 37.02 5.41L34.21 6.58ZM30.79 9.65L32.17 9.65L32.17 0.34L30.79 0.34L30.79 9.65ZM28.51 4.22L28.46 4.22C28.15 3.84 27.56 3.5 26.8 3.5C25.23 3.5 23.78 4.89 23.78 6.68C23.78 8.46 25.22 9.83 26.8 9.83C27.55 9.83 28.15 9.49 28.46 9.11L28.51 9.11L28.51 9.57C28.51 10.78 27.87 11.43 26.83 11.43C25.99 11.43 25.46 10.82 25.25 10.3L24.04 10.81C24.39 11.64 25.31 12.68 26.83 12.68C28.45 12.68 29.83 11.72 29.83 9.38L29.83 3.69L28.52 3.69L28.52 4.22C28.52 4.22 28.51 4.22 28.51 4.22ZM26.92 8.59C25.97 8.59 25.17 7.79 25.17 6.68C25.17 5.56 25.97 4.75 26.92 4.75C27.87 4.75 28.6 5.57 28.6 6.68C28.61 7.79 27.87 8.59 26.92 8.59ZM44.98 0.34L41.67 0.34L41.67 9.65L43.06 9.65L43.06 6.13L44.98 6.13C46.51 6.13 48.02 5.01 48.02 3.24C48.02 1.47 46.52 0.34 44.98 0.34ZM45.02 4.83L43.06 4.83L43.06 1.63L45.02 1.63C46.06 1.63 46.65 2.49 46.65 3.23C46.65 3.96 46.05 4.83 45.02 4.83ZM53.57 3.5C52.56 3.5 51.52 3.94 51.1 4.92L52.32 5.43C52.59 4.92 53.07 4.74 53.58 4.74C54.3 4.74 55.02 5.17 55.04 5.94L55.04 6.04C54.79 5.9 54.25 5.68 53.6 5.68C52.27 5.68 50.93 6.41 50.93 7.78C50.93 9.03 52.02 9.83 53.23 9.83C54.16 9.83 54.67 9.41 54.99 8.92L55.04 8.92L55.04 9.64L56.37 9.64L56.37 6.07C56.37 4.41 55.15 3.5 53.57 3.5ZM53.39 8.59C52.94 8.59 52.31 8.37 52.31 7.8C52.31 7.08 53.1 6.8 53.77 6.8C54.38 6.8 54.67 6.94 55.03 7.12C54.93 7.95 54.23 8.58 53.39 8.59ZM61.24 3.69L59.65 7.73L59.6 7.73L57.95 3.69L56.46 3.69L58.93 9.34L57.53 12.47L58.97 12.47L62.77 3.69L61.24 3.69ZM48.78 9.65L50.17 9.65L50.17 0.34L48.78 0.34L48.78 9.65Z" fill="#FFFFFF" fill-opacity="1.000000" fill-rule="evenodd"/>
</svg>
