<svg width="24.000000" height="24.000000" viewBox="0 0 24 24" fill="none" xmlns="http://www.w3.org/2000/svg" xmlns:xlink="http://www.w3.org/1999/xlink">
	<desc>
			Created with Pixso.
	</desc>
	<defs/>
	<rect id="24x24_icon/telegram" rx="0.000000" width="23.000000" height="23.000000" transform="translate(0.500000 0.500000)" fill="#FFFFFF" fill-opacity="0"/>
	<path id="Vector" d="M4.16 11.45C8.73 9.34 11.77 7.94 13.29 7.27C17.64 5.34 18.54 5.01 19.13 5C19.26 4.99 19.55 5.03 19.74 5.19C19.9 5.33 19.94 5.51 19.96 5.64C19.98 5.77 20.01 6.07 19.99 6.3C19.75 8.93 18.73 15.33 18.21 18.28C18 19.53 17.56 19.95 17.14 19.99C16.24 20.08 15.55 19.35 14.66 18.73C13.29 17.77 12.51 17.17 11.17 16.24C9.63 15.15 10.63 14.55 11.51 13.58C11.74 13.33 15.74 9.45 15.82 9.09C15.83 9.05 15.84 8.89 15.75 8.8C15.66 8.71 15.52 8.74 15.42 8.77C15.29 8.8 13.08 10.35 8.82 13.41C8.2 13.87 7.63 14.09 7.12 14.08C6.57 14.07 5.49 13.75 4.69 13.47C3.71 13.13 2.93 12.95 3 12.37C3.03 12.07 3.42 11.77 4.16 11.45Z" fill="#FFFFFF" fill-opacity="1.000000" fill-rule="nonzero"/>
</svg>
