<svg width="24.000000" height="24.000000" viewBox="0 0 24 24" fill="none" xmlns="http://www.w3.org/2000/svg" xmlns:xlink="http://www.w3.org/1999/xlink">
	<desc>
			Created with Pixso.
	</desc>
	<defs/>
	<rect id="24x24_icon/vk" rx="0.000000" width="23.000000" height="23.000000" transform="translate(0.500000 0.500000)" fill="#FFFFFF" fill-opacity="0"/>
	<path id="Vector" d="M2 7C2.16 13.87 6.06 18 12.89 18L13.28 18L13.28 14.06C15.79 14.28 17.68 15.9 18.45 18L22 18C21.02 14.87 18.46 13.14 16.86 12.48C18.46 11.66 20.71 9.68 21.25 7L18.02 7C17.32 9.18 15.25 11.16 13.28 11.34L13.28 7L10.05 7L10.05 14.61C8.05 14.17 5.53 12.04 5.42 7L2 7Z" fill="#FFFFFF" fill-opacity="1.000000" fill-rule="evenodd"/>
</svg>
