<svg width="95.000000" height="45.000000" viewBox="0 0 95 45" fill="none" xmlns="http://www.w3.org/2000/svg" xmlns:xlink="http://www.w3.org/1999/xlink">
	<desc>
			Created with Pixso.
	</desc>
	<defs/>
	<path id="Vector" d="M8.32 0.11L2.53 1.06C0.85 1.34 -0.24 2.87 0.04 4.48L3.66 25.71C3.93 27.32 5.47 28.43 7.15 28.15C8.79 27.88 9.91 26.34 9.64 24.73L8.38 17.37L11.19 16.92C15.94 16.14 19.14 11.74 18.35 7.09C17.56 2.48 13.07 -0.66 8.32 0.11ZM10.19 11.06L7.39 11.52L6.52 6.43L9.32 5.97C10.78 5.73 12.13 6.68 12.37 8.07C12.62 9.53 11.65 10.82 10.19 11.06Z" fill="#49CBF4" fill-opacity="1.000000" fill-rule="nonzero"/>
	<path id="Vector" d="M37.9 24.32L29.75 6.5C29.47 5.91 29.03 5.45 28.43 5.2C27.81 4.96 27.02 4.96 26.39 5.2C25.83 5.45 25.32 5.91 25.07 6.5L16.93 24.32C16.37 25.55 16.93 27.03 18.19 27.55C19.29 28.01 20.83 27.7 21.49 26.29L22.62 23.86L32.24 23.86L33.34 26.29C34 27.73 35.6 28.07 36.64 27.55C37.86 26.93 38.46 25.55 37.9 24.32ZM24.88 18.96L27.43 13.36L29.98 18.96L24.88 18.96Z" fill="#49CBF4" fill-opacity="1.000000" fill-rule="nonzero"/>
	<path id="Vector" d="M54.99 21.85L51.79 16.55C53.87 15.48 55.25 13.34 55.25 10.86C55.25 7.31 52.31 4.41 48.66 4.41L44.17 4.41C42.93 4.41 41.9 5.42 41.9 6.66L41.9 23.01C41.9 24.25 42.93 25.26 44.17 25.26C45.46 25.26 46.5 24.25 46.5 23.01L46.5 17.34L46.93 17.34L51.02 24.16C51.74 25.35 53.15 25.52 54.15 24.92C55.25 24.28 55.62 22.95 54.99 21.85ZM50.67 10.86C50.67 11.99 49.78 12.83 48.66 12.83L46.5 12.83L46.5 8.92L48.66 8.92C49.78 8.92 50.67 9.79 50.67 10.86Z" fill="#49CBF4" fill-opacity="1.000000" fill-rule="nonzero"/>
	<path id="Vector" d="M72.43 1.18L60.86 1.18C59.2 1.18 57.87 2.49 57.87 4.08C57.87 5.67 59.2 6.97 60.86 6.97L63.71 6.97L63.71 25.06C63.71 26.65 65.04 27.95 66.66 27.95C68.25 27.95 69.58 26.65 69.58 25.06L69.58 6.97L72.43 6.97C74.09 6.97 75.42 5.67 75.42 4.08C75.42 2.49 74.09 1.18 72.43 1.18Z" fill="#49CBF4" fill-opacity="1.000000" fill-rule="nonzero"/>
	<path id="Vector" d="M94.4 9.57C93.45 8.5 91.84 8.34 90.75 9.24L85.49 13.57L83.15 7.25C82.66 5.93 81.19 5.28 79.85 5.75C78.5 6.26 77.8 7.69 78.32 9.01L81.63 17.97L79.19 26.89C78.82 28.22 79.62 29.61 81 29.98C82.39 30.34 83.82 29.53 84.18 28.2L86.63 19.28L94.07 13.15C95.15 12.24 95.32 10.67 94.4 9.57Z" fill="#49CBF4" fill-opacity="1.000000" fill-rule="nonzero"/>
	<path id="Vector" d="M22.56 42.17C22.56 41.88 22.44 41.63 22.22 41.45C22 41.26 21.71 41.09 21.37 40.94C21.03 40.79 20.66 40.63 20.26 40.47C19.87 40.3 19.5 40.1 19.16 39.87C18.82 39.63 18.54 39.33 18.31 38.97C18.09 38.62 17.98 38.17 17.98 37.62C17.98 37.14 18.06 36.74 18.22 36.39C18.39 36.04 18.62 35.74 18.91 35.51C19.22 35.28 19.58 35.11 19.99 34.99C20.4 34.88 20.86 34.83 21.37 34.83C21.95 34.83 22.5 34.88 23.02 34.98C23.54 35.07 23.96 35.21 24.3 35.4L23.68 37C23.47 36.87 23.15 36.76 22.73 36.66C22.31 36.54 21.86 36.49 21.37 36.49C20.91 36.49 20.55 36.58 20.31 36.75C20.07 36.93 19.95 37.17 19.95 37.47C19.95 37.75 20.06 37.98 20.28 38.16C20.51 38.35 20.79 38.52 21.12 38.68C21.47 38.84 21.84 39 22.23 39.17C22.63 39.34 23 39.54 23.33 39.78C23.68 40.02 23.96 40.31 24.18 40.66C24.41 41.01 24.53 41.44 24.53 41.96C24.53 42.49 24.44 42.94 24.25 43.32C24.08 43.69 23.83 44 23.51 44.25C23.19 44.51 22.8 44.69 22.34 44.81C21.9 44.93 21.4 45 20.85 45C20.13 45 19.5 44.93 18.96 44.8C18.41 44.67 18.01 44.54 17.75 44.41L18.38 42.77C18.49 42.83 18.62 42.89 18.78 42.96C18.96 43.02 19.15 43.08 19.36 43.14C19.57 43.19 19.79 43.24 20.02 43.28C20.26 43.31 20.5 43.33 20.75 43.33C21.33 43.33 21.78 43.24 22.09 43.05C22.4 42.86 22.56 42.56 22.56 42.17ZM33.48 36.73L30.55 36.73L30.55 44.8L28.58 44.8L28.58 36.73L25.64 36.73L25.64 35.02L33.48 35.02L33.48 36.73ZM38.84 42.63L35.75 42.63L34.99 44.8L33.02 44.8L36.64 34.95L38.09 34.95L41.71 44.8L39.64 44.8L38.84 42.63ZM36.25 41.1L38.41 41.1L37.66 38.92L37.36 37.38L37.29 37.38L36.99 38.93L36.25 41.1ZM49.1 36.73L46.17 36.73L46.17 44.8L44.2 44.8L44.2 36.73L41.26 36.73L41.26 35.02L49.1 35.02L49.1 36.73ZM50.83 35.02L52.8 35.02L52.8 44.8L50.83 44.8L50.83 35.02ZM54.91 39.91C54.91 38.28 55.28 37.03 56.01 36.15C56.75 35.27 57.81 34.83 59.17 34.83C59.89 34.83 60.52 34.95 61.06 35.19C61.59 35.43 62.04 35.78 62.39 36.22C62.75 36.67 63.01 37.21 63.18 37.83C63.35 38.45 63.44 39.15 63.44 39.91C63.44 41.54 63.07 42.8 62.32 43.68C61.58 44.56 60.53 45 59.17 45C58.45 45 57.82 44.87 57.28 44.63C56.74 44.39 56.3 44.05 55.94 43.6C55.6 43.15 55.34 42.62 55.17 41.99C55 41.37 54.91 40.67 54.91 39.91ZM56.98 39.91C56.98 40.4 57.02 40.86 57.11 41.28C57.19 41.69 57.32 42.04 57.49 42.34C57.67 42.64 57.91 42.87 58.18 43.04C58.46 43.21 58.79 43.29 59.17 43.29C59.87 43.29 60.41 43.03 60.8 42.49C61.18 41.96 61.37 41.1 61.37 39.91C61.37 39.44 61.33 38.99 61.24 38.58C61.16 38.17 61.04 37.82 60.87 37.51C60.7 37.2 60.47 36.96 60.19 36.8C59.92 36.62 59.58 36.53 59.17 36.53C58.48 36.53 57.93 36.8 57.55 37.35C57.17 37.89 56.98 38.75 56.98 39.91ZM67.85 39.7L67.06 38.16L66.99 38.16L67.22 39.7L67.22 44.8L65.35 44.8L65.35 34.95L66.78 34.95L70.59 40.16L71.35 41.66L71.42 41.66L71.19 40.16L71.19 35.02L73.06 35.02L73.06 44.87L71.62 44.87L67.85 39.7Z" fill="#FFFFFF" fill-opacity="1.000000" fill-rule="nonzero"/>
</svg>
