<svg width="150.000000" height="20.058594" viewBox="0 0 150 20.0586" fill="none" xmlns="http://www.w3.org/2000/svg" xmlns:xlink="http://www.w3.org/1999/xlink">
	<desc>
			Created with Pixso.
	</desc>
	<defs/>
	<mask id="mask70_1762" mask-type="alpha" maskUnits="userSpaceOnUse" x="63.095703" y="0.000000" width="86.904297" height="17.375000">
		<path id="Vector" d="M63.09 0L150 0L150 17.37L63.09 17.37L63.09 0Z" fill="#FFFFFF" fill-opacity="1.000000" fill-rule="nonzero"/>
	</mask>
	<g mask="url(#mask70_1762)">
		<path id="Vector" d="M142.37 4.23C142.37 2.43 144.03 1.37 145.87 1.37C147.09 1.37 148.26 1.83 149.17 2.64L149.68 1.87C148.63 0.96 147.29 0.47 145.91 0.49C143.39 0.49 141.41 1.98 141.41 4.3C141.41 8.89 149.04 7.86 149.04 12.03C149.04 13.81 147.61 14.95 145.65 14.95C144.18 14.92 142.78 14.33 141.73 13.3L141.11 14C142.32 15.17 143.94 15.84 145.63 15.84C148.35 15.84 150 14.15 150 11.92C149.99 7.06 142.37 8.14 142.37 4.2L142.37 4.23L142.37 4.23ZM129.33 8.5L135.27 8.5L135.27 7.63L129.33 7.63L129.33 1.56L136.57 1.56L136.57 0.71L128.41 0.71L128.41 15.53L136.96 15.53L136.96 14.68L129.33 14.68L129.33 8.5L129.33 8.5ZM116.06 0.01C111.71 -0.04 108.15 3.41 108.1 7.73C108.1 7.82 108.1 7.91 108.1 7.99C108.08 9.95 108.74 11.84 109.98 13.36C109.93 14.12 109.71 14.87 109.35 15.55C108.98 16.22 108.48 16.81 107.86 17.28C111.51 17.81 113.5 15.9 113.59 15.81C114.39 16.07 115.22 16.2 116.06 16.2C120.58 16.2 124.02 12.6 124.02 8C124.12 3.68 120.68 0.1 116.34 0C116.25 0 116.15 -0.01 116.05 0L116.06 0.01ZM99.5 8.12L95.46 8.12L95.46 1.56L98.86 1.56C100.06 1.56 100.53 1.66 100.95 1.85C101.49 2.1 101.95 2.51 102.26 3.01C102.57 3.52 102.73 4.11 102.7 4.71C102.69 6.72 101.45 8.12 99.5 8.12ZM100.66 8.84L100.66 8.79C102.41 8.41 103.65 6.83 103.65 4.71C103.68 3.98 103.5 3.26 103.14 2.63C102.77 2 102.23 1.49 101.58 1.15C100.98 0.86 100.28 0.71 98.89 0.71L94.53 0.71L94.53 15.52L95.46 15.52L95.46 8.96L99.73 8.96L103.27 15.52L104.36 15.52L101.01 9.35C100.92 9.16 100.8 8.99 100.67 8.84L100.66 8.84L100.66 8.84ZM82.01 8.48L87.95 8.48L87.95 7.63L82 7.63L82 1.56L89.24 1.56L89.24 0.71L81.08 0.71L81.08 15.53L89.63 15.53L89.63 14.68L82.01 14.68L82.01 8.48L82.01 8.48ZM73.46 7.68L64 7.68L64 0.72L63.09 0.72L63.09 15.52L64 15.52L64 8.52L73.46 8.52L73.46 15.52L74.38 15.52L74.38 0.71L73.46 0.71L73.46 7.67L73.46 7.68Z" fill="#FFFFFF" fill-opacity="1.000000" fill-rule="evenodd"/>
	</g>
	<mask id="mask70_1767" mask-type="alpha" maskUnits="userSpaceOnUse" x="0.000000" y="0.429688" width="56.003906" height="19.628906">
		<path id="Vector" d="M0 0.42L56 0.42L56 20.05L0 20.05L0 0.42Z" fill="#FFFFFF" fill-opacity="1.000000" fill-rule="nonzero"/>
	</mask>
	<g mask="url(#mask70_1767)">
		<path id="Vector" d="M17.88 15.71C17.3 15.71 16.75 15.94 16.34 16.34C15.93 16.75 15.7 17.31 15.7 17.89C15.7 18.17 15.76 18.46 15.87 18.72C15.98 18.98 16.15 19.22 16.35 19.42C16.55 19.63 16.79 19.79 17.06 19.89C17.33 20 17.61 20.06 17.9 20.05C18.47 20.05 19.03 19.82 19.44 19.42C19.84 19.01 20.08 18.45 20.08 17.87C20.07 17.3 19.84 16.75 19.43 16.34C19.02 15.93 18.47 15.7 17.89 15.71L17.88 15.71L17.88 15.71ZM50.09 12.46C49.7 12.45 49.31 12.48 48.93 12.52L48.93 12.48C49.36 12.07 49.75 11.61 50.09 11.12L55.92 2.93L55.92 0.68L44.56 0.68L44.56 3.8L50.08 3.8C50.47 3.8 50.86 3.78 51.24 3.74L51.24 3.78C50.81 4.19 50.41 4.65 50.08 5.14L44.29 13.29L44.29 15.58L56 15.58L56 12.46L50.09 12.46ZM36.4 15.58L40.07 15.58L40.07 0.68L36.4 0.68L36.4 15.58ZM28.27 10.1C28.27 11.66 27.24 12.5 25.67 12.5C24.09 12.5 23.06 11.66 23.06 10.1L23.06 0.67L19.39 0.67L19.39 10.1C19.39 13.46 21.87 15.83 25.69 15.83C29.51 15.83 31.94 13.46 31.94 10.1L31.94 0.67L28.27 0.67L28.27 10.1L28.27 10.1ZM14.2 12.45C15.15 11.18 15.67 9.63 15.69 8.04C15.69 3.76 12.48 0.42 7.84 0.42C3.21 0.42 0 3.76 0 8.04C0 10.94 1.4 13.44 3.7 14.76C5.5 12.14 3.84 14.55 5.66 11.86C5.06 11.42 4.57 10.85 4.25 10.18C3.92 9.52 3.77 8.78 3.8 8.04C3.8 5.6 5.47 3.76 7.84 3.76C10.15 3.76 11.89 5.6 11.89 8.04C11.9 8.7 11.76 9.36 11.5 9.97L10.01 8.53L7.96 10.85L9.48 12.17C11.97 14.48 9.66 12.33 12.17 14.61L13.72 16.04L15.8 13.72L14.2 12.46L14.2 12.45Z" fill="#FFFFFF" fill-opacity="1.000000" fill-rule="evenodd"/>
	</g>
</svg>
