<svg width="146.000000" height="32.286133" viewBox="0 0 146 32.2861" fill="none" xmlns="http://www.w3.org/2000/svg" xmlns:xlink="http://www.w3.org/1999/xlink">
	<desc>
			Created with Pixso.
	</desc>
	<defs>
		<filter id="filter_2_304_dd" x="11.476562" y="0.096680" width="21.781250" height="32.189453" filterUnits="userSpaceOnUse" color-interpolation-filters="sRGB">
			<feFlood flood-opacity="0" result="BackgroundImageFix"/>
			<feColorMatrix in="SourceAlpha" type="matrix" values="0 0 0 0 0 0 0 0 0 0 0 0 0 0 0 0 0 0 127 0" result="hardAlpha"/>
			<feOffset dx="0" dy="4"/>
			<feGaussianBlur stdDeviation="1.33333"/>
			<feComposite in2="hardAlpha" operator="out" k2="-1" k3="1"/>
			<feColorMatrix type="matrix" values="0 0 0 0 0 0 0 0 0 0 0 0 0 0 0 0 0 0 0.25 0"/>
			<feBlend mode="normal" in2="BackgroundImageFix" result="effect_dropShadow_1"/>
			<feBlend mode="normal" in="SourceGraphic" in2="effect_dropShadow_1" result="shape"/>
		</filter>
		<filter id="filter_2_307_dd" x="0.000000" y="0.000000" width="20.654297" height="32.027344" filterUnits="userSpaceOnUse" color-interpolation-filters="sRGB">
			<feFlood flood-opacity="0" result="BackgroundImageFix"/>
			<feColorMatrix in="SourceAlpha" type="matrix" values="0 0 0 0 0 0 0 0 0 0 0 0 0 0 0 0 0 0 127 0" result="hardAlpha"/>
			<feOffset dx="0" dy="4"/>
			<feGaussianBlur stdDeviation="1.33333"/>
			<feComposite in2="hardAlpha" operator="out" k2="-1" k3="1"/>
			<feColorMatrix type="matrix" values="0 0 0 0 0 0 0 0 0 0 0 0 0 0 0 0 0 0 0.25 0"/>
			<feBlend mode="normal" in2="BackgroundImageFix" result="effect_dropShadow_1"/>
			<feBlend mode="normal" in="SourceGraphic" in2="effect_dropShadow_1" result="shape"/>
		</filter>
	</defs>
	<path id="Shape" d="M142.83 6.67L142.83 11.25L136.44 11.25L136.44 6.67L133.29 6.67L133.29 18.79L136.44 18.79L136.44 13.89L142.83 13.89L142.83 18.79L146 18.79L146 6.67L142.83 6.67Z" fill="#FFFFFF" fill-opacity="1.000000" fill-rule="nonzero"/>
	<path id="Shape" d="" fill="#FFFFFF" fill-opacity="1.000000" fill-rule="nonzero"/>
	<path id="Shape" d="M52.84 4.48C51.36 4.48 50.42 5.25 49.73 6.77L45.63 15.87L41.52 6.77C40.83 5.25 39.89 4.48 38.41 4.48C37.03 4.48 35.6 5.44 35.6 7.5L35.6 18.79L38.74 18.79L38.74 7.82L42.88 16.86C43.44 18.12 44.33 18.92 45.63 18.92C46.92 18.92 47.81 18.12 48.37 16.86L52.51 7.82L52.51 18.79L55.65 18.79L55.65 7.51C55.65 5.44 54.22 4.48 52.84 4.48Z" fill="#FFFFFF" fill-opacity="1.000000" fill-rule="nonzero"/>
	<path id="Shape" d="M61.17 16.23C61.02 16.23 60.9 16.11 60.9 15.97L60.9 13.81L68.76 13.81L68.76 11.33L60.9 11.33L60.9 9.49C60.9 9.34 61.02 9.23 61.17 9.23L68.94 9.23L68.94 6.67L59.62 6.67C58.53 6.67 57.75 7.54 57.75 8.47L57.75 16.96C57.75 17.88 58.55 18.75 59.62 18.75L68.94 18.75L68.94 16.2L61.17 16.2L61.17 16.23Z" fill="#FFFFFF" fill-opacity="1.000000" fill-rule="nonzero"/>
	<path id="Shape" d="M74.29 18.79L74.29 9.5C74.29 9.36 74.41 9.24 74.56 9.24L82.34 9.24L82.34 6.68L73.01 6.68C71.92 6.68 71.15 7.56 71.15 8.48L71.15 18.79L74.29 18.79Z" fill="#FFFFFF" fill-opacity="1.000000" fill-rule="nonzero"/>
	<path id="Shape" d="" fill="#FFFFFF" fill-opacity="1.000000" fill-rule="nonzero"/>
	<path id="Shape" d="" fill="#FFFFFF" fill-opacity="1.000000" fill-rule="nonzero"/>
	<g filter="url(#filter_2_304_dd)">
		<path id="Shape" d="" fill="#FFFFFF" fill-opacity="1.000000" fill-rule="nonzero"/>
	</g>
	<g filter="url(#filter_2_307_dd)">
		<path id="Shape" d="" fill="#FFFFFF" fill-opacity="1.000000" fill-rule="nonzero"/>
	</g>
</svg>
