<svg width="24.000000" height="24.000000" viewBox="0 0 24 24" fill="none" xmlns="http://www.w3.org/2000/svg" xmlns:xlink="http://www.w3.org/1999/xlink">
	<desc>
			Created with Pixso.
	</desc>
	<defs>
		<clipPath id="clip209_2014">
			<rect id="android-4 1" rx="11.500000" width="23.000000" height="23.000000" transform="translate(0.500000 0.500000)" fill="white" fill-opacity="0"/>
		</clipPath>
	</defs>
	<g clip-path="url(#clip209_2014)">
		<path id="Vector" d="M16.37 14.21C15.93 14.21 15.58 13.85 15.58 13.4C15.58 12.95 15.93 12.59 16.37 12.59C16.8 12.59 17.16 12.95 17.16 13.4C17.16 13.85 16.8 14.21 16.37 14.21ZM7.62 14.21C7.19 14.21 6.83 13.85 6.83 13.4C6.83 12.95 7.19 12.59 7.62 12.59C8.06 12.59 8.41 12.95 8.41 13.4C8.41 13.85 8.06 14.21 7.62 14.21ZM16.65 9.32L18.23 6.5C18.28 6.42 18.29 6.33 18.26 6.25C18.24 6.16 18.19 6.09 18.11 6.04C18.04 6 17.95 5.98 17.86 6.01C17.78 6.03 17.71 6.09 17.66 6.16L16.06 9.01C14.84 8.44 13.46 8.12 12 8.12C10.53 8.12 9.15 8.44 7.93 9.01L6.33 6.16C6.28 6.09 6.21 6.03 6.13 6.01C6.04 5.98 5.95 6 5.88 6.04C5.8 6.08 5.75 6.16 5.73 6.25C5.7 6.33 5.71 6.42 5.76 6.5L7.34 9.32C4.62 10.83 2.77 13.66 2.5 17L21.5 17C21.22 13.66 19.37 10.83 16.65 9.32L16.65 9.32Z" fill="#FFFFFF" fill-opacity="1.000000" fill-rule="nonzero"/>
	</g>
</svg>
