<svg width="167.617188" height="199.644043" viewBox="0 0 167.617 199.644" fill="none" xmlns="http://www.w3.org/2000/svg" xmlns:xlink="http://www.w3.org/1999/xlink">
	<desc>
			Created with Pixso.
	</desc>
	<defs/>
	<path id="Vector" d="M13.73 198.54C15.47 198.54 17.15 198.41 18.62 198.28C19.28 198.23 19.89 198.18 20.46 198.15C26.78 197.8 32.96 196.62 38.93 195.47C46.58 194.02 57.31 191.37 66.93 188.6C68.21 188.23 69.26 187.39 69.9 186.21C70.54 185.04 70.69 183.69 70.33 182.41C69.72 180.28 67.76 178.79 65.56 178.79C65.1 178.79 64.64 178.86 64.18 178.99C54.85 181.7 44.46 184.24 37.08 185.65C31.43 186.73 25.57 187.84 19.9 188.16C19.26 188.2 18.56 188.25 17.82 188.32C16.6 188.42 15.08 188.54 13.66 188.54C12.82 188.54 12.09 188.5 11.5 188.41C14.35 183 17.58 177.66 20.68 172.48C25.78 164.03 31.04 155.28 35.09 145.71C36.93 141.34 38.6 136.82 40.02 132.28L40.15 131.88C41.09 128.99 42.83 123.6 39.44 120.31C38.63 119.51 37.2 118.57 35.04 118.57C34.08 118.57 33.08 118.76 32.03 119.15C26.25 121.27 20.24 122.58 14.12 123.05C14.42 122.69 14.74 122.31 15.08 121.92C21.67 114.48 27.52 106.45 32.51 98.05L34.24 95.14C38.19 88.53 42.27 81.71 45.32 74.5C46.19 72.45 47.82 68.61 46.76 64.45C46.39 62.99 45.64 61.84 44.54 61.03C43.57 60.31 42.44 59.95 41.2 59.95C40.83 59.95 40.45 59.98 40.07 60.05L37.44 60.49C32.98 61.25 28.39 62.03 23.95 62.29C26.25 55.87 32.81 43.26 35.07 38.89C36.39 36.33 37.44 34.32 37.97 33.18C38.2 32.69 38.53 31.92 38.94 30.96C45.46 15.85 48.85 12.2 49.98 11.35C50.53 11.74 51.18 12.36 51.78 12.93C53.03 14.11 56.07 16.48 61.76 20.91C68.94 26.5 87.3 40.8 93.71 47.52C89.55 49.06 85.06 50.21 80.72 51.32L78.15 51.97C76.47 52.41 75.22 53.32 74.44 54.67C73.76 55.87 73.54 57.23 73.78 58.72C74.47 62.96 77.5 65.8 79.12 67.34C84.78 72.69 91.25 77.28 97.49 81.71L100.27 83.69C108.2 89.35 116.76 94.32 125.72 98.45C126.2 98.67 126.65 98.88 127.08 99.11C121.29 101.16 115.27 102.41 109.14 102.81C104.98 103.07 103.4 105.47 102.83 106.88C101.05 111.26 104.8 115.49 106.82 117.76L107.1 118.07C110.23 121.65 113.55 125.11 116.98 128.36C124.51 135.48 132.83 141.34 140.88 147.01C145.8 150.47 150.89 154.06 155.66 157.86C154.08 158.86 151.6 159.73 149.85 160.34C149.14 160.58 148.47 160.81 147.87 161.05C142.55 163.06 136.75 164.41 131.14 165.72C120.23 168.27 100.94 171.43 88.8 172.09C86.06 172.23 83.97 174.6 84.11 177.36C84.25 180.01 86.43 182.09 89.05 182.09C89.14 182.09 89.24 182.09 89.33 182.09C102 181.4 122.06 178.12 133.38 175.48C139.31 174.09 145.43 172.67 151.35 170.42C151.86 170.24 152.41 170.04 153 169.84C157.18 168.38 162.78 166.42 165.47 161.85C167.63 158.17 166.26 153.57 161.94 150.14C156.9 146.13 151.64 142.42 146.57 138.84C138.8 133.38 130.79 127.71 123.77 121.09C120.82 118.29 117.94 115.33 115.22 112.26C122.32 111.28 129.23 109.32 135.82 106.41C136.32 106.18 137.37 105.72 138.31 104.74C139.92 103.06 140.57 100.93 140.16 98.73C139.51 95.25 136.35 92.37 129.89 89.41C121.47 85.53 113.44 80.88 106.03 75.58L103.23 73.59C97.33 69.4 91.26 65.08 86.13 60.29C90.91 59.05 95.55 57.72 100.01 55.82C101.01 55.39 103.67 54.25 104.97 51.33C106.93 46.91 104.05 42.77 91.6 32.12C84.17 25.76 74.75 18.44 67.88 13.08C63.57 9.73 59.56 6.6 58.61 5.72C57.16 4.34 55.35 2.63 52.87 1.71C51.92 1.35 50.95 1.17 49.99 1.17C41.71 1.17 35.25 14.53 29.85 27.03C29.48 27.91 29.19 28.57 28.99 29C28.55 29.94 27.5 31.97 26.29 34.31C12.92 60.05 10.96 66.45 15.25 70.36C16.77 71.75 18.79 72.46 21.23 72.46L21.6 72.46C26.43 72.39 31.22 71.72 36.08 70.92C33.3 77.41 29.46 83.83 25.75 90.05L23.99 92.99C19.33 100.85 13.85 108.36 7.7 115.31C2.97 120.67 1.22 124.59 2.01 128.03C2.52 130.22 3.98 131.91 6.12 132.79C7.37 133.3 8.51 133.3 9.06 133.3C16.25 133.3 23.38 132.29 30.25 130.3C28.98 134.21 27.55 138.1 25.96 141.85C22.18 150.77 17.11 159.19 12.2 167.35C8.97 172.7 5.65 178.22 2.65 183.93C0.08 188.82 0.66 193.59 4.11 196.07C6.46 197.76 9.6 198.58 13.73 198.58L13.73 198.54Z" fill="#49CBF4" fill-opacity="1.000000" fill-rule="nonzero"/>
	<path id="Vector" d="M50 2.24C42.43 2.24 36.2 15.09 30.88 27.43C30.5 28.3 30.21 28.98 30 29.42C29.55 30.39 28.5 32.42 27.28 34.78C14.39 59.59 12.28 66.08 16.01 69.47C17.84 71.13 20.09 71.28 21.25 71.28C21.38 71.28 21.5 71.28 21.6 71.28C27.11 71.2 32.56 70.33 37.86 69.43C37.67 69.97 37.45 70.5 37.24 71.01C34.43 77.66 30.51 84.21 26.72 90.56L24.96 93.5C20.27 101.42 14.74 108.99 8.55 115.99C4.08 121.06 2.41 124.67 3.12 127.72C3.54 129.54 4.76 130.95 6.56 131.7C7.62 132.13 8.57 132.13 9.08 132.13C16.88 132.13 24.57 130.93 31.97 128.57C31.91 128.74 31.86 128.93 31.79 129.13L31.65 129.6C30.3 133.88 28.74 138.12 27 142.23C23.21 151.22 18.1 159.68 13.17 167.87C9.97 173.2 6.65 178.71 3.66 184.4C1.36 188.76 1.8 192.97 4.78 195.12C7.35 196.97 10.64 197.43 13.76 197.43C15.46 197.43 17.11 197.3 18.57 197.17C19.23 197.12 19.86 197.06 20.43 197.04C26.67 196.68 32.82 195.52 38.76 194.39C46.39 192.93 57.08 190.31 66.66 187.53C68.72 186.94 69.9 184.79 69.31 182.72C68.83 181.02 67.28 179.91 65.61 179.91C65.25 179.91 64.89 179.95 64.54 180.07C55.17 182.78 44.75 185.34 37.34 186.75C31.65 187.84 25.76 188.96 20.01 189.29C19.38 189.32 18.69 189.37 17.96 189.44C16.71 189.54 15.18 189.67 13.72 189.67C12.25 189.67 10.99 189.56 10.03 189.21C10.12 188.9 10.26 188.51 10.5 188.08C13.38 182.59 16.64 177.18 19.79 171.93C24.86 163.51 30.11 154.81 34.13 145.31C35.96 140.96 37.61 136.49 39.03 131.98L39.16 131.58C40.08 128.72 41.63 123.96 38.74 121.16C38.1 120.54 36.92 119.72 35.1 119.72C34.34 119.72 33.47 119.87 32.48 120.24C25.83 122.68 18.91 124.06 11.85 124.35C12.39 123.56 13.17 122.53 14.32 121.23C20.86 113.84 26.67 105.87 31.63 97.53L33.36 94.62C37.28 88.04 41.34 81.25 44.36 74.11C45.18 72.18 46.71 68.57 45.74 64.77C45.44 63.57 44.84 62.63 43.94 61.97C43.16 61.4 42.26 61.11 41.25 61.11C40.94 61.11 40.63 61.14 40.31 61.19L37.68 61.64C32.65 62.49 27.47 63.37 22.46 63.53C24.14 57.7 31.51 43.5 34.15 38.42C35.48 35.88 36.51 33.87 37.03 32.75C37.26 32.27 37.58 31.51 37.99 30.57C45.42 13.33 48.95 10.54 50.06 10.12C50.83 10.49 51.72 11.34 52.59 12.17C53.82 13.33 56.83 15.68 62.49 20.09C70.49 26.32 90.46 41.87 95.66 48.03C91.03 49.89 85.95 51.19 81.03 52.45L78.47 53.11C77.09 53.46 76.07 54.19 75.44 55.29C74.89 56.26 74.72 57.37 74.91 58.59C75.55 62.47 78.39 65.15 79.92 66.58C85.53 71.88 91.96 76.44 98.17 80.87L100.95 82.84C108.82 88.48 117.33 93.41 126.23 97.5C127.82 98.23 128.96 98.85 129.77 99.35C123.2 101.95 116.32 103.51 109.26 103.96C105.7 104.19 104.37 106.18 103.9 107.35C102.38 111.09 105.71 114.83 107.68 117.06L107.96 117.38C111.07 120.93 114.36 124.37 117.77 127.59C125.24 134.65 133.53 140.5 141.54 146.14C146.52 149.65 151.67 153.28 156.5 157.14C156.89 157.45 157.18 157.75 157.39 157.99C155.89 159.46 152.55 160.63 150.24 161.42C149.55 161.67 148.88 161.89 148.3 162.13C142.92 164.16 137.07 165.52 131.42 166.84C120.47 169.39 101.1 172.57 88.9 173.23C86.77 173.35 85.14 175.18 85.25 177.32C85.36 179.39 87.05 181 89.1 181C89.17 181 89.24 181 89.32 181C101.93 180.31 121.91 177.04 133.18 174.41C139.07 173.03 145.16 171.61 151.01 169.4C151.55 169.2 152.15 168.99 152.78 168.77C156.7 167.4 162.09 165.52 164.57 161.29C166.43 158.12 165.15 154.09 161.3 151.03C156.3 147.04 151.05 143.34 145.97 139.76C138.19 134.28 130.12 128.59 123.06 121.91C119.82 118.86 116.69 115.6 113.75 112.24L113.43 111.87C113.29 111.71 113.16 111.57 113.04 111.43C120.76 110.58 128.27 108.56 135.41 105.41C135.88 105.19 136.76 104.81 137.55 103.98C138.89 102.57 139.45 100.78 139.1 98.95C138.52 95.86 135.55 93.23 129.46 90.43C120.96 86.52 112.89 81.83 105.41 76.49C104.48 75.82 103.56 75.17 102.62 74.5C96.62 70.23 90.41 65.82 85.19 60.89C84.78 60.51 84.38 60.11 83.99 59.7C89.18 58.37 94.52 56.96 99.6 54.79C100.49 54.42 102.86 53.39 103.99 50.87C105.49 47.51 103.95 44.12 90.91 32.97C83.47 26.61 74.07 19.28 67.19 13.94C62.73 10.46 58.87 7.46 57.87 6.52C56.49 5.2 54.77 3.58 52.5 2.73C51.65 2.42 50.83 2.26 50.01 2.26L50 2.24ZM50.01 0.04C51.1 0.04 52.19 0.24 53.27 0.64C55.97 1.65 57.95 3.52 59.39 4.88C60.3 5.75 64.28 8.85 68.5 12.13L67.23 13.95L68.57 12.19C75.45 17.55 84.87 24.88 92.33 31.25C105.28 42.34 108.22 46.75 105.99 51.76C104.52 55.08 101.46 56.39 100.46 56.82C96.56 58.48 92.53 59.71 88.4 60.83C93.15 65.04 98.59 68.9 103.88 72.67C104.82 73.33 105.75 74 106.68 74.67C114.03 79.93 122.01 84.55 130.37 88.4C137.17 91.53 140.54 94.65 141.26 98.52C141.74 101.05 140.95 103.59 139.12 105.51C138.03 106.64 136.85 107.16 136.29 107.42C130.25 110.09 123.93 111.98 117.45 113.05C119.74 115.55 122.12 117.97 124.55 120.28C131.5 126.86 139.5 132.49 147.22 137.93C152.31 141.52 157.59 145.24 162.65 149.27C167.41 153.07 168.9 158.23 166.44 162.41C163.54 167.34 157.72 169.37 153.47 170.86L153.37 170.89C152.8 171.09 152.26 171.28 151.76 171.47C145.77 173.72 139.62 175.17 133.67 176.56C122.29 179.21 102.14 182.5 89.41 183.2C89.3 183.2 89.18 183.2 89.06 183.2C85.84 183.2 83.2 180.65 83.02 177.42C82.84 174.06 85.41 171.17 88.75 170.99C100.84 170.33 120.04 167.19 130.91 164.65C136.49 163.35 142.25 162 147.5 160.02C148.11 159.78 148.78 159.55 149.5 159.3C150.66 158.9 152.29 158.33 153.66 157.7C149.3 154.32 144.72 151.08 140.27 147.95C132.2 142.25 123.85 136.36 116.25 129.2C112.8 125.93 109.44 122.45 106.29 118.84L106.02 118.52C103.84 116.08 99.8 111.52 101.84 106.49C102.38 105.17 104.16 102.05 109.09 101.73C114.21 101.39 119.25 100.46 124.14 98.96C115.52 94.92 107.29 90.1 99.65 84.63L96.88 82.65C90.61 78.19 84.11 73.58 78.39 68.18C76.79 66.68 73.48 63.55 72.72 58.93C72.43 57.18 72.7 55.57 73.51 54.15C74.44 52.54 75.96 51.43 77.9 50.93L80.48 50.27C84.25 49.32 88.1 48.33 91.74 47.08C84.55 40.05 67.88 27.08 61.13 21.82C55.25 17.25 52.37 14.99 51.07 13.77C50.76 13.48 50.41 13.14 50.07 12.84C48.72 14.27 45.52 18.61 40 31.43C39.58 32.4 39.25 33.18 39.01 33.68C38.48 34.84 37.41 36.88 36.09 39.43C34.01 43.44 28.3 54.44 25.65 61.08C29.5 60.74 33.46 60.07 37.31 59.41L39.94 58.97C40.39 58.89 40.83 58.86 41.25 58.86C42.73 58.86 44.08 59.29 45.25 60.15C46.55 61.1 47.45 62.5 47.88 64.2C49.03 68.74 47.24 72.95 46.39 74.97C43.31 82.24 39.21 89.11 35.24 95.74L33.51 98.65C28.71 106.74 23.11 114.48 16.84 121.69C21.91 121.09 26.89 119.89 31.71 118.12C32.87 117.7 34.02 117.48 35.1 117.48C37.06 117.48 38.91 118.21 40.26 119.54C44.14 123.31 42.26 129.12 41.24 132.24L41.11 132.64C39.68 137.21 38 141.75 36.15 146.16C32.08 155.8 26.78 164.58 21.67 173.07C18.85 177.74 15.94 182.57 13.32 187.43C13.44 187.43 13.57 187.43 13.7 187.43C15.08 187.43 16.57 187.31 17.77 187.21C18.52 187.14 19.23 187.09 19.88 187.05C25.48 186.73 31.29 185.63 36.92 184.55C44.26 183.15 54.61 180.61 63.92 177.91C64.47 177.76 65.03 177.67 65.61 177.67C68.3 177.67 70.69 179.49 71.43 182.09C71.88 183.65 71.69 185.31 70.91 186.73C70.13 188.16 68.84 189.2 67.28 189.64C57.64 192.44 46.88 195.08 39.18 196.55C33.17 197.7 26.96 198.88 20.58 199.24C20.02 199.27 19.42 199.32 18.77 199.37C17.27 199.5 15.57 199.64 13.77 199.64C9.41 199.64 6.06 198.75 3.51 196.92C-0.41 194.08 -1.12 188.76 1.73 183.35C4.75 177.62 8.08 172.08 11.3 166.72C16.2 158.59 21.26 150.19 25 141.35C26.31 138.25 27.51 135.06 28.6 131.85C22.25 133.51 15.71 134.34 9.12 134.34C8.5 134.34 7.21 134.34 5.76 133.74C3.32 132.74 1.58 130.72 1 128.21C0.12 124.38 1.95 120.15 6.94 114.49C13.04 107.59 18.48 100.14 23.11 92.34L24.86 89.41C28.21 83.82 31.65 78.06 34.31 72.27C30.08 72.92 25.9 73.43 21.68 73.49C21.58 73.49 21.45 73.49 21.29 73.49C18.57 73.49 16.32 72.69 14.58 71.1C9.46 66.44 12.27 58.94 25.37 33.73C26.58 31.39 27.63 29.38 28.05 28.47C28.25 28.03 28.54 27.38 28.89 26.56C34.69 13.1 41.1 0 50.06 0L50.01 0.04Z" fill="#25C6F9" fill-opacity="1.000000" fill-rule="nonzero"/>
</svg>
