<svg width="181.292969" height="152.460205" viewBox="0 0 181.293 152.46" fill="none" xmlns="http://www.w3.org/2000/svg" xmlns:xlink="http://www.w3.org/1999/xlink">
	<desc>
			Created with Pixso.
	</desc>
	<defs>
		<linearGradient x1="124.674164" y1="31.992706" x2="-9.549103" y2="109.486542" id="paint_linear_70_1466_0" gradientUnits="userSpaceOnUse">
			<stop stop-color="#800BF5"/>
			<stop offset="1.000000" stop-color="#25C6F9"/>
		</linearGradient>
	</defs>
	<path id="Vector 40" d="M110.74 0.56Q145.23 -2.57 181.29 11.52L180.56 13.38Q144.75 -0.61 110.55 2.59Q107.71 2.86 104.88 3.24Q82 6.35 63.03 16.65Q53.31 21.93 44.62 29.1Q31.83 39.65 23 52.85Q14.27 65.89 9.4 81.51Q7.18 88.65 5.89 95.95Q1.41 121.4 8.28 148.84L11.06 144.03C11.34 143.54 11.94 143.38 12.43 143.66C12.91 143.94 13.08 144.54 12.79 145.03L8.79 151.95C8.51 152.44 7.91 152.6 7.42 152.32L0.5 148.31C0.01 148.03 -0.15 147.43 0.13 146.95C0.41 146.46 1.01 146.3 1.5 146.58L6.36 149.39Q-0.6 121.65 3.87 95.89Q5.19 88.32 7.49 80.92Q12.45 65.01 21.34 51.73Q30.33 38.29 43.35 27.56Q52.26 20.21 62.22 14.81Q81.45 4.4 104.61 1.26Q107.67 0.84 110.74 0.56Z" fill="url(#paint_linear_70_1466_0)" fill-opacity="1.000000" fill-rule="evenodd"/>
</svg>
