<svg width="81.681641" height="48.559326" viewBox="0 0 81.6816 48.5593" fill="none" xmlns="http://www.w3.org/2000/svg" xmlns:xlink="http://www.w3.org/1999/xlink">
	<desc>
			Created with Pixso.
	</desc>
	<defs>
		<linearGradient x1="18.729443" y1="25.829346" x2="77.537704" y2="10.071716" id="paint_linear_209_1987_0" gradientUnits="userSpaceOnUse">
			<stop stop-color="#800BF5"/>
			<stop offset="1.000000" stop-color="#25C6F9"/>
		</linearGradient>
	</defs>
	<path id="Vector 43" d="M15.68 16.56Q5 28.68 0 48.05L1.93 48.55Q6.81 29.64 17.18 17.88Q24 10.15 32.55 6.14Q35.53 4.74 38.73 3.79Q44.29 2.14 49.89 2.01Q55.63 1.87 61.4 3.31Q69.23 5.28 75.32 9.67Q76.78 10.73 78.15 11.93L72.68 11.93C72.12 11.93 71.68 12.37 71.68 12.93C71.68 13.49 72.12 13.93 72.68 13.93L80.68 13.93C81.24 13.93 81.68 13.49 81.68 12.93L81.68 4.93C81.68 4.37 81.24 3.93 80.68 3.93C80.12 3.93 79.68 4.37 79.68 4.93L79.68 10.61Q78.06 9.17 76.31 7.92Q69.99 3.4 61.88 1.37Q55.85 -0.14 49.85 0.01Q43.99 0.15 38.16 1.88Q34.7 2.9 31.48 4.43Q22.69 8.61 15.68 16.56Z" fill="url(#paint_linear_209_1987_0)" fill-opacity="1.000000" fill-rule="evenodd"/>
</svg>
