<svg width="175.001953" height="176.879883" viewBox="0 0 175.002 176.88" fill="none" xmlns="http://www.w3.org/2000/svg" xmlns:xlink="http://www.w3.org/1999/xlink">
	<desc>
			Created with Pixso.
	</desc>
	<defs>
		<filter id="filter_70_1536_dd" x="0.000000" y="0.000000" width="175.001953" height="176.879883" filterUnits="userSpaceOnUse" color-interpolation-filters="sRGB">
			<feFlood flood-opacity="0" result="BackgroundImageFix"/>
			<feColorMatrix in="SourceAlpha" type="matrix" values="0 0 0 0 0 0 0 0 0 0 0 0 0 0 0 0 0 0 127 0" result="hardAlpha"/>
			<feOffset dx="0" dy="4"/>
			<feGaussianBlur stdDeviation="1.33333"/>
			<feComposite in2="hardAlpha" operator="out" k2="-1" k3="1"/>
			<feColorMatrix type="matrix" values="0 0 0 0 0 0 0 0 0 0 0 0 0 0 0 0 0 0 0.25 0"/>
			<feBlend mode="normal" in2="BackgroundImageFix" result="effect_dropShadow_1"/>
			<feBlend mode="normal" in="SourceGraphic" in2="effect_dropShadow_1" result="shape"/>
		</filter>
	</defs>
	<g filter="url(#filter_70_1536_dd)">
		<path id="Vector" d="M77.28 166.91C76.47 166.91 75.64 166.83 74.82 166.65C70.25 165.72 66.66 162.33 65.46 157.82L54.48 116.31L14.05 101.83C9.66 100.25 6.6 96.39 6.07 91.76C5.54 87.13 7.65 82.68 11.57 80.13L47.66 56.87L48.95 13.95C49.08 9.28 51.8 5.18 56.06 3.23C60.29 1.3 65.18 1.91 68.81 4.87L102.08 32L143.3 19.96C147.79 18.66 152.52 19.96 155.67 23.41C158.83 26.86 159.75 31.68 158.06 36.04L142.53 76.08L166.73 111.56C169.35 115.42 169.57 120.35 167.26 124.41C164.98 128.47 160.66 130.83 155.99 130.57L113.12 128.19L86.85 162.16C84.51 165.19 80.98 166.89 77.26 166.89L77.28 166.91ZM21.82 89.97L59.96 103.64C63.72 105 66.6 108.11 67.62 111.99L77.99 151.16L102.77 119.11C105.22 115.93 109.1 114.18 113.08 114.4L153.53 116.64L130.71 83.17C128.45 79.86 127.97 75.64 129.41 71.92L144.05 34.15L105.16 45.52C101.32 46.64 97.16 45.79 94.05 43.27L62.64 17.68L61.42 58.17C61.3 62.16 59.21 65.87 55.84 68.04L21.8 89.99L21.82 89.97Z" fill="#FFF8C4" fill-opacity="1.000000" fill-rule="nonzero"/>
		<path id="Vector" d="M74.82 166.65C70.25 165.72 66.66 162.33 65.46 157.82L54.48 116.31L14.05 101.83C9.66 100.25 6.6 96.39 6.07 91.76C5.54 87.13 7.65 82.68 11.57 80.13L47.66 56.87L48.95 13.95C49.08 9.28 51.8 5.18 56.06 3.23C60.29 1.3 65.18 1.91 68.81 4.87L102.08 32L143.3 19.96C147.79 18.66 152.52 19.96 155.67 23.41C158.83 26.86 159.75 31.68 158.06 36.04L142.53 76.08L166.73 111.56C169.35 115.42 169.57 120.35 167.26 124.41C164.98 128.47 160.66 130.83 155.99 130.57L113.12 128.19L86.85 162.16C84.51 165.19 80.98 166.89 77.26 166.89L77.28 166.91C76.47 166.91 75.64 166.83 74.82 166.65ZM59.96 103.64C63.72 105 66.6 108.11 67.62 111.99L77.99 151.16L102.77 119.11C105.22 115.93 109.1 114.18 113.08 114.4L153.53 116.64L130.71 83.17C128.45 79.86 127.97 75.64 129.41 71.92L144.05 34.15L105.16 45.52C101.32 46.64 97.16 45.79 94.05 43.27L62.64 17.68L61.42 58.17C61.3 62.16 59.21 65.87 55.84 68.04L21.8 89.99L21.82 89.97L59.96 103.64Z" stroke="#FFD359" stroke-opacity="1.000000" stroke-width="3.940549"/>
	</g>
</svg>
