<svg width="79.203125" height="27.890503" viewBox="0 0 79.2031 27.8905" fill="none" xmlns="http://www.w3.org/2000/svg" xmlns:xlink="http://www.w3.org/1999/xlink">
	<desc>
			Created with Pixso.
	</desc>
	<defs>
		<linearGradient x1="25.822800" y1="-3.524540" x2="60.554844" y2="20.795097" id="paint_linear_74_6086_0" gradientUnits="userSpaceOnUse">
			<stop stop-color="#800BF5"/>
			<stop offset="1.000000" stop-color="#25C6F9"/>
		</linearGradient>
	</defs>
	<path id="Vector 41" d="M20.25 23.78Q8.84 18.02 0 4.83L1.66 3.71Q13.57 21.47 28.79 25.03Q35.01 26.48 41.77 25.56Q43.29 25.35 44.78 25.03Q53.18 23.18 60.73 17.45Q62.6 16.03 64.33 14.44Q69.82 9.39 73.78 2.68L68.5 4.28C67.97 4.44 67.42 4.15 67.26 3.62C67.09 3.08 67.39 2.53 67.92 2.37L75.58 0.04C76.11 -0.12 76.66 0.17 76.83 0.71L79.15 8.36C79.32 8.9 79.02 9.44 78.49 9.61C77.95 9.77 77.4 9.48 77.24 8.94L75.59 3.53Q71.52 10.49 65.86 15.75Q63.98 17.49 61.93 19.05Q54.18 24.93 45.53 26.91Q43.8 27.3 42.04 27.54Q37.24 28.19 32.58 27.61Q26.28 26.83 20.25 23.78Z" fill="url(#paint_linear_74_6086_0)" fill-opacity="1.000000" fill-rule="evenodd"/>
</svg>
