<svg width="79.203125" height="27.890503" viewBox="0 0 79.2031 27.8905" fill="none" xmlns="http://www.w3.org/2000/svg" xmlns:xlink="http://www.w3.org/1999/xlink">
	<desc>
			Created with Pixso.
	</desc>
	<defs>
		<linearGradient x1="25.822800" y1="31.415043" x2="60.554844" y2="7.095406" id="paint_linear_74_6094_0" gradientUnits="userSpaceOnUse">
			<stop stop-color="#800BF5"/>
			<stop offset="1.000000" stop-color="#25C6F9"/>
		</linearGradient>
	</defs>
	<path id="Vector 42" d="M20.25 4.1Q8.84 9.86 0 23.05L1.66 24.17Q13.57 6.41 28.79 2.85Q35.01 1.41 41.77 2.32Q43.29 2.53 44.78 2.86Q53.18 4.7 60.73 10.43Q62.6 11.85 64.33 13.44Q69.82 18.49 73.78 25.2L68.5 23.6C67.97 23.44 67.42 23.73 67.26 24.27C67.09 24.8 67.39 25.35 67.92 25.51L75.58 27.84C76.11 28 76.66 27.71 76.83 27.17L79.15 19.52C79.32 18.99 79.02 18.44 78.49 18.27C77.95 18.11 77.4 18.4 77.24 18.94L75.59 24.35Q71.52 17.39 65.86 12.13Q63.98 10.39 61.93 8.83Q54.18 2.95 45.53 0.97Q43.8 0.58 42.04 0.34Q37.24 -0.31 32.58 0.27Q26.28 1.05 20.25 4.1Z" fill="url(#paint_linear_74_6094_0)" fill-opacity="1.000000" fill-rule="evenodd"/>
</svg>
