<svg width="48.000000" height="48.000000" viewBox="0 0 48 48" fill="none" xmlns="http://www.w3.org/2000/svg" xmlns:xlink="http://www.w3.org/1999/xlink">
	<desc>
			Created with Pixso.
	</desc>
	<defs>
		<clipPath id="clip209_1977">
			<rect id="android-4 1" rx="23.500000" width="47.000000" height="47.000000" transform="translate(0.500000 0.500000)" fill="white" fill-opacity="0"/>
		</clipPath>
	</defs>
	<rect id="android-4 1" rx="23.500000" width="47.000000" height="47.000000" transform="translate(0.500000 0.500000)" fill="#800BF5" fill-opacity="1.000000"/>
	<g clip-path="url(#clip209_1977)">
		<path id="Vector" d="M29.06 25.71C28.55 25.71 28.14 25.28 28.14 24.75C28.14 24.22 28.55 23.79 29.06 23.79C29.56 23.79 29.97 24.22 29.97 24.75C29.97 25.28 29.56 25.71 29.06 25.71ZM18.93 25.71C18.43 25.71 18.02 25.28 18.02 24.75C18.02 24.22 18.43 23.79 18.93 23.79C19.44 23.79 19.85 24.22 19.85 24.75C19.85 25.28 19.44 25.71 18.93 25.71ZM29.39 19.92L31.22 16.59C31.27 16.5 31.28 16.39 31.25 16.29C31.23 16.19 31.16 16.1 31.08 16.05C30.99 16 30.89 15.98 30.79 16.01C30.69 16.04 30.61 16.1 30.56 16.19L28.7 19.56C27.29 18.88 25.69 18.51 24 18.51C22.3 18.51 20.7 18.88 19.29 19.56L17.43 16.19C17.38 16.1 17.3 16.04 17.2 16.01C17.1 15.98 17 16 16.91 16.05C16.83 16.1 16.76 16.19 16.74 16.29C16.71 16.39 16.72 16.5 16.77 16.59L18.6 19.92C15.46 21.71 13.31 25.05 13 29L35 29C34.68 25.05 32.53 21.71 29.39 19.92L29.39 19.92Z" fill="#FFFFFF" fill-opacity="1.000000" fill-rule="nonzero"/>
	</g>
</svg>
