<svg width="24.000000" height="24.000000" viewBox="0 0 24 24" fill="none" xmlns="http://www.w3.org/2000/svg" xmlns:xlink="http://www.w3.org/1999/xlink">
	<desc>
			Created with Pixso.
	</desc>
	<defs/>
	<rect id="24x24_icon/ok" rx="0.000000" width="23.000000" height="23.000000" transform="translate(0.500000 0.500000)" fill="#FFFFFF" fill-opacity="0"/>
	<path id="Vector" d="M12.01 5.01C13.24 5.01 14.23 5.97 14.23 7.15C14.23 8.33 13.24 9.29 12.01 9.29C10.79 9.29 9.8 8.33 9.8 7.15C9.8 5.97 10.79 5.01 12.01 5.01ZM12.01 12.31C14.96 12.31 17.35 10 17.35 7.15C17.35 4.31 14.96 2 12.01 2C9.07 2 6.67 4.31 6.67 7.15C6.67 10 9.07 12.31 12.01 12.31ZM14.17 16.52C15.27 16.28 16.32 15.87 17.27 15.29C18 14.85 18.21 13.91 17.75 13.21C17.29 12.5 16.32 12.29 15.59 12.74C13.39 14.07 10.6 14.07 8.4 12.74C7.67 12.29 6.7 12.5 6.24 13.21C5.78 13.91 5.99 14.85 6.72 15.29C7.69 15.88 8.73 16.29 9.82 16.52L6.84 19.41C6.23 20 6.23 20.96 6.84 21.55C7.46 22.14 8.45 22.14 9.06 21.55L12 18.71L14.93 21.55C15.54 22.14 16.53 22.14 17.15 21.55L17.15 21.55C17.76 20.96 17.76 20 17.15 19.41L17.15 19.41L14.16 16.52L14.17 16.52Z" fill="#FFFFFF" fill-opacity="1.000000" fill-rule="nonzero"/>
</svg>
