<svg width="17.000000" height="15.000000" viewBox="0 0 17 15" fill="none" xmlns="http://www.w3.org/2000/svg" xmlns:xlink="http://www.w3.org/1999/xlink">
	<desc>
			Created with Pixso.
	</desc>
	<defs/>
	<path id="Vector" d="M1.16 6.45C5.73 4.34 8.77 2.94 10.29 2.27C14.64 0.34 15.54 0.01 16.13 0C16.26 -0.01 16.55 0.03 16.74 0.19C16.9 0.33 16.94 0.51 16.96 0.64C16.98 0.77 17.01 1.07 16.99 1.3C16.75 3.93 15.73 10.33 15.21 13.28C15 14.53 14.56 14.95 14.14 14.99C13.24 15.08 12.55 14.35 11.66 13.73C10.29 12.77 9.51 12.17 8.17 11.24C6.63 10.15 7.63 9.55 8.51 8.58C8.74 8.33 12.74 4.45 12.82 4.09C12.83 4.05 12.84 3.89 12.75 3.8C12.66 3.71 12.52 3.74 12.42 3.77C12.29 3.8 10.08 5.35 5.82 8.41C5.2 8.87 4.63 9.09 4.12 9.08C3.57 9.07 2.49 8.75 1.69 8.47C0.71 8.13 -0.07 7.95 0 7.37C0.03 7.07 0.42 6.77 1.16 6.45Z" fill="#FFFFFF" fill-opacity="1.000000" fill-rule="nonzero"/>
</svg>
