<svg width="24.000000" height="24.000000" viewBox="0 0 24 24" fill="none" xmlns="http://www.w3.org/2000/svg" xmlns:xlink="http://www.w3.org/1999/xlink">
	<desc>
			Created with Pixso.
	</desc>
	<defs/>
	<rect id="24x24_icon/you tube" rx="0.000000" width="23.000000" height="23.000000" transform="translate(0.500000 0.500000)" fill="#FFFFFF" fill-opacity="0"/>
	<path id="Vector" d="M20.82 8.39C20.82 8.39 20.64 7.15 20.1 6.61C19.41 5.89 18.65 5.89 18.3 5.85C15.78 5.66 12 5.66 12 5.66L11.99 5.66C11.99 5.66 8.21 5.66 5.69 5.85C5.34 5.89 4.58 5.89 3.89 6.61C3.35 7.15 3.18 8.39 3.18 8.39C3.18 8.39 3 9.85 3 11.31L3 12.67C3 14.13 3.17 15.59 3.17 15.59C3.17 15.59 3.35 16.83 3.89 17.37C4.57 18.09 5.47 18.07 5.87 18.14C7.32 18.28 12 18.32 12 18.32C12 18.32 15.78 18.32 18.3 18.14C18.65 18.09 19.41 18.09 20.1 17.37C20.64 16.83 20.82 15.59 20.82 15.59C20.82 15.59 21 14.13 21 12.67L21 11.31C21 9.85 20.82 8.39 20.82 8.39ZM10.14 14.33L10.14 9.27L15 11.81L10.14 14.33Z" fill="#FFFFFF" fill-opacity="1.000000" fill-rule="nonzero"/>
</svg>
