<svg width="239.000000" height="89.050781" viewBox="0 0 239 89.0508" fill="none" xmlns="http://www.w3.org/2000/svg" xmlns:xlink="http://www.w3.org/1999/xlink">
	<desc>
			Created with Pixso.
	</desc>
	<defs/>
	<path id="Форма 5" d="M118.44 89.05C117.04 89.05 115.68 88.7 114.35 88C113.01 87.3 112.06 86.16 111.49 84.58C111.42 84.39 111.49 84.25 111.67 84.14C111.86 84.05 112.01 84.16 112.14 84.49C112.77 85.7 113.58 86.58 114.55 87.14C115.55 87.71 116.59 88 117.67 88C117.92 88 118.18 87.98 118.46 87.95C118.76 87.92 119.04 87.87 119.3 87.81C121.45 87.3 123.15 86.03 124.39 84C125.63 81.97 126.52 79.59 127.04 76.86C127.59 74.13 127.92 71.39 128.04 68.63C128.18 65.87 128.21 63.5 128.14 61.53C126.37 62.54 124.55 63.43 122.67 64.21C120.8 64.97 118.84 65.59 116.81 66.09C115.87 66.35 114.77 66.56 113.53 66.72C112.29 66.87 110.97 66.95 109.58 66.95C107.1 66.95 104.66 66.49 102.28 65.58C99.9 64.65 98.27 62.88 97.37 60.28C97.12 59.66 96.96 59.01 96.9 58.35C96.84 57.66 96.81 57.01 96.81 56.39C96.81 54.55 97.08 52.75 97.62 51C98.17 49.25 98.75 47.67 99.37 46.28C97.91 45.39 96.62 44.31 95.51 43.04C94.41 41.77 93.57 40.31 93 38.67C92.75 37.91 92.55 37.15 92.41 36.39C92.29 35.62 92.23 34.88 92.23 34.18C92.23 31.33 93.02 28.72 94.6 26.34C96.2 23.96 98.17 21.94 100.51 20.3C102.86 18.64 105.19 17.55 107.48 17.04C107.73 16.98 108.31 16.89 109.23 16.76C110.16 16.62 111.04 16.55 111.86 16.55C112.88 16.55 113.42 16.69 113.49 16.95C113.61 17.2 113.51 17.32 113.18 17.32C112.3 17.32 111.45 17.32 110.62 17.32C109.8 17.32 108.94 17.41 108.04 17.6C105.89 18.11 103.78 19.12 101.72 20.62C99.65 22.11 97.94 23.93 96.58 26.09C95.21 28.24 94.53 30.62 94.53 33.23C94.53 33.93 94.59 34.64 94.72 35.37C94.84 36.1 95.03 36.85 95.27 37.62C96.24 40.29 97.96 42.48 100.44 44.18C102.53 40.18 104.84 36.68 107.37 33.67C109.91 30.65 112.58 27.76 115.37 25C118.18 22.24 121 19.3 123.86 16.18C123.86 15.61 123.84 15 123.81 14.37C123.78 13.73 123.76 13.1 123.76 12.46C123.76 10.94 123.84 9.41 124 7.86C124.17 6.29 124.5 4.94 125 3.81C125.38 2.97 125.88 2.13 126.49 1.27C127.09 0.42 127.87 0 128.81 0C129.45 0 129.98 0.2 130.42 0.62C130.87 1.03 131.22 1.54 131.49 2.18C131.73 2.75 131.86 3.45 131.86 4.27C131.86 5.67 131.49 7.06 130.77 8.46C130.04 9.86 129.19 11.14 128.23 12.32C127.28 13.5 126.43 14.53 125.67 15.41C125.67 18.02 125.87 20.67 126.28 23.37C126.7 26.07 127.1 28.72 127.49 31.32C128.94 29.49 130.67 27.77 132.67 26.16C134.67 24.53 136.85 23.43 139.21 22.86C139.97 22.66 140.79 22.55 141.67 22.55C142.94 22.55 144.17 22.86 145.35 23.46C146.53 24.07 147.39 25.2 147.95 26.86C148.34 28 148.53 29.28 148.53 30.67C148.53 32.31 148.31 34.01 147.86 35.76C147.42 37.5 146.98 39 146.53 40.28C145.08 44.21 143.08 47.76 140.53 50.9C137.99 54.05 135.04 56.73 131.67 58.95C131.73 59.97 131.8 61.03 131.86 62.11C131.92 63.18 131.95 64.26 131.95 65.35C131.95 68.65 131.65 71.97 131.04 75.3C130.44 78.63 129.35 81.52 127.76 83.95C126.18 86.4 123.83 88.01 120.72 88.77C120.08 88.95 119.32 89.05 118.44 89.05ZM125.67 14.09C126.12 13.58 126.71 12.7 127.44 11.46C128.17 10.22 128.82 8.9 129.39 7.51C129.97 6.11 130.25 4.97 130.25 4.09C130.25 3.7 130.21 3.44 130.14 3.32C130.08 3.13 129.98 2.95 129.86 2.76C129.73 2.56 129.55 2.46 129.3 2.46C128.91 2.46 128.51 2.73 128.09 3.27C127.69 3.82 127.42 4.27 127.3 4.65C126.73 5.86 126.32 7.4 126.09 9.27C125.87 11.15 125.73 12.75 125.67 14.09ZM106.9 46.28C109 46.28 111.01 45.79 112.95 44.81C114.89 43.82 116.68 42.59 118.32 41.14C119.98 39.68 121.43 38.27 122.67 36.9C123.91 35.54 124.85 34.48 125.49 33.72C125.16 30.99 124.85 28.28 124.56 25.58C124.28 22.86 124.04 20.14 123.86 17.41C122.34 19.07 120.78 20.7 119.18 22.3C117.6 23.88 116.08 25.52 114.62 27.23C112.97 29.14 111.42 31.15 110 33.28C108.57 35.4 107.25 37.61 106.04 39.9C105.53 40.79 105.05 41.71 104.6 42.67C104.17 43.62 103.72 44.6 103.28 45.62C104.42 46.06 105.63 46.28 106.9 46.28ZM131.39 57.53C134.37 55.63 136.98 53.38 139.23 50.81C141.49 48.24 143.26 45.21 144.53 41.72C145.11 40.12 145.52 38.67 145.77 37.37C146.03 36.07 146.16 34.88 146.16 33.81C146.16 31.27 145.56 29.36 144.35 28.09C143.14 26.82 141.58 26.18 139.67 26.18C137.95 26.18 136.04 26.71 133.95 27.76C131.86 28.8 129.77 30.37 127.67 32.46C128.31 36.66 129.02 40.86 129.81 45.04C130.6 49.23 131.13 53.39 131.39 57.53ZM113.09 64.18C114.18 64.18 115.24 64.11 116.28 63.95C117.33 63.8 118.27 63.63 119.09 63.44C122.27 62.66 125.22 61.52 127.95 60C127.89 55.81 127.62 51.61 127.14 47.39C126.67 43.16 126.18 38.92 125.67 34.67C124.97 35.87 123.99 37.25 122.72 38.81C121.45 40.36 119.95 41.85 118.23 43.28C116.52 44.7 114.67 45.9 112.67 46.86C110.67 47.8 108.59 48.28 106.44 48.28C105.17 48.28 103.9 48.09 102.62 47.72C102.36 48.6 102.12 49.59 101.9 50.67C101.69 51.74 101.58 52.82 101.58 53.9C101.58 55.24 101.76 56.57 102.14 57.9C103.03 60.32 104.55 61.97 106.67 62.86C108.79 63.74 110.93 64.18 113.09 64.18Z" fill="#D0D0D0" fill-opacity="1.000000" fill-rule="nonzero"/>
	<path id="Форма 6" d="M10.52 65.11C9.24 65.11 8.13 64.67 7.19 63.79Q5.77 62.47 5.18 59.53C5.13 59.38 5.1 59.19 5.1 58.97L5.1 58.28Q5.1 56.8 5.39 54.55C5.6 53.04 5.85 51.39 6.14 49.58Q6.59 46.85 6.99 43.97Q7.4 41.08 7.69 38.31Q8 35.54 8 33.28C8 31.39 7.8 29.88 7.4 28.72Q7.03 27.63 6.29 27.22Q5.84 26.98 5.25 26.98Q5.17 26.98 5.09 26.98L5.09 26.98Q4.21 27.03 3.36 27.63Q2.44 28.27 1.73 29.06Q1.03 29.83 0.61 30.3C0.35 30.61 0.19 30.66 0.14 30.45C0.09 30.34 0.06 30.23 0.03 30.13C0.01 30.02 0 29.91 0 29.79Q0 28.94 0.65 28Q1.32 27.06 2.5 26.42Q2.68 26.32 2.88 26.23L2.88 26.23Q3.93 25.77 5.18 25.77C5.38 25.77 5.56 25.77 5.7 25.79C5.85 25.8 6 25.83 6.15 25.86Q7.92 26.14 8.99 27.15Q9.67 27.79 10.07 28.72Q11.12 31.13 11.12 34.56C11.12 36.29 10.98 38.12 10.7 40.06C10.44 41.99 10.14 43.94 9.81 45.89C9.5 47.84 9.2 49.69 8.93 51.45Q8.53 54.08 8.53 56.1C8.53 56.48 8.54 56.84 8.56 57.19C8.59 57.53 8.62 57.85 8.67 58.14C9.07 60.02 9.61 61.34 10.3 62.09C10.99 62.85 11.78 63.24 12.68 63.24C13.67 63.24 14.69 62.91 15.76 62.25Q17.35 61.27 18.91 59.8C19.95 58.81 20.89 57.83 21.73 56.85Q23.44 54.93 24.85 52.34C25.79 50.62 26.64 48.86 27.41 47.07C28.18 45.28 28.78 43.65 29.22 42.16C28.72 41.65 28.43 41.13 28.33 40.6C28.23 40.07 28.18 39.38 28.18 38.54C28.18 37.65 28.46 36.95 29 36.45C29.54 35.94 30.11 35.69 30.7 35.69C31.6 35.69 32.19 36.13 32.5 37.03C33.04 38.51 33.58 40.08 34.13 41.74C34.67 43.39 35.27 45 35.94 46.58C36.6 48.16 37.38 49.62 38.28 50.96C40.11 53.61 41.8 55.5 43.33 56.65C44.86 57.79 46.27 58.36 47.55 58.36C48.89 58.36 50.07 57.85 51.08 56.83Q52.61 55.29 53.64 52.77C54.33 51.08 54.85 49.25 55.2 47.28C55.55 45.29 55.72 43.35 55.72 41.44C55.72 39.87 55.61 38.39 55.38 37.03C55.16 35.65 54.78 34.53 54.24 33.67Q53.94 33.16 53.8 32.62Q53.79 32.59 53.78 32.56C53.69 32.17 53.64 31.82 53.64 31.49C53.64 31.07 53.72 30.71 53.89 30.41C54.07 30.11 54.33 29.96 54.67 29.96C55.07 29.96 55.47 30.14 55.87 30.51C56.41 30.92 56.92 31.5 57.39 32.23Q58.09 33.32 58.6 34.12C59 34.71 59.52 35.44 60.16 36.29Q61.14 37.56 62.21 38.61C62.92 39.31 63.63 39.73 64.33 39.88C64.42 39.91 64.47 39.97 64.47 40.06C64.47 40.24 64.25 40.39 63.8 40.5C63.35 40.62 63.03 40.66 62.84 40.64C61.71 40.31 60.75 39.96 59.98 39.59C59.22 39.22 58.34 38.53 57.35 37.52C57.4 38.05 57.42 38.59 57.42 39.14L57.42 40.78C57.42 42.33 57.33 43.87 57.15 45.42Q56.9 47.74 56.16 50.11Q54.53 55.25 52.04 57.44C50.39 58.89 48.64 59.62 46.81 59.62C45.32 59.62 43.85 59.22 42.39 58.44C40.94 57.65 39.59 56.6 38.35 55.29C37.12 53.98 36.05 52.52 35.16 50.91C34.37 49.36 33.7 47.94 33.15 46.64C32.6 45.35 32.19 44.21 31.9 43.23C31.1 45.37 30.07 47.5 28.8 49.62Q26.92 52.78 24.62 55.57Q22.31 58.36 19.83 60.51C18.18 61.94 16.55 63.07 14.94 63.88C13.33 64.7 11.86 65.11 10.52 65.11ZM155.01 76.77C152.72 76.77 150.53 76.2 148.43 75.06C146.33 73.94 144.57 72.3 143.16 70.16C141.76 68.01 140.93 65.42 140.68 62.39C139.14 62.47 137.74 62.52 136.46 62.52C133.58 62.52 131.49 62.29 130.17 61.84C128.87 61.4 128.21 60.82 128.21 60.11C128.21 59.39 128.78 58.61 129.92 57.74C131.05 56.88 132.63 56.01 134.66 55.14C136.69 54.26 139.07 53.46 141.8 52.74C142.73 49.71 144.25 46.43 146.35 42.9C148.46 39.37 151.3 35.62 154.86 31.66C155.2 31.28 155.72 31.09 156.42 31.09C156.85 31.09 157.25 31.18 157.6 31.36C157.95 31.53 158.12 31.77 158.12 32.07C158.12 32.21 158.04 32.41 157.89 32.64C154.72 36.49 152.09 40.01 149.99 43.21C147.89 46.41 146.24 49.33 145.06 51.99Q148.39 51.22 152.18 50.73C154.71 50.4 157.28 50.21 159.9 50.15C160.59 50.15 160.93 50.21 160.93 50.33C160.93 50.45 160.7 50.56 160.22 50.67C159.77 50.77 158.99 50.83 157.89 50.86C155.47 50.96 153.16 51.16 150.95 51.47C148.75 51.79 146.69 52.16 144.75 52.61C144.02 54.34 143.45 55.94 143.05 57.41C142.66 58.88 142.42 60.24 142.31 61.49C147.4 60.84 152.04 59.88 156.22 58.61C160.4 57.35 164.1 55.88 167.31 54.22Q172.15 51.71 175.41 49.03C176.8 47.9 177.8 46.9 178.41 46.02C179.03 45.14 179.34 44.38 179.34 43.72C179.34 42.77 178.84 42.02 177.85 41.46C176.86 40.91 175.55 40.51 173.92 40.27C172.29 40.01 170.51 39.88 168.58 39.88C166.55 39.88 164.49 40 162.42 40.22C160.34 40.44 158.46 40.74 156.78 41.13C156.38 41.19 156.11 41.22 155.97 41.22C155.33 41.22 155.01 41.09 155.01 40.82C155.01 40.55 155.28 40.34 155.82 40.19C161.91 38.11 166.24 36.22 168.81 34.53Q172.67 31.98 172.67 30.24Q172.67 29.97 172.6 29.72Q172.26 28.58 170.33 27.89Q168 27.06 164.21 27.06C162.23 27.06 160 27.26 157.53 27.65C155.05 28.04 152.5 28.66 149.88 29.52Q146.62 30.6 143.97 32.04Q141.35 33.5 139.52 35.04Q137.71 36.58 136.82 37.94C136.34 38.67 136.1 39.3 136.1 39.85C136.1 39.98 136.12 40.11 136.15 40.23C136.15 40.3 136.16 40.37 136.18 40.44C136.21 40.51 136.22 40.58 136.22 40.64C136.22 41.38 135.85 41.76 135.12 41.76C134.76 41.76 134.4 41.61 134.03 41.31C133.67 41.01 133.48 40.57 133.48 39.97C133.48 39.08 133.94 38.12 134.84 37.11C135.76 36.1 137 35.08 138.56 34.05Q140.89 32.51 143.79 31.15C145.73 30.24 147.73 29.46 149.81 28.81C152.48 27.94 155.11 27.3 157.71 26.89C160.3 26.47 162.69 26.26 164.88 26.26Q169.39 26.26 172.22 27.34C174.1 28.05 175.04 29.04 175.04 30.32C175.04 31.51 174.08 32.9 172.15 34.48C170.21 36.05 166.97 37.79 162.42 39.7C163.95 39.55 165.38 39.44 166.71 39.37Q168.72 39.25 170.44 39.25Q176.82 39.25 179.66 40.53C181.57 41.38 182.53 42.47 182.53 43.81Q182.53 45.28 181.15 47C180.24 48.15 178.98 49.34 177.34 50.56C174.97 52.31 171.98 54.01 168.4 55.65Q163.01 58.1 156.37 59.89C151.95 61.08 147.24 61.88 142.24 62.3C142.23 62.55 142.22 62.8 142.22 63.04C142.22 65.36 142.64 67.3 143.47 68.86C144.38 70.59 145.56 71.94 146.98 72.91C148.42 73.87 149.86 74.56 151.29 74.96C152.73 75.36 153.92 75.56 154.86 75.56C155.55 75.56 156.02 75.48 156.26 75.34C156.46 75.18 156.76 75.11 157.16 75.11C157.55 75.11 157.92 75.2 158.27 75.38C158.62 75.56 158.79 75.75 158.79 75.96C158.79 76.14 158.62 76.28 158.27 76.36C157.18 76.63 156.09 76.77 155.01 76.77ZM77.31 66.5C76.81 66.5 76.41 66.41 76.09 66.22C75.91 66.12 75.81 66.01 75.81 65.89C75.81 65.8 75.86 65.7 75.97 65.6C76.67 64.98 77.33 64.09 77.94 62.94C78.56 61.8 79.1 60.61 79.57 59.36Q80.03 58.13 80.39 57.06C80.29 57.11 80.18 57.17 80.06 57.23C79.16 57.66 78.27 57.87 77.38 57.87C76.19 57.87 75.35 57.57 74.86 56.98C74.02 56 73.61 55.11 73.61 54.33C73.61 53.54 73.58 52.99 73.52 52.69C73.28 53.05 72.8 53.61 72.1 54.37C71.42 55.13 70.6 55.92 69.66 56.74C68.73 57.56 67.74 58.25 66.71 58.82C65.67 59.38 64.7 59.66 63.81 59.66C62.91 59.66 62.27 59.43 61.87 58.97C61.48 58.51 61.29 57.96 61.29 57.34C61.29 56.54 61.52 55.6 61.98 54.54C62.45 53.46 63.08 52.35 63.86 51.2C64.66 50.05 65.56 48.99 66.58 48.03C67.59 47.06 68.67 46.27 69.8 45.66C70.95 45.05 72.07 44.75 73.15 44.75C74.14 44.75 75 45.01 75.71 45.53C76.43 46.05 76.8 46.64 76.8 47.3C76.8 47.68 76.69 48 76.49 48.26C76.29 48.51 76.07 48.64 75.82 48.64C75.62 48.64 75.46 48.55 75.31 48.37C74.82 47.68 74.28 47.19 73.72 46.89C73.15 46.6 72.56 46.45 71.96 46.45C70.97 46.45 69.99 46.78 69.02 47.45C68.07 48.12 67.3 48.89 66.71 49.75C66.21 50.4 65.75 51.19 65.33 52.09C64.91 53 64.56 53.9 64.28 54.78C64.01 55.66 63.88 56.37 63.88 56.93C63.88 57.95 64.27 58.46 65.06 58.46C66.05 58.46 67.31 57.8 68.84 56.49C69.99 55.54 71.02 54.43 71.92 53.18C72.84 51.93 73.62 50.85 74.26 49.92C74.51 49.63 74.78 49.43 75.07 49.35C75.38 49.26 75.65 49.22 75.91 49.22C76.5 49.22 76.88 49.37 77.05 49.66C77.22 49.96 77.3 50.21 77.3 50.41C77.3 51.19 77.18 51.89 76.92 52.5C76.68 53.11 76.56 53.85 76.56 54.71C76.56 55.34 76.64 55.91 76.81 56.43C77 56.95 77.31 57.21 77.76 57.21Q78.57 57.21 79.84 55.95C80.03 55.71 80.33 55.59 80.73 55.59C80.77 55.59 80.82 55.59 80.86 55.6C81.13 54.75 81.33 54.14 81.46 53.77C80.57 53.26 80.13 52.7 80.13 52.07C80.13 51.59 80.31 51.19 80.68 50.86C81.05 50.54 81.34 50.39 81.55 50.41C81.64 50.41 81.78 50.44 81.95 50.49C82.11 50.54 82.2 50.59 82.2 50.64C82.5 49.24 82.75 47.85 82.94 46.47C83.15 45.08 83.25 43.81 83.25 42.65Q83.25 41.22 83.01 40.11C82.87 39.36 82.65 38.76 82.36 38.31C82.06 37.87 81.91 37.53 81.91 37.29C81.91 36.96 82.06 36.8 82.36 36.8C82.7 36.8 82.97 36.93 83.18 37.2C83.72 37.86 84.13 38.88 84.39 40.29Q84.81 42.38 84.81 45.06C84.81 46.28 84.75 47.57 84.64 48.93C84.55 50.28 84.38 51.63 84.14 52.97Q85.48 52.25 86.87 51.56C87.82 51.09 88.64 50.61 89.34 50.11L89.34 50.07C89.34 50 89.29 49.94 89.21 49.88C89.14 49.82 89.1 49.74 89.1 49.62C89.1 49.41 89.35 49.15 89.84 48.86C90.34 48.56 90.99 48.13 91.8 47.58C92.62 47.03 93.48 46.52 94.37 46.07C95.27 45.61 96.08 45.39 96.82 45.42C97.41 45.42 97.71 45.54 97.71 45.77C97.71 46.04 97.28 46.44 96.44 46.98C95.61 47.52 94.61 48.09 93.45 48.68C92.29 49.28 91.23 49.82 90.26 50.32C89.29 50.8 88.66 51.13 88.36 51.31L85.55 53.18L84.07 54.12C84.71 55.1 85.44 56.07 86.28 57.03C87.12 57.99 88.07 58.77 89.14 59.4C90.2 60.02 91.31 60.34 92.45 60.34C93.64 60.34 94.84 59.9 96.08 59.04C96.92 58.41 97.64 57.72 98.23 56.95C98.82 56.17 99.32 55.59 99.72 55.2C99.84 55.05 99.97 54.93 100.09 54.83C99.98 54.18 99.93 53.46 99.93 52.69Q99.93 50.01 101.04 48.39C101.79 47.3 102.7 46.5 103.79 46C104.89 45.49 105.94 45.24 106.93 45.24C107.9 45.24 108.74 45.44 109.43 45.85C110.13 46.25 110.48 46.82 110.48 47.56C110.48 48.28 110.13 49.03 109.43 49.83C108.74 50.61 107.91 51.32 106.94 51.96C105.99 52.6 105.04 53.02 104.1 53.23C103.89 53.29 103.65 53.33 103.36 53.33C103.16 53.33 103.07 53.28 103.07 53.18C103.07 52.95 103.46 52.69 104.24 52.39C105.24 51.97 106.17 51.33 107.05 50.49C107.95 49.64 108.39 48.89 108.39 48.23C108.39 47.84 108.24 47.54 107.94 47.32C107.65 47.09 107.31 46.98 106.93 46.98C106.18 46.98 105.37 47.33 104.5 48.03C103.64 48.73 103.01 49.92 102.61 51.62C102.52 52.1 102.43 52.55 102.34 52.99C102.27 53.42 102.23 53.84 102.23 54.26C102.23 55.93 102.66 57.23 103.5 58.17C104.35 59.1 105.46 59.57 106.84 59.57C108.03 59.57 109.37 59.15 110.84 58.31C112.32 57.46 113.79 56.12 115.22 54.31C115.57 53.83 115.97 53.59 116.42 53.59C116.71 53.59 116.85 53.71 116.85 53.95C116.85 54.16 116.76 54.38 116.56 54.61C115.28 56.52 113.73 58 111.89 59.04C110.05 60.08 108.27 60.6 106.55 60.6C104.77 60.6 103.22 59.97 101.91 58.7C101.26 58.08 100.77 57.28 100.44 56.29C100.42 56.31 100.41 56.34 100.39 56.36C99.89 56.95 99.41 57.51 98.94 58.04Q98.23 58.81 97.87 59.13C96.93 59.96 95.99 60.57 95.04 60.96C94.1 61.34 93.18 61.54 92.29 61.54C91.15 61.54 90.04 61.28 88.96 60.77C87.87 60.27 86.87 59.62 85.95 58.82C85.03 58.01 84.2 57.16 83.47 56.27C82.92 58.53 82.25 60.56 81.46 62.36C80.67 64.17 79.81 65.41 78.87 66.09C78.42 66.36 77.9 66.5 77.31 66.5ZM199.45 66.5C198.95 66.5 198.55 66.41 198.24 66.22C198.05 66.12 197.95 66.01 197.95 65.89C197.95 65.8 198.01 65.7 198.11 65.6C198.81 64.98 199.47 64.09 200.08 62.94C200.7 61.8 201.24 60.61 201.71 59.36C202.02 58.54 202.29 57.78 202.53 57.06C202.43 57.11 202.32 57.17 202.2 57.23C201.31 57.66 200.41 57.87 199.52 57.87C198.33 57.87 197.49 57.57 197 56.98C196.17 56 195.75 55.11 195.75 54.33C195.75 53.54 195.72 52.99 195.66 52.69C195.42 53.05 194.95 53.61 194.25 54.37C193.56 55.13 192.74 55.92 191.8 56.74C190.87 57.56 189.89 58.25 188.85 58.82C187.81 59.38 186.84 59.66 185.95 59.66C185.05 59.66 184.41 59.43 184.01 58.97C183.62 58.51 183.43 57.96 183.43 57.34C183.43 56.54 183.66 55.6 184.12 54.54C184.59 53.46 185.22 52.35 186 51.2C186.8 50.05 187.71 48.99 188.72 48.03C189.73 47.06 190.81 46.27 191.94 45.66C193.09 45.05 194.21 44.75 195.3 44.75C196.29 44.75 197.14 45.01 197.85 45.53C198.58 46.05 198.94 46.64 198.94 47.3C198.94 47.68 198.84 48 198.63 48.26C198.44 48.51 198.21 48.64 197.96 48.64Q197.88 48.64 197.81 48.62Q197.61 48.57 197.45 48.37C196.96 47.68 196.43 47.19 195.86 46.89C195.29 46.6 194.7 46.45 194.1 46.45C193.11 46.45 192.13 46.78 191.17 47.45C190.21 48.12 189.44 48.89 188.85 49.75Q188.1 50.73 187.47 52.09C187.05 53 186.7 53.9 186.42 54.78C186.15 55.66 186.02 56.37 186.02 56.93C186.02 57.95 186.41 58.46 187.2 58.46C188.19 58.46 189.45 57.8 190.98 56.49C192.13 55.54 193.16 54.43 194.06 53.18C194.98 51.93 195.76 50.85 196.4 49.92C196.66 49.63 196.93 49.43 197.22 49.35C197.52 49.26 197.8 49.22 198.05 49.22C198.64 49.22 199.02 49.37 199.19 49.66Q199.45 50.11 199.45 50.41C199.45 51.19 199.32 51.89 199.06 52.5C198.82 53.11 198.7 53.85 198.7 54.71C198.7 55.34 198.79 55.91 198.96 56.43C199.14 56.95 199.45 57.21 199.9 57.21C200.44 57.21 201.14 56.79 201.98 55.95C202.17 55.71 202.47 55.59 202.87 55.59C202.92 55.59 202.96 55.59 203 55.6C203.27 54.75 203.47 54.14 203.6 53.77C202.72 53.26 202.28 52.7 202.28 52.07C202.28 51.59 202.46 51.19 202.82 50.86C203.19 50.54 203.48 50.39 203.69 50.41C203.79 50.41 203.92 50.44 204.09 50.49C204.26 50.54 204.34 50.59 204.34 50.64C204.64 49.24 204.89 47.85 205.08 46.47C205.29 45.08 205.39 43.81 205.39 42.65C205.39 41.7 205.31 40.85 205.16 40.11C205.01 39.36 204.79 38.76 204.5 38.31C204.2 37.87 204.05 37.53 204.05 37.29C204.05 36.96 204.2 36.8 204.5 36.8C204.84 36.8 205.11 36.93 205.32 37.2Q206.13 38.18 206.53 40.29C206.81 41.68 206.95 43.27 206.95 45.06C206.95 46.28 206.9 47.57 206.79 48.93C206.69 50.28 206.52 51.63 206.28 52.97C207.17 52.49 208.09 52.02 209.02 51.56C209.96 51.09 210.78 50.61 211.48 50.11L211.48 50.07Q211.48 50.06 211.48 50.05L211.48 50.05Q211.47 49.96 211.35 49.88C211.28 49.82 211.24 49.74 211.24 49.62C211.24 49.41 211.49 49.15 211.99 48.86C212.48 48.56 213.13 48.13 213.94 47.58C214.76 47.03 215.62 46.52 216.52 46.07C217.41 45.61 218.22 45.39 218.96 45.42C219.55 45.42 219.85 45.54 219.85 45.77C219.85 46.04 219.43 46.44 218.58 46.98C217.75 47.52 216.75 48.09 215.59 48.68C214.43 49.28 213.37 49.82 212.4 50.32C211.44 50.8 210.8 51.13 210.5 51.31L207.69 53.18L206.21 54.12C206.85 55.1 207.58 56.07 208.42 57.03C209.26 57.99 210.22 58.77 211.28 59.4C212.34 60.02 213.45 60.34 214.6 60.34C215.78 60.34 216.99 59.9 218.22 59.04C219.06 58.41 219.78 57.72 220.37 56.95C220.97 56.17 221.46 55.59 221.86 55.2C221.99 55.05 222.11 54.93 222.23 54.83Q222.07 53.85 222.07 52.69C222.07 50.91 222.44 49.47 223.18 48.39C223.93 47.3 224.85 46.5 225.93 46C227.03 45.49 228.08 45.24 229.07 45.24C230.05 45.24 230.88 45.44 231.57 45.85C232.27 46.25 232.62 46.82 232.62 47.56C232.62 48.28 232.27 49.03 231.57 49.83C230.88 50.61 230.05 51.32 229.09 51.96C228.13 52.6 227.18 53.02 226.24 53.23C226.04 53.29 225.79 53.33 225.5 53.33C225.31 53.33 225.21 53.28 225.21 53.18C225.21 52.95 225.6 52.69 226.39 52.39C227.38 51.97 228.31 51.33 229.19 50.49C230.09 49.64 230.54 48.89 230.54 48.23C230.54 47.84 230.38 47.54 230.08 47.32C229.79 47.09 229.45 46.98 229.07 46.98Q227.94 46.98 226.64 48.03C225.78 48.73 225.15 49.92 224.76 51.62C224.66 52.1 224.57 52.55 224.48 52.99C224.41 53.42 224.38 53.84 224.38 54.26Q224.38 56.69 225.58 58.09Q225.58 58.1 225.59 58.11Q225.62 58.14 225.64 58.17C226.49 59.1 227.6 59.57 228.98 59.57C230.17 59.57 231.51 59.15 232.98 58.31C234.47 57.46 235.93 56.12 237.37 54.31C237.72 53.83 238.11 53.59 238.56 53.59C238.85 53.59 239 53.71 239 53.95C239 54.16 238.9 54.38 238.71 54.61C237.43 56.52 235.87 58 234.03 59.04C232.2 60.08 230.41 60.6 228.69 60.6C226.91 60.6 225.37 59.97 224.05 58.7Q223.08 57.77 222.58 56.29C222.57 56.31 222.55 56.34 222.53 56.36C222.03 56.95 221.55 57.51 221.08 58.04C220.61 58.55 220.25 58.91 220.01 59.13C219.07 59.96 218.13 60.57 217.19 60.96C216.24 61.34 215.33 61.54 214.43 61.54C213.3 61.54 212.19 61.28 211.1 60.77C210.01 60.27 209.01 59.62 208.09 58.82C207.17 58.01 206.35 57.16 205.61 56.27C205.07 58.53 204.4 60.56 203.6 62.36C202.81 64.17 201.95 65.41 201.01 66.09C200.56 66.36 200.04 66.5 199.45 66.5ZM136.75 61.94C137.29 61.94 137.88 61.92 138.52 61.87C139.17 61.83 139.87 61.78 140.6 61.72C140.59 61.41 140.59 61.09 140.59 60.77C140.59 59.81 140.64 58.82 140.75 57.8Q140.98 55.74 141.56 53.5C138.4 54.48 135.9 55.58 134.06 56.78C132.24 57.99 131.33 59.05 131.33 59.98C131.33 60.54 131.78 61.01 132.67 61.38C133.56 61.75 134.92 61.94 136.75 61.94Z" fill="#000000" fill-opacity="1.000000" fill-rule="evenodd"/>
</svg>
