<svg width="103.455078" height="27.853516" viewBox="0 0 103.455 27.8535" fill="none" xmlns="http://www.w3.org/2000/svg" xmlns:xlink="http://www.w3.org/1999/xlink">
	<desc>
			Created with Pixso.
	</desc>
	<defs/>
	<path id="Vector" d="M25.38 5.41C26.06 6.26 26.63 7.19 27.08 8.18L14.17 17.53L8.78 14.2L8.78 10.21L14.17 13.53L25.38 5.41Z" fill="#FFFFFF" fill-opacity="1.000000" fill-rule="nonzero"/>
	<path id="Vector" d="M3.27 13.92C3.27 13.74 3.27 13.56 3.28 13.39L0.01 13.23C0 13.46 0 13.69 0 13.92C-0.01 15.75 0.36 17.56 1.07 19.25C1.78 20.94 2.83 22.48 4.15 23.77L6.47 21.49C5.45 20.5 4.65 19.32 4.1 18.02C3.55 16.72 3.27 15.33 3.27 13.92Z" fill="#FFFFFF" fill-opacity="1.000000" fill-rule="nonzero"/>
	<path id="Vector" d="M14.17 3.21C14.35 3.21 14.53 3.22 14.71 3.23L14.88 0.01C14.64 0 14.41 0 14.17 0C12.31 -0.01 10.46 0.35 8.74 1.05C7.02 1.75 5.46 2.78 4.15 4.07L6.47 6.35C7.48 5.36 8.67 4.57 10 4.03C11.32 3.49 12.74 3.21 14.17 3.21Z" fill="#FFFFFF" fill-opacity="1.000000" fill-rule="nonzero"/>
	<path id="Vector" d="M14.17 24.63C13.99 24.63 13.81 24.63 13.62 24.62L13.46 27.83C13.69 27.84 13.93 27.85 14.17 27.85C16.03 27.85 17.87 27.49 19.59 26.79C21.31 26.09 22.87 25.06 24.19 23.77L21.87 21.49C20.86 22.49 19.66 23.28 18.34 23.82C17.02 24.36 15.6 24.63 14.17 24.63Z" fill="#FFFFFF" fill-opacity="1.000000" fill-rule="nonzero"/>
	<path id="Vector" d="M20.31 5.08L23.07 3.08C20.55 1.08 17.4 -0.01 14.16 0L14.16 3.21C16.36 3.21 18.5 3.86 20.31 5.08Z" fill="#FFFFFF" fill-opacity="1.000000" fill-rule="nonzero"/>
	<path id="Vector" d="M28.34 13.92C28.34 13.08 28.27 12.25 28.12 11.42L25.07 13.63C25.07 13.73 25.07 13.82 25.07 13.92C25.07 15.42 24.75 16.9 24.13 18.26C23.51 19.63 22.61 20.86 21.48 21.86L23.68 24.25C25.15 22.94 26.32 21.35 27.13 19.57C27.93 17.79 28.34 15.87 28.34 13.92Z" fill="#FFFFFF" fill-opacity="1.000000" fill-rule="nonzero"/>
	<path id="Vector" d="M14.17 24.63C12.65 24.63 11.14 24.32 9.75 23.71C8.36 23.1 7.11 22.21 6.09 21.1L3.66 23.26C4.99 24.71 6.61 25.86 8.42 26.65C10.23 27.44 12.19 27.85 14.17 27.85L14.17 24.63Z" fill="#FFFFFF" fill-opacity="1.000000" fill-rule="nonzero"/>
	<path id="Vector" d="M6.86 5.98L4.66 3.59C3.19 4.9 2.01 6.49 1.21 8.27C0.41 10.05 -0.01 11.98 0 13.92L3.27 13.92C3.27 12.43 3.59 10.95 4.21 9.58C4.83 8.21 5.73 6.99 6.86 5.98Z" fill="#FFFFFF" fill-opacity="1.000000" fill-rule="nonzero"/>
	<path id="Vector" d="M81.79 7.96L85.84 5.06L72.27 5.06L72.27 22.5L85.84 22.5L85.84 19.6L76.15 19.6L76.15 15.13L84.42 15.13L84.42 12.23L76.15 12.23L76.15 7.96L81.79 7.96Z" fill="#FFFFFF" fill-opacity="1.000000" fill-rule="nonzero"/>
	<path id="Vector" d="M63.14 11.85L58.43 11.85L58.43 7.96L65.95 7.96L70 5.05L54.56 5.05L54.56 22.49L62.64 22.49C67.17 22.49 69.77 20.49 69.77 17.01C69.77 13.68 67.42 11.85 63.14 11.85ZM62.47 19.59L58.43 19.59L58.43 14.75L62.47 14.75C64.92 14.75 66.07 15.56 66.07 17.17C66.07 18.78 64.84 19.59 62.47 19.59Z" fill="#FFFFFF" fill-opacity="1.000000" fill-rule="nonzero"/>
	<path id="Vector" d="M95.82 5.06L88.43 5.06L88.43 22.5L92.31 22.5L92.31 17.56L95.82 17.56C100.53 17.56 103.45 15.15 103.45 11.3C103.45 7.45 100.53 5.06 95.82 5.06ZM95.74 14.65L92.31 14.65L92.31 7.96L95.74 7.96C98.22 7.96 99.59 9.15 99.59 11.31C99.59 13.46 98.22 14.65 95.74 14.65Z" fill="#FFFFFF" fill-opacity="1.000000" fill-rule="nonzero"/>
	<path id="Vector" d="M48.75 18.38C47.75 18.91 46.62 19.18 45.49 19.17C42.08 19.17 39.61 16.81 39.61 13.56C39.61 10.31 42.08 7.94 45.49 7.94C46.71 7.92 47.92 8.28 48.92 8.97L51.63 7.04L51.44 6.91C49.86 5.56 47.75 4.85 45.33 4.85C42.71 4.85 40.34 5.7 38.64 7.26C37.78 8.06 37.1 9.03 36.65 10.1C36.19 11.17 35.96 12.32 35.99 13.47C35.97 14.64 36.19 15.8 36.64 16.88C37.1 17.97 37.77 18.95 38.62 19.77C40.33 21.39 42.7 22.29 45.3 22.29C48.02 22.29 50.4 21.37 52.01 19.69L49.58 17.93L48.75 18.38Z" fill="#FFFFFF" fill-opacity="1.000000" fill-rule="nonzero"/>
</svg>
