<svg width="139.000000" height="66.000000" viewBox="0 0 139 66" fill="none" xmlns="http://www.w3.org/2000/svg" xmlns:xlink="http://www.w3.org/1999/xlink">
	<desc>
			Created with Pixso.
	</desc>
	<defs/>
	<path id="Vector" d="M12.18 0.17L3.7 1.56C1.24 1.96 -0.34 4.21 0.06 6.57L5.35 37.71C5.76 40.08 8 41.69 10.46 41.29C12.87 40.9 14.51 38.64 14.11 36.28L12.27 25.49L16.37 24.81C23.32 23.67 28.01 17.22 26.85 10.4C25.7 3.64 19.13 -0.97 12.18 0.17ZM14.91 16.22L10.81 16.89L9.54 9.43L13.64 8.76C15.77 8.41 17.75 9.8 18.1 11.84C18.47 13.98 17.04 15.87 14.91 16.22Z" fill="#49CBF4" fill-opacity="1.000000" fill-rule="nonzero"/>
	<path id="Vector" d="M55.45 35.67L43.54 9.53C43.12 8.67 42.48 8 41.61 7.63C40.69 7.27 39.54 7.27 38.62 7.63C37.79 8 37.05 8.67 36.69 9.53L24.77 35.67C23.95 37.47 24.77 39.64 26.61 40.41C28.22 41.09 30.48 40.63 31.44 38.56L33.1 34.99L47.17 34.99L48.78 38.56C49.75 40.68 52.09 41.18 53.61 40.41C55.4 39.51 56.28 37.47 55.45 35.67ZM36.41 27.81L40.14 19.6L43.86 27.81L36.41 27.81Z" fill="#49CBF4" fill-opacity="1.000000" fill-rule="nonzero"/>
	<path id="Vector" d="M80.46 32.05L75.79 24.28C78.82 22.71 80.84 19.57 80.84 15.93C80.84 10.72 76.54 6.47 71.2 6.47L64.63 6.47C62.82 6.47 61.3 7.96 61.3 9.77L61.3 33.75C61.3 35.57 62.82 37.05 64.63 37.05C66.52 37.05 68.04 35.57 68.04 33.75L68.04 25.44L68.67 25.44L74.65 35.44C75.7 37.18 77.76 37.42 79.24 36.56C80.84 35.61 81.39 33.66 80.46 32.05ZM74.14 15.93C74.14 17.59 72.84 18.83 71.2 18.83L68.04 18.83L68.04 13.08L71.2 13.08C72.84 13.08 74.14 14.36 74.14 15.93Z" fill="#49CBF4" fill-opacity="1.000000" fill-rule="nonzero"/>
	<path id="Vector" d="M105.97 1.74L89.06 1.74C86.62 1.74 84.68 3.65 84.68 5.98C84.68 8.32 86.62 10.23 89.06 10.23L93.22 10.23L93.22 36.76C93.22 39.09 95.16 41 97.54 41C99.86 41 101.81 39.09 101.81 36.76L101.81 10.23L105.97 10.23C108.4 10.23 110.35 8.32 110.35 5.98C110.35 3.65 108.4 1.74 105.97 1.74Z" fill="#49CBF4" fill-opacity="1.000000" fill-rule="nonzero"/>
	<path id="Vector" d="M138.13 14.04C136.73 12.46 134.38 12.23 132.79 13.56L125.09 19.9L121.66 10.63C120.95 8.7 118.8 7.75 116.83 8.44C114.86 9.18 113.84 11.28 114.59 13.22L119.44 26.35L115.86 39.44C115.33 41.38 116.5 43.43 118.52 43.97C120.55 44.5 122.65 43.31 123.18 41.37L126.75 28.27L137.63 19.28C139.23 17.96 139.46 15.65 138.13 14.04Z" fill="#49CBF4" fill-opacity="1.000000" fill-rule="nonzero"/>
	<path id="Vector" d="M33.01 61.86C33.01 61.42 32.84 61.07 32.51 60.79C32.18 60.52 31.77 60.27 31.27 60.05C30.78 59.82 30.24 59.59 29.65 59.36C29.08 59.11 28.54 58.82 28.03 58.48C27.54 58.12 27.13 57.68 26.79 57.17C26.47 56.65 26.31 55.98 26.31 55.18C26.31 54.48 26.43 53.88 26.66 53.38C26.9 52.86 27.24 52.43 27.67 52.08C28.12 51.74 28.65 51.49 29.25 51.33C29.85 51.16 30.52 51.08 31.27 51.08C32.12 51.08 32.93 51.16 33.68 51.31C34.44 51.44 35.06 51.65 35.55 51.92L34.65 54.28C34.34 54.09 33.88 53.91 33.26 53.76C32.65 53.6 31.98 53.52 31.27 53.52C30.59 53.52 30.08 53.65 29.71 53.91C29.36 54.17 29.19 54.52 29.19 54.95C29.19 55.36 29.35 55.7 29.67 55.98C30.01 56.25 30.42 56.5 30.91 56.74C31.41 56.97 31.95 57.21 32.53 57.45C33.12 57.7 33.66 58 34.15 58.35C34.65 58.7 35.06 59.13 35.39 59.64C35.72 60.15 35.89 60.79 35.89 61.55C35.89 62.31 35.76 62.98 35.49 63.54C35.24 64.08 34.87 64.54 34.4 64.91C33.94 65.28 33.37 65.55 32.7 65.73C32.04 65.91 31.31 66 30.51 66C29.46 66 28.54 65.9 27.74 65.71C26.94 65.52 26.35 65.33 25.97 65.13L26.9 62.74C27.05 62.82 27.25 62.91 27.49 63C27.74 63.1 28.02 63.19 28.33 63.27C28.63 63.35 28.96 63.42 29.29 63.48C29.64 63.53 30 63.56 30.36 63.56C31.22 63.56 31.87 63.42 32.32 63.15C32.78 62.86 33.01 62.43 33.01 61.86ZM48.99 53.87L44.7 53.87L44.7 65.71L41.82 65.71L41.82 53.87L37.51 53.87L37.51 51.37L48.99 51.37L48.99 53.87ZM56.83 62.53L52.31 62.53L51.2 65.71L48.32 65.71L53.62 51.27L55.74 51.27L61.03 65.71L58.01 65.71L56.83 62.53ZM53.05 60.28L56.2 60.28L55.11 57.08L54.66 54.83L54.56 54.83L54.12 57.1L53.05 60.28ZM71.84 53.87L67.56 53.87L67.56 65.71L64.68 65.71L64.68 53.87L60.37 53.87L60.37 51.37L71.84 51.37L71.84 53.87ZM74.37 51.37L77.25 51.37L77.25 65.71L74.37 65.71L74.37 51.37ZM80.34 58.54C80.34 56.15 80.88 54.31 81.96 53.03C83.04 51.73 84.58 51.08 86.58 51.08C87.63 51.08 88.55 51.26 89.34 51.61C90.12 51.97 90.77 52.47 91.29 53.13C91.81 53.79 92.19 54.57 92.45 55.49C92.7 56.4 92.82 57.42 92.82 58.54C92.82 60.93 92.28 62.77 91.18 64.07C90.11 65.35 88.57 66 86.58 66C85.52 66 84.59 65.82 83.81 65.46C83.02 65.11 82.37 64.6 81.85 63.95C81.35 63.29 80.97 62.51 80.72 61.59C80.47 60.68 80.34 59.66 80.34 58.54ZM83.37 58.54C83.37 59.26 83.43 59.93 83.56 60.55C83.68 61.15 83.87 61.67 84.12 62.1C84.39 62.54 84.73 62.88 85.13 63.13C85.54 63.37 86.02 63.5 86.58 63.5C87.61 63.5 88.4 63.11 88.96 62.33C89.52 61.55 89.8 60.29 89.8 58.54C89.8 57.84 89.74 57.19 89.61 56.59C89.5 55.99 89.32 55.46 89.06 55.01C88.81 54.56 88.48 54.22 88.08 53.97C87.67 53.71 87.17 53.58 86.58 53.58C85.56 53.58 84.77 53.98 84.21 54.79C83.65 55.58 83.37 56.83 83.37 58.54ZM99.27 58.23L98.12 55.98L98.01 55.98L98.35 58.23L98.35 65.71L95.62 65.71L95.62 51.27L97.72 51.27L103.29 58.91L104.4 61.1L104.51 61.1L104.17 58.91L104.17 51.37L106.9 51.37L106.9 65.81L104.8 65.81L99.27 58.23Z" fill="#FFFFFF" fill-opacity="1.000000" fill-rule="nonzero"/>
</svg>
