<svg width="133.000000" height="25.858398" viewBox="0 0 133 25.8584" fill="none" xmlns="http://www.w3.org/2000/svg" xmlns:xlink="http://www.w3.org/1999/xlink">
	<desc>
			Created with Pixso.
	</desc>
	<defs/>
	<path id="Vector" d="M0 20.67L0 8.04L3.34 8.04L3.34 9.45C3.71 8.91 4.21 8.48 4.78 8.18C5.38 7.89 6.03 7.74 6.7 7.75C7.17 7.73 7.64 7.82 8.08 8.01L8.08 10.95C7.82 10.83 7.54 10.75 7.26 10.69C6.97 10.64 6.68 10.61 6.38 10.61C5.76 10.6 5.15 10.77 4.61 11.09C4.07 11.43 3.64 11.91 3.34 12.48L3.34 20.67L0 20.67Z" fill="#FFFFFF" fill-opacity="1.000000" fill-rule="nonzero"/>
	<path id="Vector" d="M14.73 20.91C13.82 20.93 12.93 20.71 12.15 20.27C11.4 19.85 10.79 19.23 10.39 18.48C9.96 17.68 9.74 16.78 9.76 15.87L9.76 8.04L13.06 8.04L13.06 15.39C13.04 15.74 13.09 16.09 13.22 16.43C13.34 16.76 13.53 17.07 13.77 17.33C14.03 17.57 14.33 17.76 14.66 17.88C14.99 18.01 15.34 18.06 15.69 18.04C16.21 18.05 16.72 17.94 17.19 17.71C17.62 17.5 18 17.18 18.29 16.79L18.29 8.04L21.61 8.04L21.61 20.67L18.29 20.67L18.29 19.65C17.3 20.5 16.03 20.95 14.73 20.91Z" fill="#FFFFFF" fill-opacity="1.000000" fill-rule="nonzero"/>
	<path id="Vector" d="M30.04 20.84C28.9 20.85 27.78 20.55 26.8 19.97C25.84 19.4 25.05 18.59 24.49 17.63C23.91 16.63 23.61 15.5 23.63 14.34C23.62 13.21 23.91 12.09 24.47 11.11C25.03 10.12 25.84 9.3 26.83 8.73C27.83 8.15 28.98 7.86 30.14 7.87C30.75 7.87 31.36 7.96 31.94 8.14C32.52 8.31 33.07 8.56 33.58 8.87L33.58 3.7L36.89 3.15L36.89 20.67L33.62 20.67L33.62 19.63C32.6 20.43 31.34 20.86 30.04 20.84ZM30.57 18C31.15 18.01 31.71 17.9 32.25 17.69C32.75 17.49 33.2 17.18 33.58 16.79L33.58 11.87C33.2 11.49 32.74 11.2 32.24 11.01C31.71 10.8 31.14 10.7 30.57 10.71C29.91 10.7 29.26 10.86 28.69 11.18C28.14 11.49 27.68 11.94 27.37 12.48C27.05 13.05 26.88 13.7 26.88 14.35C26.89 15 27.06 15.65 27.38 16.21C27.71 16.76 28.17 17.2 28.71 17.52C29.28 17.84 29.92 18.01 30.57 18Z" fill="#FFFFFF" fill-opacity="1.000000" fill-rule="nonzero"/>
	<path id="Vector" d="M43.51 20.89C42.69 20.9 41.88 20.73 41.13 20.39C40.48 20.09 39.91 19.62 39.51 19.02C39.12 18.42 38.91 17.72 38.93 17.01C38.9 16.46 39.01 15.92 39.25 15.43C39.49 14.93 39.84 14.51 40.28 14.19C41.19 13.51 42.45 13.18 44.06 13.18C45.12 13.17 46.17 13.34 47.17 13.69L47.17 12.77C47.17 12.05 46.95 11.49 46.5 11.12C46.05 10.74 45.38 10.56 44.51 10.56C43.93 10.57 43.35 10.66 42.79 10.82C42.06 11.02 41.35 11.29 40.66 11.6L39.46 9.13C40.39 8.72 41.35 8.39 42.33 8.14C43.22 7.91 44.13 7.8 45.05 7.8C46.77 7.8 48.11 8.2 49.04 9.02C49.98 9.84 50.45 10.99 50.45 12.48L50.45 20.67L47.16 20.67L47.16 19.77C46.66 20.15 46.09 20.44 45.49 20.62C44.85 20.8 44.18 20.89 43.51 20.89ZM42.07 16.94C42.07 17.17 42.12 17.39 42.24 17.6C42.34 17.8 42.51 17.97 42.7 18.09C43.21 18.39 43.79 18.54 44.38 18.51C44.89 18.52 45.4 18.45 45.89 18.32C46.35 18.19 46.78 17.97 47.16 17.69L47.16 15.84C46.76 15.67 46.34 15.54 45.9 15.47C45.44 15.39 44.97 15.36 44.5 15.36C43.88 15.33 43.26 15.47 42.72 15.77C42.52 15.89 42.35 16.06 42.24 16.27C42.13 16.47 42.07 16.7 42.08 16.94L42.07 16.94Z" fill="#FFFFFF" fill-opacity="1.000000" fill-rule="nonzero"/>
	<path id="Vector" d="M64.2 25.85C63.24 25.86 62.29 25.75 61.36 25.55C60.5 25.37 59.67 25.08 58.89 24.69L60.06 22.12C60.72 22.44 61.41 22.7 62.12 22.89C62.78 23.06 63.45 23.14 64.13 23.14C65.1 23.14 65.84 22.93 66.35 22.5C66.86 22.07 67.11 21.44 67.11 20.59L67.11 19.6C66.11 20.34 64.89 20.73 63.65 20.72C62.52 20.73 61.42 20.43 60.44 19.87C59.47 19.32 58.66 18.51 58.1 17.53C57.53 16.54 57.24 15.41 57.25 14.27C57.24 13.13 57.53 12 58.11 11.02C58.67 10.06 59.48 9.27 60.45 8.72C61.46 8.15 62.61 7.85 63.77 7.87C64.37 7.87 64.96 7.96 65.53 8.13C66.1 8.3 66.64 8.55 67.13 8.87L67.13 8.04L70.42 8.04L70.42 20.64C70.42 22.31 69.89 23.59 68.81 24.5C67.74 25.4 66.2 25.85 64.2 25.85ZM64.17 17.93C64.74 17.93 65.3 17.83 65.82 17.62C66.3 17.43 66.74 17.14 67.1 16.76L67.1 11.85C66.73 11.48 66.29 11.19 65.81 11.01C65.29 10.81 64.74 10.71 64.18 10.72C63.53 10.71 62.89 10.87 62.32 11.19C61.78 11.5 61.33 11.94 61.01 12.48C60.69 13.03 60.52 13.65 60.53 14.29C60.52 14.94 60.69 15.58 61.01 16.15C61.32 16.7 61.77 17.15 62.32 17.46C62.89 17.78 63.52 17.94 64.17 17.93L64.17 17.93Z" fill="#FFFFFF" fill-opacity="1.000000" fill-rule="nonzero"/>
	<path id="Vector" d="M77.04 20.89C76.22 20.9 75.41 20.73 74.66 20.39C74.01 20.09 73.45 19.62 73.04 19.02C72.65 18.42 72.45 17.72 72.46 17.01C72.43 16.46 72.55 15.92 72.78 15.43C73.02 14.93 73.37 14.51 73.82 14.19C74.72 13.52 75.98 13.18 77.59 13.18C78.65 13.17 79.71 13.34 80.71 13.69L80.71 12.77C80.71 12.05 80.48 11.49 80.03 11.12C79.57 10.75 78.91 10.56 78.04 10.56C77.46 10.57 76.88 10.66 76.32 10.82C75.59 11.02 74.88 11.29 74.19 11.61L72.99 9.13C73.92 8.72 74.88 8.39 75.86 8.14C76.75 7.91 77.66 7.8 78.57 7.8C80.3 7.8 81.63 8.2 82.57 9.02C83.51 9.84 83.98 10.99 83.98 12.47L83.98 20.67L80.7 20.67L80.7 19.77C80.19 20.15 79.63 20.44 79.02 20.62C78.38 20.81 77.71 20.9 77.04 20.89ZM75.6 16.94C75.6 17.17 75.65 17.4 75.76 17.6C75.87 17.8 76.03 17.97 76.23 18.09C76.74 18.4 77.32 18.54 77.91 18.51C78.42 18.52 78.92 18.45 79.42 18.32C79.88 18.19 80.31 17.98 80.69 17.69L80.69 15.85C80.29 15.67 79.86 15.54 79.43 15.47C78.97 15.4 78.5 15.36 78.03 15.36C77.41 15.33 76.79 15.47 76.25 15.77C76.05 15.9 75.89 16.07 75.77 16.27C75.66 16.48 75.61 16.71 75.62 16.94L75.6 16.94Z" fill="#FFFFFF" fill-opacity="1.000000" fill-rule="nonzero"/>
	<path id="Vector" d="M86.48 20.67L86.48 8.04L89.8 8.04L89.8 9C90.55 8.36 91.47 7.95 92.45 7.83C93.43 7.7 94.42 7.86 95.31 8.28C95.95 8.61 96.5 9.09 96.91 9.68C97.41 9.07 98.04 8.59 98.75 8.27C99.49 7.94 100.29 7.78 101.1 7.79C101.97 7.77 102.83 8 103.58 8.44C104.3 8.86 104.88 9.47 105.28 10.21C105.7 11.01 105.91 11.9 105.9 12.81L105.9 20.66L102.57 20.66L102.57 13.33C102.57 12.5 102.36 11.85 101.93 11.38C101.71 11.14 101.44 10.95 101.14 10.82C100.84 10.7 100.52 10.64 100.2 10.66C99.73 10.65 99.26 10.76 98.83 10.96C98.4 11.18 98.04 11.51 97.78 11.92C97.79 12.07 97.81 12.21 97.83 12.35C97.84 12.51 97.85 12.66 97.85 12.82L97.85 20.67L94.52 20.67L94.52 13.33C94.52 12.5 94.31 11.85 93.88 11.38C93.66 11.14 93.4 10.95 93.1 10.82C92.8 10.7 92.47 10.64 92.15 10.66C91.69 10.65 91.23 10.75 90.81 10.95C90.4 11.15 90.06 11.45 89.8 11.82L89.8 20.67L86.48 20.67Z" fill="#FFFFFF" fill-opacity="1.000000" fill-rule="nonzero"/>
	<path id="Vector" d="M114.61 20.91C113.44 20.92 112.28 20.63 111.26 20.07C110.23 19.5 109.36 18.68 108.75 17.68C108.15 16.68 107.83 15.53 107.85 14.36C107.84 13.22 108.13 12.09 108.69 11.09C109.25 10.1 110.06 9.27 111.05 8.69C112.04 8.1 113.17 7.8 114.32 7.82C115.46 7.8 116.58 8.1 117.56 8.7C118.5 9.29 119.27 10.12 119.78 11.11C120.34 12.19 120.62 13.39 120.6 14.6L120.6 15.47L111.24 15.47C111.38 15.97 111.63 16.43 111.96 16.83C112.3 17.23 112.72 17.55 113.19 17.76C113.69 17.98 114.23 18.09 114.77 18.09C115.3 18.09 115.82 18.01 116.32 17.83C116.78 17.68 117.2 17.43 117.56 17.1L119.74 19.08C118.31 20.3 116.48 20.95 114.6 20.9L114.61 20.91ZM111.19 13.11L117.35 13.11C117.23 12.63 117.01 12.18 116.71 11.79C116.42 11.41 116.05 11.11 115.63 10.9C115.21 10.69 114.74 10.58 114.27 10.59C113.79 10.58 113.31 10.68 112.87 10.89C112.45 11.09 112.09 11.39 111.81 11.76C111.52 12.16 111.31 12.62 111.19 13.11Z" fill="#FFFFFF" fill-opacity="1.000000" fill-rule="nonzero"/>
	<path id="Vector" d="M127.45 20.91C126.38 20.92 125.3 20.77 124.27 20.46C123.34 20.2 122.46 19.77 121.69 19.19L123.34 16.96C123.99 17.41 124.69 17.77 125.43 18.05C126.07 18.29 126.75 18.41 127.43 18.41C128.04 18.44 128.66 18.31 129.21 18.04C129.65 17.79 129.87 17.46 129.88 17.06C129.88 16.91 129.85 16.76 129.78 16.62C129.72 16.48 129.62 16.37 129.5 16.28C129.14 16.04 128.73 15.9 128.3 15.86L125.88 15.51C124.63 15.31 123.68 14.9 123.03 14.28C122.7 13.96 122.44 13.58 122.28 13.16C122.11 12.73 122.03 12.28 122.05 11.82C122.03 11.06 122.26 10.31 122.69 9.69C123.16 9.06 123.79 8.58 124.52 8.31C125.4 7.97 126.34 7.81 127.28 7.83C128.2 7.83 129.12 7.96 130.01 8.21C130.89 8.48 131.73 8.88 132.49 9.41L130.89 11.57C130.27 11.16 129.6 10.85 128.89 10.62C128.28 10.43 127.64 10.33 126.99 10.33C126.49 10.31 126 10.43 125.56 10.67C125.39 10.75 125.25 10.88 125.15 11.04C125.05 11.2 125 11.38 125 11.57C125 11.72 125.03 11.87 125.1 12.01C125.17 12.15 125.27 12.27 125.4 12.35C125.79 12.6 126.24 12.75 126.71 12.79L129.13 13.13C130.39 13.31 131.35 13.71 132 14.34C132.33 14.65 132.58 15.02 132.75 15.43C132.92 15.85 133.01 16.29 132.99 16.74C133.01 17.52 132.76 18.28 132.28 18.89C131.75 19.54 131.07 20.05 130.3 20.37C129.4 20.75 128.43 20.93 127.45 20.91Z" fill="#FFFFFF" fill-opacity="1.000000" fill-rule="nonzero"/>
	<path id="Vector" d="M48.64 2.34L46.29 0L42.96 3.33L45.31 5.68L48.64 2.34Z" fill="#FFFFFF" fill-opacity="1.000000" fill-rule="nonzero"/>
</svg>
