<svg width="16.000000" height="16.000000" viewBox="0 0 16 16" fill="none" xmlns="http://www.w3.org/2000/svg" xmlns:xlink="http://www.w3.org/1999/xlink">
	<desc>
			Created with Pixso.
	</desc>
	<defs>
		<clipPath id="clip6_128">
			<rect id="teenyicons:button-solid" width="16.000000" height="16.000000" fill="white" fill-opacity="0"/>
		</clipPath>
	</defs>
	<rect id="teenyicons:button-solid" width="16.000000" height="16.000000" fill="#FFFFFF" fill-opacity="0"/>
	<g clip-path="url(#clip6_128)">
		<path id="Vector" d="M4.26 6.4C3.41 6.4 2.6 6.06 2 5.46C1.4 4.86 1.06 4.04 1.06 3.2C1.06 2.35 1.4 1.53 2 0.93C2.6 0.33 3.41 0 4.26 0L11.73 0C12.58 0 13.39 0.33 13.99 0.93C14.59 1.53 14.93 2.35 14.93 3.2C14.93 4.04 14.59 4.86 13.99 5.46C13.39 6.06 12.58 6.4 11.73 6.4L9.6 6.4L9.6 3.73C9.6 3.02 9.31 2.34 8.81 1.84C8.31 1.34 7.64 1.06 6.93 1.06C6.22 1.06 5.54 1.34 5.04 1.84C4.54 2.34 4.26 3.02 4.26 3.73L4.26 6.4Z" fill="#FFFFFF" fill-opacity="1.000000" fill-rule="nonzero"/>
		<path id="Vector" d="M7.35 -0.5C6.91 -0.5 6.49 -0.31 6.18 0.04C5.87 0.38 5.69 0.85 5.69 1.34L5.69 6.94C5.07 7.08 4.52 7.46 4.11 8.01C3.71 8.56 3.49 9.25 3.5 9.96C3.5 11.43 4.02 12.83 4.94 13.87C5.87 14.91 7.13 15.5 8.44 15.5L9 15.5C10.45 15.5 11.85 14.85 12.88 13.69C13.92 12.54 14.5 10.97 14.5 9.34L14.5 8.29C14.5 7.59 14.25 6.92 13.8 6.42C13.36 5.93 12.76 5.65 12.13 5.65L9 5.65L9 1.34C9 0.85 8.82 0.38 8.51 0.04C8.2 -0.31 7.78 -0.5 7.35 -0.5Z" fill="#FFFFFF" fill-opacity="1.000000" fill-rule="nonzero"/>
	</g>
</svg>
