<svg width="239.000000" height="89.050781" viewBox="0 0 239 89.0508" fill="none" xmlns="http://www.w3.org/2000/svg" xmlns:xlink="http://www.w3.org/1999/xlink">
	<desc>
			Created with Pixso.
	</desc>
	<defs/>
	<path id="Форма 1" d="M118.44 89.05C117.04 89.05 115.68 88.7 114.35 88C113.01 87.3 112.06 86.16 111.49 84.58C111.42 84.39 111.49 84.25 111.67 84.14C111.86 84.05 112.01 84.16 112.14 84.49C112.77 85.7 113.58 86.58 114.55 87.14C115.55 87.71 116.59 88 117.67 88C117.92 88 118.18 87.98 118.46 87.95C118.76 87.92 119.04 87.87 119.3 87.81C121.45 87.3 123.15 86.03 124.39 84C125.63 81.97 126.52 79.59 127.04 76.86C127.59 74.13 127.92 71.39 128.04 68.63C128.18 65.87 128.21 63.5 128.14 61.53C126.37 62.54 124.55 63.43 122.67 64.21C120.8 64.97 118.84 65.59 116.81 66.09C115.87 66.35 114.77 66.56 113.53 66.72C112.29 66.87 110.97 66.95 109.58 66.95C107.1 66.95 104.66 66.49 102.28 65.58C99.9 64.65 98.27 62.88 97.37 60.28C97.12 59.66 96.96 59.01 96.9 58.35C96.84 57.66 96.81 57.01 96.81 56.39C96.81 54.55 97.08 52.75 97.62 51C98.17 49.25 98.75 47.67 99.37 46.28C97.91 45.39 96.62 44.31 95.51 43.04C94.41 41.77 93.57 40.31 93 38.67C92.75 37.91 92.55 37.15 92.41 36.39C92.29 35.62 92.23 34.88 92.23 34.18C92.23 31.33 93.02 28.72 94.6 26.34C96.2 23.96 98.17 21.94 100.51 20.3C102.86 18.64 105.19 17.55 107.48 17.04C107.73 16.98 108.31 16.89 109.23 16.76C110.16 16.62 111.04 16.55 111.86 16.55C112.88 16.55 113.42 16.69 113.49 16.95C113.61 17.2 113.51 17.32 113.18 17.32C112.3 17.32 111.45 17.32 110.62 17.32C109.8 17.32 108.94 17.41 108.04 17.6C105.89 18.11 103.78 19.12 101.72 20.62C99.65 22.11 97.94 23.93 96.58 26.09C95.21 28.24 94.53 30.62 94.53 33.23C94.53 33.93 94.59 34.64 94.72 35.37C94.84 36.1 95.03 36.85 95.27 37.62C96.24 40.29 97.96 42.48 100.44 44.18C102.53 40.18 104.84 36.68 107.37 33.67C109.91 30.65 112.58 27.76 115.37 25C118.18 22.24 121 19.3 123.86 16.18C123.86 15.61 123.84 15 123.81 14.37C123.78 13.73 123.76 13.1 123.76 12.46C123.76 10.94 123.84 9.41 124 7.86C124.17 6.29 124.5 4.94 125 3.81C125.38 2.97 125.88 2.13 126.49 1.27C127.09 0.42 127.87 0 128.81 0C129.45 0 129.98 0.2 130.42 0.62C130.87 1.03 131.22 1.54 131.49 2.18C131.73 2.75 131.86 3.45 131.86 4.27C131.86 5.67 131.49 7.06 130.77 8.46C130.04 9.86 129.19 11.14 128.23 12.32C127.28 13.5 126.43 14.53 125.67 15.41C125.67 18.02 125.87 20.67 126.28 23.37C126.7 26.07 127.1 28.72 127.49 31.32C128.94 29.49 130.67 27.77 132.67 26.16C134.67 24.53 136.85 23.43 139.21 22.86C139.97 22.66 140.79 22.55 141.67 22.55C142.94 22.55 144.17 22.86 145.35 23.46C146.53 24.07 147.39 25.2 147.95 26.86C148.34 28 148.53 29.28 148.53 30.67C148.53 32.31 148.31 34.01 147.86 35.76C147.42 37.5 146.98 39 146.53 40.28C145.08 44.21 143.08 47.76 140.53 50.9C137.99 54.05 135.04 56.73 131.67 58.95C131.73 59.97 131.8 61.03 131.86 62.11C131.92 63.18 131.95 64.26 131.95 65.35C131.95 68.65 131.65 71.97 131.04 75.3C130.44 78.63 129.35 81.52 127.76 83.95C126.18 86.4 123.83 88.01 120.72 88.77C120.08 88.95 119.32 89.05 118.44 89.05ZM125.67 14.09C126.12 13.58 126.71 12.7 127.44 11.46C128.17 10.22 128.82 8.9 129.39 7.51C129.97 6.11 130.25 4.97 130.25 4.09C130.25 3.7 130.21 3.44 130.14 3.32C130.08 3.13 129.98 2.95 129.86 2.76C129.73 2.56 129.55 2.46 129.3 2.46C128.91 2.46 128.51 2.73 128.09 3.27C127.69 3.82 127.42 4.27 127.3 4.65C126.73 5.86 126.32 7.4 126.09 9.27C125.87 11.15 125.73 12.75 125.67 14.09ZM106.9 46.28C109 46.28 111.01 45.79 112.95 44.81C114.89 43.82 116.68 42.59 118.32 41.14C119.98 39.68 121.43 38.27 122.67 36.9C123.91 35.54 124.85 34.48 125.49 33.72C125.16 30.99 124.85 28.28 124.56 25.58C124.28 22.86 124.04 20.14 123.86 17.41C122.34 19.07 120.78 20.7 119.18 22.3C117.6 23.88 116.08 25.52 114.62 27.23C112.97 29.14 111.42 31.15 110 33.28C108.57 35.4 107.25 37.61 106.04 39.9C105.53 40.79 105.05 41.71 104.6 42.67C104.17 43.62 103.72 44.6 103.28 45.62C104.42 46.06 105.63 46.28 106.9 46.28ZM131.39 57.53C134.37 55.63 136.98 53.38 139.23 50.81C141.49 48.24 143.26 45.21 144.53 41.72C145.11 40.12 145.52 38.67 145.77 37.37C146.03 36.07 146.16 34.88 146.16 33.81C146.16 31.27 145.56 29.36 144.35 28.09C143.14 26.82 141.58 26.18 139.67 26.18C137.95 26.18 136.04 26.71 133.95 27.76C131.86 28.8 129.77 30.37 127.67 32.46C128.31 36.66 129.02 40.86 129.81 45.04C130.6 49.23 131.13 53.39 131.39 57.53ZM113.09 64.18C114.18 64.18 115.24 64.11 116.28 63.95C117.33 63.8 118.27 63.63 119.09 63.44C122.27 62.66 125.22 61.52 127.95 60C127.89 55.81 127.62 51.61 127.14 47.39C126.67 43.16 126.18 38.92 125.67 34.67C124.97 35.87 123.99 37.25 122.72 38.81C121.45 40.36 119.95 41.85 118.23 43.28C116.52 44.7 114.67 45.9 112.67 46.86C110.67 47.8 108.59 48.28 106.44 48.28C105.17 48.28 103.9 48.09 102.62 47.72C102.36 48.6 102.12 49.59 101.9 50.67C101.69 51.74 101.58 52.82 101.58 53.9C101.58 55.24 101.76 56.57 102.14 57.9C103.03 60.32 104.55 61.97 106.67 62.86C108.79 63.74 110.93 64.18 113.09 64.18Z" fill="#FFA55C" fill-opacity="1.000000" fill-rule="nonzero"/>
	<path id="Форма 7" d="M10.52 71.28C9.24 71.28 8.13 70.77 7.19 69.76C6.25 68.74 5.57 67.1 5.18 64.83C5.13 64.65 5.1 64.43 5.1 64.18L5.1 63.37C5.1 62.24 5.2 60.8 5.39 59.06C5.6 57.32 5.85 55.4 6.14 53.31C6.44 51.21 6.72 49.05 6.99 46.83C7.27 44.6 7.5 42.42 7.69 40.28C7.9 38.15 8 36.2 8 34.46C8 32.28 7.8 30.52 7.4 29.18C7.01 27.84 6.29 27.17 5.25 27.17Q5.19 27.17 5.13 27.17Q4.23 27.21 3.36 27.92C2.75 28.42 2.21 28.97 1.73 29.57C1.26 30.17 0.89 30.65 0.61 31.01Q0.34 31.37 0.22 31.33Q0.16 31.31 0.14 31.19C0.09 31.05 0.06 30.93 0.03 30.81C0.01 30.68 0 30.55 0 30.42Q0 29.44 0.65 28.35C1.09 27.63 1.71 27.02 2.5 26.52C3.29 26.02 4.19 25.77 5.18 25.77C5.38 25.77 5.56 25.77 5.7 25.79C5.85 25.81 6 25.84 6.15 25.88C8.07 26.22 9.38 27.33 10.07 29.18C10.77 31.04 11.12 33.29 11.12 35.94C11.12 37.95 10.98 40.06 10.7 42.3C10.44 44.54 10.14 46.79 9.81 49.05C9.5 51.3 9.2 53.45 8.93 55.48C8.66 57.51 8.53 59.3 8.53 60.85C8.53 61.3 8.54 61.72 8.56 62.11C8.59 62.51 8.62 62.88 8.67 63.22C9.07 65.39 9.61 66.91 10.3 67.79C10.99 68.67 11.78 69.11 12.68 69.11C13.67 69.11 14.69 68.74 15.76 67.98C16.82 67.22 17.87 66.28 18.91 65.14C19.95 64 20.89 62.86 21.73 61.72C22.87 60.24 23.91 58.51 24.85 56.51C25.79 54.51 26.64 52.48 27.41 50.41C28.18 48.34 28.78 46.45 29.22 44.73C28.72 44.15 28.43 43.54 28.33 42.93C28.23 42.31 28.18 41.51 28.18 40.55C28.18 39.51 28.46 38.71 29 38.13C29.54 37.54 30.11 37.24 30.7 37.24C31.6 37.24 32.19 37.76 32.5 38.79C33.04 40.51 33.58 42.33 34.13 44.24C34.67 46.15 35.27 48.02 35.94 49.84C36.6 51.67 37.38 53.36 38.28 54.91C40.11 57.97 41.8 60.17 43.33 61.5C44.86 62.82 46.27 63.48 47.55 63.48C48.89 63.48 50.07 62.88 51.08 61.7C52.1 60.51 52.95 58.95 53.64 57.01C54.33 55.06 54.85 52.94 55.2 50.65C55.55 48.35 55.72 46.1 55.72 43.9C55.72 42.08 55.61 40.37 55.38 38.79C55.16 37.21 54.78 35.91 54.24 34.91C54.03 34.5 53.88 34.07 53.78 33.62C53.69 33.18 53.64 32.77 53.64 32.39C53.64 31.9 53.72 31.48 53.89 31.14C54.07 30.79 54.33 30.62 54.67 30.62C55.07 30.62 55.47 30.83 55.87 31.25C56.41 31.73 56.92 32.4 57.39 33.25C57.86 34.09 58.26 34.81 58.6 35.43C59 36.12 59.52 36.95 60.16 37.94C60.81 38.92 61.49 39.82 62.21 40.62C62.92 41.43 63.63 41.92 64.33 42.1C64.42 42.13 64.47 42.2 64.47 42.3C64.47 42.51 64.25 42.68 63.8 42.82C63.35 42.95 63.03 43 62.84 42.97C61.71 42.59 60.75 42.19 59.98 41.76C59.22 41.33 58.34 40.53 57.35 39.36C57.4 39.98 57.42 40.6 57.42 41.24L57.42 43.13C57.42 44.92 57.33 46.71 57.15 48.51C56.98 50.3 56.65 52.1 56.16 53.93Q54.53 59.87 52.04 62.4C50.39 64.09 48.64 64.93 46.81 64.93C45.32 64.93 43.85 64.47 42.39 63.56C40.94 62.65 39.59 61.43 38.35 59.92C37.12 58.41 36.05 56.72 35.16 54.85C34.37 53.06 33.7 51.41 33.15 49.92C32.6 48.42 32.19 47.11 31.9 45.97C31.1 48.45 30.07 50.91 28.8 53.36C27.54 55.8 26.15 58.09 24.62 60.25C23.08 62.4 21.49 64.3 19.83 65.96C18.18 67.62 16.55 68.92 14.94 69.86C13.33 70.81 11.86 71.28 10.52 71.28ZM155.01 84.77C152.72 84.77 150.53 84.11 148.43 82.8C146.33 81.5 144.57 79.6 143.16 77.12C141.76 74.64 140.93 71.64 140.68 68.13C139.14 68.23 137.74 68.28 136.46 68.28C133.58 68.28 131.49 68.02 130.17 67.5C128.87 66.99 128.21 66.32 128.21 65.49C128.21 64.67 128.78 63.76 129.92 62.76C131.05 61.76 132.63 60.75 134.66 59.74C136.69 58.73 139.07 57.8 141.8 56.97C142.73 53.46 144.25 49.67 146.35 45.59C148.46 41.51 151.3 37.17 154.86 32.59C155.2 32.14 155.72 31.92 156.42 31.92C156.85 31.92 157.25 32.03 157.6 32.24C157.95 32.44 158.12 32.71 158.12 33.06C158.12 33.22 158.04 33.45 157.89 33.72C154.72 38.17 152.09 42.25 149.99 45.95C147.89 49.64 146.24 53.03 145.06 56.1C147.28 55.51 149.66 55.03 152.18 54.65C154.71 54.27 157.28 54.05 159.9 53.98C160.59 53.98 160.93 54.05 160.93 54.18C160.93 54.32 160.7 54.45 160.22 54.57C159.77 54.69 158.99 54.77 157.89 54.8C155.47 54.91 153.16 55.14 150.95 55.5C148.75 55.87 146.69 56.3 144.75 56.82C144.02 58.82 143.45 60.67 143.05 62.38C142.66 64.08 142.42 65.65 142.31 67.1C147.4 66.34 152.04 65.23 156.22 63.77C160.4 62.3 164.1 60.61 167.31 58.68C170.53 56.75 173.23 54.75 175.41 52.68C176.8 51.38 177.8 50.22 178.41 49.2C179.03 48.18 179.34 47.29 179.34 46.54C179.34 45.44 178.84 44.57 177.85 43.93C176.86 43.29 175.55 42.83 173.92 42.54C172.29 42.25 170.51 42.1 168.58 42.1C166.55 42.1 164.49 42.23 162.42 42.49C160.34 42.74 158.46 43.09 156.78 43.54C156.38 43.61 156.11 43.65 155.97 43.65C155.33 43.65 155.01 43.49 155.01 43.18C155.01 42.87 155.28 42.63 155.82 42.45C161.91 40.05 166.24 37.87 168.81 35.91C171.38 33.94 172.67 32.28 172.67 30.94C172.67 29.77 171.89 28.86 170.33 28.22C168.78 27.59 166.73 27.27 164.21 27.27C162.23 27.27 160 27.49 157.53 27.95C155.05 28.39 152.5 29.11 149.88 30.1C147.71 30.94 145.74 31.91 143.97 33.03C142.22 34.15 140.74 35.3 139.52 36.5C138.31 37.68 137.41 38.8 136.82 39.85C136.34 40.69 136.11 41.43 136.11 42.06C136.11 42.21 136.12 42.36 136.15 42.5C136.15 42.58 136.16 42.66 136.18 42.74C136.21 42.83 136.22 42.9 136.22 42.97C136.22 43.83 135.85 44.27 135.12 44.27C134.76 44.27 134.4 44.1 134.03 43.75C133.67 43.41 133.48 42.89 133.48 42.2C133.48 41.16 133.94 40.06 134.84 38.89C135.76 37.72 137 36.54 138.56 35.35C140.12 34.16 141.86 33.05 143.79 32C145.73 30.95 147.73 30.04 149.81 29.28C152.48 28.28 155.11 27.54 157.71 27.06C160.3 26.58 162.69 26.33 164.88 26.33C167.89 26.33 170.33 26.75 172.22 27.58C174.1 28.41 175.04 29.56 175.04 31.04C175.04 32.42 174.08 34.02 172.15 35.84C170.21 37.67 166.97 39.68 162.42 41.88C163.95 41.72 165.38 41.59 166.71 41.51C168.05 41.41 169.29 41.37 170.44 41.37C174.69 41.37 177.77 41.86 179.66 42.84C181.57 43.83 182.53 45.09 182.53 46.64C182.53 47.77 182.07 49.01 181.15 50.33C180.24 51.66 178.98 53.03 177.34 54.45C174.97 56.47 171.98 58.44 168.4 60.34C164.81 62.23 160.8 63.86 156.37 65.24C151.95 66.62 147.24 67.55 142.24 68.03C142.23 68.32 142.22 68.61 142.22 68.89C142.22 71.57 142.64 73.81 143.47 75.62C144.38 77.62 145.56 79.18 146.98 80.3C148.42 81.42 149.86 82.21 151.29 82.67C152.73 83.13 153.92 83.37 154.86 83.37C155.55 83.37 156.02 83.28 156.26 83.11C156.46 82.94 156.76 82.85 157.16 82.85C157.55 82.85 157.92 82.95 158.27 83.16C158.62 83.37 158.79 83.6 158.79 83.83C158.79 84.04 158.62 84.2 158.27 84.3C157.18 84.61 156.09 84.77 155.01 84.77ZM77.31 72.88C76.81 72.88 76.41 72.78 76.09 72.57C75.91 72.45 75.81 72.33 75.81 72.18C75.81 72.08 75.86 71.97 75.97 71.85C76.67 71.13 77.33 70.1 77.94 68.77C78.56 67.45 79.1 66.07 79.57 64.62C79.88 63.68 80.15 62.8 80.39 61.97C80.29 62.03 80.18 62.1 80.06 62.16C79.16 62.66 78.27 62.91 77.38 62.91C76.19 62.91 75.35 62.56 74.86 61.87C74.02 60.74 73.61 59.72 73.61 58.81C73.61 57.89 73.58 57.26 73.52 56.92C73.28 57.33 72.8 57.98 72.1 58.86C71.42 59.73 70.6 60.65 69.66 61.6C68.73 62.55 67.74 63.35 66.71 64.01C65.67 64.65 64.7 64.98 63.81 64.98C62.91 64.98 62.27 64.71 61.87 64.18C61.48 63.64 61.29 63.01 61.29 62.29C61.29 61.37 61.52 60.29 61.98 59.05C62.45 57.8 63.08 56.52 63.86 55.19C64.66 53.86 65.56 52.64 66.58 51.52C67.59 50.4 68.67 49.49 69.8 48.78C70.95 48.08 72.07 47.72 73.15 47.72C74.14 47.72 75 48.03 75.71 48.63C76.43 49.24 76.8 49.92 76.8 50.67C76.8 51.12 76.69 51.49 76.49 51.78C76.29 52.08 76.07 52.23 75.82 52.23C75.62 52.23 75.46 52.12 75.31 51.91C74.82 51.12 74.28 50.55 73.72 50.21C73.15 49.86 72.56 49.69 71.96 49.69C70.97 49.69 69.99 50.08 69.02 50.85C68.07 51.62 67.3 52.51 66.71 53.51C66.21 54.27 65.75 55.17 65.33 56.22C64.91 57.28 64.56 58.31 64.28 59.33C64.01 60.34 63.88 61.18 63.88 61.82C63.88 63 64.27 63.59 65.06 63.59C66.05 63.59 67.31 62.83 68.84 61.31C69.99 60.21 71.02 58.93 71.92 57.49C72.84 56.04 73.62 54.78 74.26 53.71C74.51 53.37 74.78 53.15 75.07 53.05C75.38 52.95 75.65 52.89 75.91 52.89C76.5 52.89 76.88 53.07 77.05 53.41C77.22 53.76 77.3 54.05 77.3 54.28C77.3 55.18 77.18 55.98 76.92 56.69C76.68 57.4 76.56 58.25 76.56 59.25C76.56 59.97 76.64 60.64 76.81 61.24C77 61.84 77.31 62.14 77.76 62.14C78.3 62.14 78.99 61.66 79.84 60.69C80.03 60.41 80.33 60.27 80.73 60.27C80.77 60.27 80.82 60.27 80.86 60.28C81.13 59.29 81.33 58.59 81.46 58.17C80.57 57.58 80.13 56.92 80.13 56.2C80.13 55.64 80.31 55.18 80.68 54.8C81.05 54.42 81.34 54.25 81.55 54.28C81.64 54.28 81.78 54.31 81.95 54.37C82.11 54.42 82.2 54.48 82.2 54.55C82.5 52.92 82.75 51.31 82.94 49.72C83.15 48.11 83.25 46.64 83.25 45.3C83.25 44.2 83.17 43.22 83.01 42.36C82.87 41.5 82.65 40.8 82.36 40.28C82.06 39.77 81.91 39.37 81.91 39.1C81.91 38.72 82.06 38.53 82.36 38.53C82.7 38.53 82.97 38.68 83.18 39C83.72 39.75 84.13 40.94 84.39 42.57C84.67 44.18 84.81 46.02 84.81 48.09C84.81 49.5 84.75 50.99 84.64 52.57C84.55 54.13 84.38 55.69 84.14 57.23C85.03 56.68 85.94 56.14 86.87 55.61C87.82 55.07 88.64 54.51 89.34 53.93L89.34 53.88C89.34 53.8 89.29 53.73 89.21 53.66C89.14 53.6 89.1 53.5 89.1 53.36C89.1 53.12 89.35 52.82 89.84 52.48C90.34 52.13 90.99 51.64 91.8 51C92.62 50.36 93.48 49.78 94.37 49.25Q95.71 48.46 96.82 48.51C97.41 48.51 97.71 48.64 97.71 48.91C97.71 49.22 97.28 49.69 96.44 50.31C95.61 50.93 94.61 51.59 93.45 52.28C92.29 52.97 91.23 53.6 90.26 54.17C89.29 54.73 88.66 55.11 88.36 55.32L85.55 57.49L84.07 58.57C84.71 59.71 85.44 60.83 86.28 61.94C87.12 63.04 88.07 63.95 89.14 64.67C90.2 65.4 91.31 65.76 92.45 65.76C93.64 65.76 94.84 65.26 96.08 64.26C96.92 63.54 97.64 62.73 98.23 61.84C98.82 60.94 99.32 60.26 99.72 59.82C99.84 59.65 99.97 59.51 100.09 59.39Q99.93 58.26 99.93 56.92C99.93 54.85 100.3 53.19 101.04 51.94C101.79 50.67 102.7 49.75 103.79 49.17C104.89 48.58 105.94 48.29 106.93 48.29C107.9 48.29 108.74 48.53 109.43 49C110.13 49.46 110.48 50.12 110.48 50.98C110.48 51.81 110.13 52.68 109.43 53.6C108.74 54.51 107.91 55.33 106.94 56.07C105.99 56.81 105.04 57.3 104.1 57.54C103.89 57.61 103.65 57.65 103.36 57.65C103.16 57.65 103.07 57.59 103.07 57.49C103.07 57.22 103.46 56.91 104.24 56.56C105.24 56.08 106.17 55.35 107.05 54.37C107.95 53.39 108.39 52.52 108.39 51.76C108.39 51.31 108.24 50.95 107.94 50.7C107.65 50.44 107.31 50.31 106.93 50.31C106.18 50.31 105.37 50.71 104.5 51.52C103.64 52.33 103.01 53.71 102.61 55.68C102.52 56.23 102.43 56.75 102.34 57.26C102.27 57.75 102.23 58.25 102.23 58.73C102.23 60.66 102.66 62.16 103.5 63.25C104.35 64.33 105.46 64.88 106.84 64.88C108.03 64.88 109.37 64.39 110.84 63.41C112.32 62.43 113.79 60.89 115.22 58.78C115.57 58.23 115.97 57.95 116.42 57.95C116.71 57.95 116.85 58.09 116.85 58.37C116.85 58.61 116.76 58.87 116.56 59.14C115.28 61.35 113.73 63.06 111.89 64.26C110.05 65.46 108.27 66.06 106.55 66.06C104.77 66.06 103.22 65.33 101.91 63.87Q100.93 62.79 100.44 61.08C100.42 61.11 100.41 61.13 100.39 61.16C99.89 61.84 99.41 62.49 98.94 63.1C98.47 63.69 98.11 64.12 97.87 64.36Q96.46 65.81 95.04 66.48C94.1 66.92 93.18 67.15 92.29 67.15C91.15 67.15 90.04 66.85 88.96 66.26C87.87 65.68 86.87 64.93 85.95 64.01C85.03 63.07 84.2 62.09 83.47 61.05C82.92 63.67 82.25 66.02 81.46 68.1C80.67 70.19 79.81 71.63 78.87 72.42C78.42 72.73 77.9 72.88 77.31 72.88ZM199.45 72.88C198.95 72.88 198.55 72.78 198.24 72.57C198.05 72.45 197.95 72.33 197.95 72.18C197.95 72.08 198.01 71.97 198.11 71.85C198.81 71.13 199.47 70.1 200.08 68.77C200.7 67.45 201.24 66.07 201.71 64.62C202.02 63.68 202.29 62.8 202.53 61.97C202.43 62.03 202.32 62.1 202.2 62.16C201.31 62.66 200.41 62.91 199.52 62.91C198.33 62.91 197.49 62.56 197 61.87C196.17 60.74 195.75 59.72 195.75 58.81C195.75 57.89 195.72 57.26 195.66 56.92Q195.3 57.54 194.25 58.86C193.56 59.73 192.74 60.65 191.8 61.6C190.87 62.55 189.89 63.35 188.85 64.01C187.81 64.65 186.84 64.98 185.95 64.98C185.05 64.98 184.41 64.71 184.01 64.18C183.62 63.64 183.43 63.01 183.43 62.29C183.43 61.37 183.66 60.29 184.12 59.05C184.59 57.8 185.22 56.52 186 55.19C186.8 53.86 187.71 52.64 188.72 51.52C189.73 50.4 190.81 49.49 191.94 48.78C193.09 48.08 194.21 47.72 195.3 47.72C196.29 47.72 197.14 48.03 197.85 48.63C198.58 49.24 198.94 49.92 198.94 50.67C198.94 51.12 198.84 51.49 198.63 51.78C198.44 52.08 198.21 52.23 197.96 52.23C197.77 52.23 197.6 52.12 197.45 51.91C196.96 51.12 196.43 50.55 195.86 50.21C195.29 49.86 194.7 49.69 194.1 49.69C193.11 49.69 192.13 50.08 191.17 50.85C190.21 51.62 189.44 52.51 188.85 53.51C188.35 54.27 187.89 55.17 187.47 56.22C187.05 57.28 186.7 58.31 186.42 59.33C186.15 60.34 186.02 61.18 186.02 61.82C186.02 63 186.41 63.59 187.2 63.59C188.19 63.59 189.45 62.83 190.98 61.31C192.13 60.21 193.16 58.93 194.06 57.49C194.98 56.04 195.76 54.78 196.4 53.71C196.66 53.37 196.93 53.15 197.22 53.05C197.52 52.95 197.8 52.89 198.05 52.89C198.64 52.89 199.02 53.07 199.19 53.41C199.36 53.76 199.45 54.05 199.45 54.28C199.45 55.18 199.32 55.98 199.06 56.69C198.82 57.4 198.7 58.25 198.7 59.25C198.7 59.97 198.79 60.64 198.96 61.24C199.14 61.84 199.45 62.14 199.9 62.14C200.44 62.14 201.14 61.66 201.98 60.69C202.17 60.41 202.47 60.27 202.87 60.27C202.92 60.27 202.96 60.27 203 60.28C203.27 59.29 203.47 58.59 203.6 58.17C202.72 57.58 202.28 56.92 202.28 56.2C202.28 55.64 202.46 55.18 202.82 54.8C203.19 54.42 203.48 54.25 203.69 54.28C203.79 54.28 203.92 54.31 204.09 54.37C204.26 54.42 204.34 54.48 204.34 54.55C204.64 52.92 204.89 51.31 205.08 49.72C205.29 48.11 205.39 46.64 205.39 45.3C205.39 44.2 205.31 43.22 205.16 42.36C205.01 41.5 204.79 40.8 204.5 40.28C204.2 39.77 204.05 39.37 204.05 39.1C204.05 38.72 204.2 38.53 204.5 38.53C204.84 38.53 205.11 38.68 205.32 39C205.86 39.75 206.27 40.94 206.53 42.57C206.81 44.18 206.95 46.02 206.95 48.09C206.95 49.5 206.9 50.99 206.79 52.57C206.69 54.13 206.52 55.69 206.28 57.23C207.17 56.68 208.09 56.14 209.02 55.61C209.96 55.07 210.78 54.51 211.48 53.93L211.48 53.88C211.48 53.8 211.44 53.73 211.35 53.66C211.28 53.6 211.24 53.5 211.24 53.36C211.24 53.12 211.49 52.82 211.99 52.48C212.48 52.13 213.13 51.64 213.94 51C214.76 50.36 215.62 49.78 216.52 49.25C217.41 48.72 218.22 48.47 218.96 48.51C219.55 48.51 219.85 48.64 219.85 48.91C219.85 49.22 219.43 49.69 218.58 50.31C217.75 50.93 216.75 51.59 215.59 52.28C214.43 52.97 213.37 53.6 212.4 54.17C211.44 54.73 210.8 55.11 210.5 55.32L207.69 57.49L206.21 58.57C206.85 59.71 207.58 60.83 208.42 61.94C209.26 63.04 210.22 63.95 211.28 64.67C212.34 65.4 213.45 65.76 214.6 65.76C215.78 65.76 216.99 65.26 218.22 64.26C219.06 63.54 219.78 62.73 220.37 61.84C220.97 60.94 221.46 60.26 221.86 59.82C221.99 59.65 222.11 59.51 222.23 59.39C222.13 58.63 222.07 57.81 222.07 56.92C222.07 54.85 222.44 53.19 223.18 51.94C223.93 50.67 224.85 49.75 225.93 49.17C227.03 48.58 228.08 48.29 229.07 48.29C230.05 48.29 230.88 48.53 231.57 49C232.27 49.46 232.62 50.12 232.62 50.98C232.62 51.81 232.27 52.68 231.57 53.6C230.88 54.51 230.05 55.33 229.09 56.07C228.13 56.81 227.18 57.3 226.24 57.54C226.04 57.61 225.79 57.65 225.5 57.65C225.31 57.65 225.21 57.59 225.21 57.49C225.21 57.22 225.6 56.91 226.39 56.56C227.38 56.08 228.31 55.35 229.19 54.37C230.09 53.39 230.54 52.52 230.54 51.76C230.54 51.31 230.38 50.95 230.08 50.7C229.79 50.44 229.45 50.31 229.07 50.31C228.32 50.31 227.51 50.71 226.64 51.52C225.78 52.33 225.15 53.71 224.76 55.68C224.66 56.23 224.57 56.75 224.48 57.26C224.41 57.75 224.38 58.25 224.38 58.73C224.38 60.66 224.8 62.16 225.64 63.25C226.49 64.33 227.6 64.88 228.98 64.88C230.17 64.88 231.51 64.39 232.98 63.41C234.47 62.43 235.93 60.89 237.37 58.78C237.72 58.23 238.11 57.95 238.56 57.95C238.85 57.95 239 58.09 239 58.37C239 58.61 238.9 58.87 238.71 59.14C237.43 61.35 235.87 63.06 234.03 64.26C232.2 65.46 230.41 66.06 228.69 66.06C226.91 66.06 225.37 65.33 224.05 63.87C223.4 63.15 222.91 62.22 222.58 61.08C222.57 61.11 222.55 61.13 222.53 61.16C222.03 61.84 221.55 62.49 221.08 63.1C220.61 63.69 220.25 64.12 220.01 64.36C219.07 65.33 218.13 66.03 217.19 66.48C216.24 66.92 215.33 67.15 214.43 67.15C213.3 67.15 212.19 66.85 211.1 66.26C210.01 65.68 209.01 64.93 208.09 64.01C207.17 63.07 206.35 62.09 205.61 61.05C205.07 63.67 204.4 66.02 203.6 68.1C202.81 70.19 201.95 71.63 201.01 72.42C200.56 72.73 200.04 72.88 199.45 72.88ZM136.75 67.61Q137.56 67.61 138.52 67.54C139.17 67.49 139.87 67.43 140.6 67.36C140.59 67 140.59 66.63 140.59 66.26C140.59 65.15 140.64 64.01 140.75 62.82C140.91 61.23 141.18 59.58 141.56 57.85C138.4 58.99 135.9 60.25 134.06 61.65C132.24 63.04 131.33 64.28 131.33 65.34C131.33 66 131.78 66.54 132.67 66.97C133.56 67.4 134.92 67.61 136.75 67.61Z" fill="#FFF9F4" fill-opacity="1.000000" fill-rule="evenodd"/>
</svg>
