<svg width="240.000000" height="85.049805" viewBox="0 0 240 85.0498" fill="none" xmlns="http://www.w3.org/2000/svg" xmlns:xlink="http://www.w3.org/1999/xlink">
	<desc>
			Created with Pixso.
	</desc>
	<defs/>
	<path id="Форма 3" d="M118.35 85.04C116.89 85.04 115.47 84.71 114.07 84.05C112.68 83.38 111.69 82.29 111.09 80.78C111.02 80.6 111.09 80.46 111.28 80.36C111.48 80.27 111.64 80.38 111.77 80.69C112.43 81.85 113.27 82.69 114.29 83.22C115.33 83.77 116.41 84.05 117.54 84.05C117.8 84.05 118.08 84.03 118.37 84C118.68 83.97 118.97 83.93 119.24 83.87C121.49 83.38 123.26 82.16 124.56 80.22C125.85 78.29 126.77 76.01 127.32 73.41C127.89 70.8 128.24 68.18 128.37 65.54C128.51 62.91 128.55 60.65 128.47 58.77C126.62 59.73 124.72 60.58 122.76 61.32C120.8 62.05 118.77 62.65 116.65 63.12C115.66 63.37 114.52 63.57 113.23 63.72C111.93 63.87 110.56 63.94 109.1 63.94C106.51 63.94 103.97 63.51 101.48 62.63C99 61.74 97.3 60.06 96.36 57.57C96.1 56.98 95.94 56.36 95.87 55.72C95.81 55.07 95.78 54.45 95.78 53.86C95.78 52.1 96.06 50.38 96.63 48.71C97.19 47.03 97.8 45.53 98.45 44.2C96.92 43.35 95.58 42.32 94.42 41.11C93.27 39.9 92.39 38.5 91.8 36.93C91.54 36.21 91.33 35.48 91.19 34.76C91.06 34.02 91 33.31 91 32.65C91 29.92 91.82 27.43 93.47 25.16C95.14 22.88 97.19 20.96 99.63 19.39C102.09 17.8 104.52 16.76 106.92 16.28C107.17 16.22 107.78 16.13 108.74 16.01C109.71 15.88 110.62 15.81 111.48 15.81C112.55 15.81 113.11 15.94 113.18 16.19C113.31 16.42 113.2 16.54 112.86 16.54C111.94 16.54 111.05 16.54 110.19 16.54C109.33 16.54 108.44 16.63 107.5 16.81C105.25 17.3 103.05 18.26 100.9 19.7C98.74 21.12 96.96 22.86 95.53 24.92C94.11 26.98 93.4 29.25 93.4 31.74C93.4 32.4 93.46 33.08 93.59 33.78C93.72 34.48 93.92 35.19 94.17 35.93C95.18 38.48 96.97 40.57 99.56 42.2C101.75 38.38 104.16 35.03 106.79 32.16C109.45 29.27 112.23 26.51 115.14 23.87C118.07 21.24 121.02 18.43 124 15.45C124 14.91 123.98 14.33 123.95 13.72C123.92 13.12 123.9 12.51 123.9 11.9C123.9 10.45 123.98 8.98 124.15 7.5C124.32 6.01 124.67 4.72 125.19 3.64C125.59 2.84 126.11 2.03 126.74 1.22C127.37 0.4 128.18 0 129.17 0C129.83 0 130.39 0.19 130.84 0.59C131.31 0.98 131.69 1.48 131.96 2.08C132.22 2.63 132.35 3.3 132.35 4.08C132.35 5.41 131.97 6.75 131.21 8.08C130.45 9.41 129.57 10.64 128.56 11.77C127.58 12.89 126.69 13.88 125.89 14.72C125.89 17.21 126.1 19.74 126.52 22.32C126.96 24.89 127.38 27.43 127.79 29.91C129.31 28.17 131.11 26.52 133.2 24.98C135.28 23.43 137.56 22.38 140.02 21.83C140.81 21.64 141.67 21.54 142.59 21.54C143.92 21.54 145.19 21.83 146.42 22.41C147.65 22.98 148.56 24.07 149.14 25.65C149.55 26.75 149.75 27.96 149.75 29.29C149.75 30.86 149.51 32.48 149.05 34.16C148.59 35.82 148.13 37.25 147.66 38.47C146.14 42.23 144.05 45.61 141.4 48.62C138.75 51.62 135.67 54.18 132.15 56.3C132.22 57.28 132.28 58.29 132.35 59.32C132.41 60.34 132.45 61.37 132.45 62.41C132.45 65.57 132.13 68.73 131.5 71.92C130.87 75.1 129.73 77.86 128.08 80.18C126.43 82.52 123.98 84.05 120.72 84.78C120.06 84.96 119.27 85.04 118.35 85.04ZM125.89 13.46C126.36 12.97 126.98 12.13 127.74 10.95C128.5 9.76 129.18 8.5 129.78 7.17C130.37 5.84 130.67 4.75 130.67 3.9C130.67 3.53 130.63 3.29 130.55 3.17C130.49 2.99 130.39 2.82 130.26 2.64C130.13 2.45 129.94 2.35 129.68 2.35C129.27 2.35 128.85 2.61 128.42 3.13C128 3.64 127.72 4.08 127.59 4.44C126.99 5.59 126.57 7.07 126.33 8.86C126.1 10.65 125.96 12.18 125.89 13.46ZM106.31 44.2C108.49 44.2 110.6 43.73 112.62 42.8C114.64 41.85 116.51 40.68 118.22 39.29C119.96 37.9 121.47 36.55 122.76 35.25C124.06 33.94 125.04 32.93 125.7 32.2C125.36 29.6 125.04 27 124.73 24.43C124.44 21.84 124.19 19.24 124 16.63C122.41 18.22 120.79 19.77 119.12 21.3C117.47 22.81 115.89 24.38 114.37 26C112.63 27.83 111.02 29.75 109.54 31.78C108.05 33.81 106.67 35.92 105.41 38.11C104.88 38.96 104.38 39.84 103.91 40.75C103.45 41.66 102.99 42.6 102.52 43.58C103.72 43.99 104.98 44.2 106.31 44.2ZM131.86 54.95C134.97 53.13 137.7 50.99 140.04 48.53C142.4 46.07 144.25 43.17 145.57 39.84C146.17 38.32 146.6 36.93 146.86 35.69C147.14 34.45 147.27 33.31 147.27 32.29C147.27 29.86 146.64 28.04 145.38 26.83C144.12 25.61 142.49 25.01 140.5 25.01C138.71 25.01 136.72 25.51 134.53 26.52C132.35 27.51 130.16 29 127.98 31C128.64 35.02 129.39 39.02 130.21 43.02C131.04 47.02 131.59 50.99 131.86 54.95ZM112.76 61.3C113.9 61.3 115 61.23 116.09 61.08C117.19 60.93 118.17 60.77 119.03 60.59C122.34 59.85 125.42 58.75 128.27 57.3C128.21 53.3 127.92 49.29 127.42 45.26C126.94 41.22 126.43 37.17 125.89 33.11C125.17 34.25 124.14 35.57 122.81 37.07C121.48 38.55 119.92 39.97 118.13 41.33C116.35 42.69 114.41 43.83 112.33 44.75C110.24 45.66 108.07 46.11 105.82 46.11C104.5 46.11 103.17 45.93 101.84 45.57C101.57 46.42 101.32 47.36 101.09 48.4C100.86 49.42 100.75 50.45 100.75 51.48C100.75 52.76 100.95 54.03 101.33 55.3C102.27 57.61 103.85 59.19 106.07 60.03C108.28 60.88 110.52 61.3 112.76 61.3Z" fill="#FFA55C" fill-opacity="1.000000" fill-rule="nonzero"/>
	<path id="Форма 4" d="M10.56 68.08C9.28 68.08 8.16 67.59 7.22 66.62C6.27 65.65 5.6 64.08 5.2 61.91C5.15 61.75 5.13 61.54 5.13 61.3L5.13 60.53C5.13 59.44 5.22 58.07 5.42 56.41Q5.73 53.91 6.16 50.92Q6.62 47.9 7.02 44.72Q7.44 41.53 7.73 38.47Q8.04 35.41 8.04 32.91Q8.04 29.79 7.44 27.87Q7.03 26.57 6.19 26.15Q5.78 25.95 5.27 25.95Q5.21 25.95 5.14 25.95L5.14 25.95Q4.24 25.99 3.38 26.67Q2.45 27.38 1.74 28.25Q1.03 29.1 0.61 29.62Q0.34 29.97 0.22 29.92Q0.16 29.9 0.14 29.79C0.09 29.66 0.06 29.54 0.03 29.43C0.01 29.31 0 29.18 0 29.05Q0 28.11 0.65 27.08Q1.32 26.04 2.51 25.33Q2.85 25.12 3.21 24.98L3.21 24.98Q4.13 24.61 5.2 24.61C5.4 24.61 5.58 24.62 5.73 24.63C5.87 24.65 6.02 24.68 6.18 24.72Q7.71 24.98 8.72 25.84Q9.62 26.62 10.11 27.87Q11.17 30.54 11.17 34.33Q11.17 37.2 10.75 40.4C10.48 42.54 10.18 44.68 9.86 46.84C9.54 49 9.24 51.04 8.96 52.99Q8.56 55.89 8.56 58.12C8.56 58.54 8.58 58.95 8.6 59.32C8.62 59.7 8.66 60.05 8.71 60.38C9.11 62.46 9.66 63.91 10.35 64.74Q11.13 65.7 12.09 65.93Q12.4 66.01 12.73 66.01C13.72 66.01 14.76 65.65 15.82 64.92C16.89 64.2 17.94 63.3 18.99 62.21Q20.55 60.58 21.83 58.95Q23.54 56.83 24.95 53.98Q26.37 51.11 27.52 48.15C28.3 46.17 28.9 44.36 29.34 42.72C28.84 42.16 28.54 41.59 28.45 41C28.35 40.41 28.3 39.65 28.3 38.73Q28.3 37.42 28.94 36.62L28.94 36.62Q29.02 36.51 29.12 36.41C29.67 35.85 30.24 35.57 30.83 35.57C31.73 35.57 32.33 36.06 32.63 37.05Q33.45 39.51 34.27 42.25C34.82 44.08 35.42 45.86 36.09 47.6C36.76 49.35 37.54 50.96 38.44 52.45C40.28 55.37 41.97 57.46 43.51 58.73C45.05 59.99 46.46 60.62 47.75 60.62C49.1 60.62 50.28 60.06 51.3 58.93C52.32 57.79 53.17 56.3 53.86 54.45C54.55 52.58 55.08 50.56 55.43 48.37Q55.95 45.09 55.95 41.93C55.95 40.19 55.84 38.56 55.61 37.05Q55.28 34.77 54.46 33.34C54.26 32.95 54.1 32.54 54.01 32.11C53.91 31.69 53.86 31.29 53.86 30.93C53.86 30.47 53.95 30.07 54.12 29.74C54.3 29.41 54.56 29.25 54.9 29.25C55.3 29.25 55.7 29.45 56.1 29.85Q56.92 30.54 57.63 31.75C58.1 32.55 58.51 33.25 58.85 33.83Q59.45 34.82 60.41 36.23C61.07 37.17 61.75 38.03 62.47 38.8C63.18 39.57 63.89 40.04 64.6 40.21C64.69 40.24 64.74 40.3 64.74 40.4C64.74 40.6 64.52 40.77 64.07 40.89C63.62 41.02 63.3 41.07 63.1 41.04C61.96 40.68 61.01 40.29 60.23 39.88C59.47 39.47 58.59 38.71 57.59 37.59C57.64 38.18 57.66 38.78 57.66 39.39L57.66 41.2C57.66 42.91 57.57 44.62 57.39 46.33C57.22 48.04 56.89 49.76 56.39 51.51Q54.75 57.18 52.26 59.6C50.6 61.21 48.85 62.01 47 62.01C45.51 62.01 44.03 61.58 42.56 60.71C41.11 59.83 39.76 58.67 38.51 57.23Q36.65 55.06 35.31 52.39C34.52 50.67 33.84 49.11 33.29 47.68C32.74 46.25 32.32 44.99 32.03 43.91C31.23 46.27 30.19 48.63 28.92 50.96Q27.03 54.46 24.72 57.54Q22.41 60.62 19.92 63C18.25 64.58 16.62 65.82 15 66.72C13.39 67.63 11.91 68.08 10.56 68.08ZM155.66 80.96C153.36 80.96 151.16 80.33 149.05 79.08C146.94 77.83 145.18 76.03 143.76 73.66C142.35 71.29 141.52 68.43 141.27 65.07C139.73 65.17 138.31 65.21 137.03 65.21C134.14 65.21 132.04 64.96 130.71 64.47C129.4 63.98 128.75 63.34 128.75 62.55C128.75 61.76 129.32 60.89 130.46 59.94C131.6 58.98 133.19 58.02 135.23 57.06C137.26 56.09 139.65 55.2 142.39 54.41C143.33 51.06 144.85 47.44 146.96 43.54Q150.14 37.69 155.51 31.12C155.85 30.7 156.37 30.49 157.07 30.49C157.51 30.49 157.91 30.59 158.26 30.79C158.61 30.98 158.78 31.24 158.78 31.57C158.78 31.73 158.71 31.94 158.55 32.21C155.37 36.46 152.73 40.35 150.62 43.88C148.51 47.41 146.86 50.65 145.67 53.58C147.9 53.02 150.28 52.55 152.82 52.19C155.35 51.83 157.94 51.62 160.57 51.55C161.26 51.55 161.6 51.62 161.6 51.75C161.6 51.88 161.37 52.01 160.89 52.12C160.43 52.23 159.65 52.31 158.55 52.34C156.12 52.44 153.8 52.67 151.58 53.01C149.37 53.36 147.3 53.77 145.36 54.26C144.62 56.18 144.05 57.95 143.65 59.58C143.26 61.2 143.01 62.7 142.9 64.08C148.02 63.36 152.68 62.3 156.87 60.9C161.07 59.5 164.78 57.89 168.01 56.05C171.25 54.2 173.96 52.29 176.14 50.31C177.53 49.07 178.54 47.96 179.16 46.99C179.78 46.02 180.09 45.17 180.09 44.45C180.09 43.4 179.59 42.56 178.6 41.95C177.6 41.34 176.29 40.9 174.65 40.63Q172.19 40.21 169.28 40.21C167.24 40.21 165.18 40.33 163.1 40.58C161.01 40.82 159.12 41.16 157.44 41.58C157.04 41.65 156.77 41.69 156.62 41.69C155.98 41.69 155.66 41.54 155.66 41.24C155.66 40.95 155.93 40.71 156.47 40.54C162.59 38.25 166.93 36.16 169.52 34.29C172.1 32.41 173.39 30.83 173.39 29.55C173.39 28.43 172.61 27.57 171.05 26.96Q168.7 26.04 164.9 26.04C162.91 26.04 160.67 26.26 158.18 26.69C155.7 27.12 153.14 27.8 150.51 28.75C148.32 29.55 146.35 30.48 144.58 31.55C142.82 32.61 141.33 33.72 140.1 34.86C138.89 35.99 137.98 37.06 137.39 38.06C136.91 38.86 136.67 39.56 136.67 40.17Q136.67 40.39 136.72 40.59C136.72 40.66 136.73 40.74 136.75 40.82C136.78 40.9 136.79 40.97 136.79 41.04C136.79 41.87 136.42 42.28 135.68 42.28Q135.15 42.28 134.59 41.79C134.23 41.46 134.04 40.96 134.04 40.3Q134.04 38.82 135.41 37.15C136.33 36.02 137.57 34.9 139.14 33.76C140.7 32.63 142.45 31.56 144.39 30.56Q147.31 29.05 150.43 27.97C153.11 27.01 155.76 26.31 158.37 25.85C160.97 25.38 163.38 25.15 165.57 25.15C168.59 25.15 171.05 25.55 172.94 26.34Q175.14 27.26 175.64 28.75Q175.78 29.17 175.78 29.64C175.78 30.96 174.81 32.49 172.87 34.23C170.93 35.98 167.67 37.9 163.1 40C164.64 39.84 166.07 39.72 167.41 39.64C168.75 39.55 170 39.51 171.16 39.51Q177.56 39.51 180.42 40.92C182.33 41.86 183.29 43.07 183.29 44.54C183.29 45.63 182.83 46.8 181.91 48.07C181 49.34 179.72 50.65 178.09 52C175.7 53.94 172.7 55.81 169.1 57.62C165.5 59.43 161.47 60.99 157.02 62.31C152.58 63.63 147.85 64.52 142.83 64.97C142.82 65.25 142.82 65.53 142.82 65.79C142.82 68.35 143.23 70.5 144.07 72.22Q145.45 75.09 147.6 76.69C149.04 77.76 150.48 78.52 151.93 78.96C153.37 79.4 154.56 79.62 155.51 79.62C156.2 79.62 156.67 79.54 156.91 79.38Q157.22 79.13 157.82 79.13C158.21 79.13 158.58 79.23 158.93 79.43Q159.43 79.72 159.46 80.04L159.46 80.04Q159.46 80.05 159.46 80.07C159.46 80.27 159.28 80.42 158.93 80.51C157.84 80.81 156.75 80.96 155.66 80.96ZM77.63 69.61C77.13 69.61 76.73 69.51 76.41 69.31C76.22 69.2 76.13 69.08 76.13 68.94C76.13 68.84 76.18 68.74 76.28 68.62C76.99 67.93 77.65 66.95 78.27 65.68Q79.2 63.79 79.91 61.72C80.21 60.82 80.49 59.98 80.73 59.18C80.62 59.25 80.51 59.31 80.39 59.37C79.49 59.85 78.6 60.08 77.7 60.08C76.51 60.08 75.67 59.75 75.17 59.09C74.33 58.01 73.92 57.04 73.92 56.17C73.92 55.29 73.89 54.69 73.82 54.36C73.58 54.75 73.11 55.37 72.41 56.22C71.71 57.05 70.9 57.92 69.95 58.83C69.02 59.74 68.03 60.5 66.98 61.13C65.94 61.75 64.97 62.06 64.07 62.06C63.18 62.06 62.53 61.81 62.13 61.3C61.74 60.79 61.54 60.18 61.54 59.49C61.54 58.61 61.78 57.58 62.24 56.4C62.71 55.21 63.34 53.98 64.13 52.71C64.93 51.44 65.84 50.27 66.86 49.21C67.88 48.14 68.96 47.27 70.1 46.59Q71.82 45.58 73.46 45.58C74.46 45.58 75.31 45.87 76.03 46.45C76.75 47.03 77.12 47.68 77.12 48.4C77.12 48.82 77.01 49.18 76.81 49.46C76.61 49.74 76.39 49.88 76.13 49.88C75.94 49.88 75.77 49.78 75.63 49.58C75.13 48.82 74.59 48.28 74.02 47.95C73.45 47.62 72.87 47.46 72.26 47.46C71.27 47.46 70.28 47.83 69.31 48.57C68.35 49.31 67.58 50.15 66.98 51.11C66.49 51.83 66.03 52.69 65.6 53.7C65.18 54.7 64.83 55.69 64.55 56.66C64.28 57.63 64.15 58.43 64.15 59.05C64.15 60.17 64.54 60.73 65.33 60.73C66.32 60.73 67.59 60.01 69.13 58.55C70.28 57.5 71.31 56.28 72.22 54.9C73.15 53.52 73.93 52.32 74.57 51.3C74.83 50.97 75.1 50.76 75.39 50.66C75.69 50.57 75.97 50.52 76.23 50.52C76.82 50.52 77.2 50.68 77.37 51.01C77.54 51.34 77.63 51.62 77.63 51.84C77.63 52.7 77.5 53.47 77.24 54.14C77 54.82 76.88 55.63 76.88 56.59C76.88 57.28 76.97 57.91 77.14 58.49C77.32 59.06 77.63 59.35 78.08 59.35C78.63 59.35 79.32 58.89 80.17 57.96C80.37 57.7 80.66 57.57 81.06 57.57C81.11 57.57 81.16 57.57 81.2 57.57C81.47 56.63 81.67 55.96 81.8 55.55C80.91 54.99 80.47 54.37 80.47 53.67C80.47 53.14 80.65 52.7 81.01 52.34C81.39 51.98 81.68 51.81 81.89 51.84C81.99 51.84 82.12 51.87 82.29 51.93C82.46 51.98 82.54 52.03 82.54 52.1Q83 49.77 83.29 47.48C83.5 45.95 83.6 44.54 83.6 43.27Q83.6 41.69 83.36 40.46C83.22 39.63 83 38.97 82.71 38.47Q82.25 37.74 82.25 37.34Q82.25 37.02 82.41 36.89Q82.52 36.8 82.71 36.8C83.05 36.8 83.32 36.95 83.53 37.24Q84.34 38.33 84.74 40.65Q85.16 42.97 85.16 45.93C85.16 47.28 85.11 48.7 85 50.21C84.9 51.7 84.73 53.18 84.49 54.66C85.39 54.13 86.3 53.61 87.24 53.11C88.18 52.59 89.01 52.06 89.71 51.51L89.71 51.46Q89.71 51.45 89.71 51.44Q89.7 51.34 89.58 51.25Q89.57 51.24 89.56 51.23Q89.47 51.13 89.47 50.96C89.47 50.73 89.72 50.45 90.22 50.12C90.72 49.79 91.37 49.32 92.18 48.71C93.01 48.1 93.87 47.54 94.77 47.04C95.67 46.53 96.48 46.29 97.22 46.33C97.82 46.33 98.12 46.46 98.12 46.71C98.12 47.01 97.69 47.46 96.84 48.05C96.01 48.64 95 49.27 93.84 49.93C92.68 50.59 91.61 51.19 90.64 51.74C89.67 52.27 89.03 52.64 88.73 52.83L85.91 54.9L84.42 55.94C85.06 57.02 85.8 58.09 86.64 59.16C87.49 60.21 88.44 61.08 89.51 61.77C90.58 62.46 91.69 62.8 92.84 62.8C94.03 62.8 95.24 62.33 96.48 61.37C97.33 60.68 98.05 59.91 98.64 59.06C99.24 58.2 99.73 57.56 100.14 57.13C100.26 56.97 100.39 56.83 100.51 56.72Q100.35 55.64 100.35 54.36C100.35 52.39 100.72 50.8 101.46 49.6C102.21 48.4 103.13 47.52 104.23 46.96Q105.88 46.12 107.37 46.12C108.36 46.12 109.19 46.35 109.88 46.8C110.59 47.24 110.94 47.87 110.94 48.69C110.94 49.48 110.59 50.32 109.88 51.19C109.19 52.06 108.36 52.85 107.39 53.55C106.43 54.26 105.48 54.73 104.54 54.95C104.33 55.02 104.08 55.06 103.79 55.06C103.6 55.06 103.5 55.01 103.5 54.9C103.5 54.65 103.89 54.35 104.68 54.02C105.68 53.56 106.62 52.86 107.5 51.93C108.4 50.99 108.85 50.16 108.85 49.43C108.85 49 108.7 48.66 108.39 48.42C108.1 48.17 107.76 48.05 107.37 48.05C106.62 48.05 105.81 48.43 104.94 49.21C104.07 49.98 103.44 51.3 103.04 53.18C102.95 53.7 102.86 54.2 102.77 54.69Q102.66 55.4 102.66 56.1C102.66 57.93 103.09 59.37 103.94 60.41C104.78 61.44 105.9 61.96 107.28 61.96C108.48 61.96 109.82 61.5 111.3 60.56C112.79 59.62 114.26 58.15 115.71 56.14Q116.15 55.47 116.71 55.37Q116.81 55.35 116.91 55.35C117.2 55.35 117.34 55.48 117.34 55.75C117.34 55.98 117.25 56.22 117.05 56.48C115.77 58.59 114.2 60.22 112.36 61.37C110.51 62.52 108.73 63.09 106.99 63.09C105.21 63.09 103.66 62.4 102.33 61Q101.36 59.96 100.86 58.34C100.84 58.36 100.83 58.38 100.81 58.41C100.31 59.07 99.83 59.69 99.35 60.26C98.88 60.83 98.52 61.24 98.28 61.47C97.33 62.39 96.39 63.07 95.44 63.49C94.5 63.92 93.57 64.13 92.68 64.13C91.54 64.13 90.42 63.85 89.33 63.29C88.24 62.73 87.23 62.01 86.31 61.13C85.39 60.24 84.56 59.3 83.82 58.31C83.27 60.81 82.6 63.05 81.8 65.05C81.01 67.04 80.14 68.41 79.2 69.16C78.75 69.46 78.23 69.61 77.63 69.61ZM200.28 69.61C199.79 69.61 199.38 69.51 199.07 69.31C198.88 69.2 198.78 69.08 198.78 68.94C198.78 68.84 198.83 68.74 198.94 68.62C199.64 67.93 200.3 66.95 200.92 65.68C201.54 64.42 202.09 63.1 202.56 61.72C202.87 60.82 203.14 59.98 203.38 59.18C203.28 59.25 203.17 59.31 203.04 59.37C202.15 59.85 201.25 60.08 200.35 60.08C199.16 60.08 198.32 59.75 197.82 59.09Q196.57 57.47 196.57 56.17C196.57 55.29 196.54 54.69 196.48 54.36C196.24 54.75 195.76 55.37 195.06 56.22C194.37 57.05 193.55 57.92 192.6 58.83C191.67 59.74 190.68 60.5 189.64 61.13C188.59 61.75 187.62 62.06 186.73 62.06C185.83 62.06 185.18 61.81 184.78 61.3C184.39 60.79 184.2 60.18 184.2 59.49C184.2 58.61 184.43 57.58 184.89 56.4C185.36 55.21 185.99 53.98 186.78 52.71C187.58 51.44 188.49 50.27 189.51 49.21Q191.04 47.6 192.75 46.59C193.9 45.92 195.02 45.58 196.11 45.58C197.11 45.58 197.96 45.87 198.68 46.45C199.41 47.03 199.77 47.68 199.77 48.4C199.77 48.82 199.67 49.18 199.46 49.46C199.27 49.74 199.04 49.88 198.79 49.88C198.59 49.88 198.42 49.78 198.28 49.58C197.78 48.82 197.25 48.28 196.68 47.95C196.11 47.62 195.52 47.46 194.91 47.46C193.92 47.46 192.94 47.83 191.97 48.57C191.01 49.31 190.23 50.15 189.64 51.11C189.14 51.83 188.68 52.69 188.25 53.7C187.83 54.7 187.48 55.69 187.2 56.66C186.93 57.63 186.8 58.43 186.8 59.05C186.8 60.17 187.19 60.73 187.98 60.73C188.98 60.73 190.24 60.01 191.78 58.55C192.94 57.5 193.97 56.28 194.88 54.9C195.8 53.52 196.58 52.32 197.22 51.3C197.48 50.97 197.75 50.76 198.04 50.66C198.35 50.57 198.62 50.52 198.88 50.52C199.47 50.52 199.86 50.68 200.03 51.01Q200.28 51.51 200.28 51.84C200.28 52.7 200.15 53.47 199.9 54.14C199.66 54.82 199.53 55.63 199.53 56.59C199.53 57.28 199.62 57.91 199.79 58.49C199.97 59.06 200.29 59.35 200.73 59.35C201.28 59.35 201.98 58.89 202.83 57.96C203.02 57.7 203.32 57.57 203.72 57.57C203.76 57.57 203.81 57.57 203.85 57.57C204.12 56.63 204.32 55.96 204.45 55.55C203.56 54.99 203.12 54.37 203.12 53.67C203.12 53.14 203.3 52.7 203.67 52.34C204.04 51.98 204.34 51.81 204.54 51.84C204.64 51.84 204.77 51.87 204.94 51.93C205.11 51.98 205.2 52.03 205.2 52.1C205.5 50.55 205.75 49.01 205.94 47.48C206.15 45.95 206.25 44.54 206.25 43.27C206.25 42.21 206.17 41.28 206.01 40.46C205.87 39.63 205.65 38.97 205.36 38.47C205.06 37.98 204.91 37.61 204.91 37.34C204.91 36.98 205.06 36.8 205.36 36.8C205.7 36.8 205.97 36.95 206.18 37.24Q207 38.33 207.4 40.65C207.68 42.2 207.82 43.95 207.82 45.93C207.82 47.28 207.76 48.7 207.65 50.21C207.56 51.7 207.39 53.18 207.14 54.66C208.04 54.13 208.96 53.61 209.89 53.11C210.84 52.59 211.66 52.06 212.36 51.51L212.36 51.46C212.36 51.39 212.32 51.32 212.24 51.25C212.16 51.19 212.13 51.09 212.13 50.96C212.13 50.73 212.38 50.45 212.87 50.12C213.37 49.79 214.03 49.32 214.84 48.71C215.66 48.1 216.52 47.54 217.42 47.04C218.32 46.53 219.14 46.29 219.88 46.33C220.47 46.33 220.77 46.46 220.77 46.71C220.77 47.01 220.34 47.46 219.5 48.05Q218.24 48.94 216.49 49.93C215.33 50.59 214.26 51.19 213.29 51.74C212.32 52.27 211.68 52.64 211.38 52.83L208.56 54.9L207.07 55.94C207.71 57.02 208.45 58.09 209.29 59.16C210.14 60.21 211.1 61.08 212.16 61.77C213.23 62.46 214.34 62.8 215.49 62.8C216.68 62.8 217.89 62.33 219.13 61.37C219.98 60.68 220.7 59.91 221.3 59.06C221.89 58.2 222.39 57.56 222.79 57.13C222.91 56.97 223.04 56.83 223.16 56.72C223.06 56 223 55.21 223 54.36C223 52.39 223.37 50.8 224.11 49.6C224.87 48.4 225.79 47.52 226.88 46.96C227.98 46.4 229.03 46.12 230.03 46.12C231.01 46.12 231.85 46.35 232.54 46.8C233.24 47.24 233.59 47.87 233.59 48.69C233.59 49.48 233.24 50.32 232.54 51.19C231.85 52.06 231.01 52.85 230.04 53.55C229.09 54.26 228.13 54.73 227.19 54.95C226.98 55.02 226.73 55.06 226.44 55.06C226.25 55.06 226.15 55.01 226.15 54.9C226.15 54.65 226.55 54.35 227.33 54.02C228.33 53.56 229.27 52.86 230.15 51.93C231.05 50.99 231.5 50.16 231.5 49.43Q231.5 49.01 231.31 48.71Q231.21 48.55 231.04 48.42C230.75 48.17 230.41 48.05 230.03 48.05C229.27 48.05 228.46 48.43 227.59 49.21C226.73 49.98 226.1 51.3 225.7 53.18C225.6 53.7 225.51 54.2 225.42 54.69C225.35 55.16 225.31 55.63 225.31 56.1Q225.31 58.85 226.59 60.41C227.44 61.44 228.55 61.96 229.94 61.96C231.14 61.96 232.48 61.5 233.96 60.56C235.45 59.62 236.91 58.15 238.36 56.14C238.71 55.61 239.11 55.35 239.56 55.35C239.85 55.35 240 55.48 240 55.75C240 55.98 239.9 56.22 239.7 56.48C238.42 58.59 236.85 60.22 235.01 61.37C233.17 62.52 231.38 63.09 229.64 63.09C227.86 63.09 226.31 62.4 224.99 61C224.34 60.31 223.84 59.42 223.51 58.34C223.5 58.36 223.48 58.38 223.46 58.41C222.96 59.07 222.48 59.69 222.01 60.26C221.53 60.83 221.18 61.24 220.93 61.47C219.99 62.39 219.04 63.07 218.09 63.49C217.15 63.92 216.23 64.13 215.33 64.13C214.19 64.13 213.07 63.85 211.98 63.29C210.89 62.73 209.88 62.01 208.96 61.13C208.04 60.24 207.21 59.3 206.47 58.31C205.92 60.81 205.25 63.05 204.45 65.05C203.66 67.04 202.79 68.41 201.85 69.16C201.4 69.46 200.88 69.61 200.28 69.61ZM137.32 64.58C137.86 64.58 138.46 64.55 139.1 64.5C139.75 64.46 140.45 64.4 141.19 64.33C141.18 63.99 141.17 63.64 141.17 63.29C141.17 62.23 141.23 61.13 141.34 60C141.5 58.48 141.77 56.9 142.16 55.25C138.98 56.34 136.47 57.54 134.63 58.88C132.79 60.21 131.88 61.39 131.88 62.41C131.88 63.03 132.33 63.55 133.22 63.96C134.12 64.37 135.49 64.58 137.32 64.58Z" fill="#1F1711" fill-opacity="1.000000" fill-rule="evenodd"/>
</svg>
