<svg width="1846.000000" height="599.000000" viewBox="0 0 1846 599" fill="none" xmlns="http://www.w3.org/2000/svg" xmlns:xlink="http://www.w3.org/1999/xlink">
	<desc>
			Created with Pixso.
	</desc>
	<defs>
		<radialGradient gradientTransform="translate(907.524 -4.50464) rotate(0) scale(950.298 1035.1)" cx="0.000000" cy="0.000000" r="1.000000" id="paint_radial_70_1405_0" gradientUnits="userSpaceOnUse">
			<stop stop-color="#4A289C" stop-opacity="0.000000"/>
			<stop offset="0.960000" stop-color="#00092B"/>
		</radialGradient>
		<radialGradient gradientTransform="translate(909.046 34.9028) rotate(0) scale(827.498 901.342)" cx="0.000000" cy="0.000000" r="1.000000" id="paint_radial_70_1406_0" gradientUnits="userSpaceOnUse">
			<stop stop-color="#4A289C" stop-opacity="0.000000"/>
			<stop offset="0.960000" stop-color="#00092B"/>
		</radialGradient>
		<radialGradient gradientTransform="translate(887.934 2.41284) rotate(0) scale(735.721 750.494)" cx="0.000000" cy="0.000000" r="1.000000" id="paint_radial_70_1407_0" gradientUnits="userSpaceOnUse">
			<stop stop-color="#4A289C"/>
			<stop offset="0.960000" stop-color="#00092B"/>
		</radialGradient>
		<radialGradient gradientTransform="translate(954.715 85.5578) rotate(8.82501) scale(412.067 427.884)" cx="0.000000" cy="0.000000" r="1.000000" id="paint_radial_70_1409_0" gradientUnits="userSpaceOnUse">
			<stop stop-color="#4A289C"/>
			<stop offset="0.960000" stop-color="#00092B"/>
		</radialGradient>
		<radialGradient gradientTransform="translate(971.428 205.448) rotate(0) scale(306.503 320.606)" cx="0.000000" cy="0.000000" r="1.000000" id="paint_radial_70_1410_0" gradientUnits="userSpaceOnUse">
			<stop stop-color="#4A289C"/>
			<stop offset="0.960000" stop-color="#00092B"/>
		</radialGradient>
		<radialGradient gradientTransform="translate(1075.63 0.0537109) rotate(0) scale(378.648 396.072)" cx="0.000000" cy="0.000000" r="1.000000" id="paint_radial_70_1412_0" gradientUnits="userSpaceOnUse">
			<stop stop-color="#4A289C"/>
			<stop offset="0.960000" stop-color="#00092B"/>
		</radialGradient>
		<radialGradient gradientTransform="translate(1075.63 0.0535583) rotate(0) scale(378.648 396.072)" cx="0.000000" cy="0.000000" r="1.000000" id="paint_radial_70_1413_0" gradientUnits="userSpaceOnUse">
			<stop stop-color="#4A289C"/>
			<stop offset="0.960000" stop-color="#00092B"/>
		</radialGradient>
		<radialGradient gradientTransform="translate(1075.63 0.0539856) rotate(0) scale(378.648 396.072)" cx="0.000000" cy="0.000000" r="1.000000" id="paint_radial_70_1414_0" gradientUnits="userSpaceOnUse">
			<stop stop-color="#4A289C"/>
			<stop offset="0.960000" stop-color="#00092B"/>
		</radialGradient>
		<radialGradient gradientTransform="translate(1075.63 0.0533142) rotate(0) scale(378.648 396.071)" cx="0.000000" cy="0.000000" r="1.000000" id="paint_radial_70_1415_0" gradientUnits="userSpaceOnUse">
			<stop stop-color="#4A289C"/>
			<stop offset="0.960000" stop-color="#00092B"/>
		</radialGradient>
		<radialGradient gradientTransform="translate(1075.63 0.0532227) rotate(0) scale(378.648 396.072)" cx="0.000000" cy="0.000000" r="1.000000" id="paint_radial_70_1416_0" gradientUnits="userSpaceOnUse">
			<stop stop-color="#4A289C"/>
			<stop offset="0.960000" stop-color="#00092B"/>
		</radialGradient>
		<radialGradient gradientTransform="translate(1075.63 0.0536194) rotate(0) scale(378.649 396.071)" cx="0.000000" cy="0.000000" r="1.000000" id="paint_radial_70_1417_0" gradientUnits="userSpaceOnUse">
			<stop stop-color="#4A289C"/>
			<stop offset="0.960000" stop-color="#00092B"/>
		</radialGradient>
		<radialGradient gradientTransform="translate(576.972 191.635) rotate(0) scale(115.53 120.846)" cx="0.000000" cy="0.000000" r="1.000000" id="paint_radial_70_1418_0" gradientUnits="userSpaceOnUse">
			<stop stop-color="#4A289C"/>
			<stop offset="0.960000" stop-color="#00092B"/>
		</radialGradient>
		<radialGradient gradientTransform="translate(1169.39 84.6679) rotate(26.278) scale(116.832 120.629)" cx="0.000000" cy="0.000000" r="1.000000" id="paint_radial_70_1419_0" gradientUnits="userSpaceOnUse">
			<stop stop-color="#4A289C"/>
			<stop offset="0.960000" stop-color="#00092B"/>
		</radialGradient>
		<radialGradient gradientTransform="translate(1534.96 258.581) rotate(50.0517) scale(119.4 118.103)" cx="0.000000" cy="0.000000" r="1.000000" id="paint_radial_70_1420_0" gradientUnits="userSpaceOnUse">
			<stop stop-color="#4A289C"/>
			<stop offset="0.960000" stop-color="#00092B"/>
		</radialGradient>
		<radialGradient gradientTransform="translate(1208.68 129.759) rotate(26.278) scale(49.6005 51.2127)" cx="0.000000" cy="0.000000" r="1.000000" id="paint_radial_70_1421_0" gradientUnits="userSpaceOnUse">
			<stop stop-color="#4A289C"/>
			<stop offset="0.960000" stop-color="#00092B"/>
		</radialGradient>
		<radialGradient gradientTransform="translate(1267.59 215.25) rotate(26.2781) scale(49.6005 51.2126)" cx="0.000000" cy="0.000000" r="1.000000" id="paint_radial_70_1422_0" gradientUnits="userSpaceOnUse">
			<stop stop-color="#4A289C"/>
			<stop offset="0.960000" stop-color="#00092B"/>
		</radialGradient>
		<radialGradient gradientTransform="translate(1331.98 159.533) rotate(26.278) scale(49.6005 51.2126)" cx="0.000000" cy="0.000000" r="1.000000" id="paint_radial_70_1423_0" gradientUnits="userSpaceOnUse">
			<stop stop-color="#4A289C"/>
			<stop offset="0.960000" stop-color="#00092B"/>
		</radialGradient>
		<radialGradient gradientTransform="translate(1406.9 271.114) rotate(40.4141) scale(50.1019 50.7298)" cx="0.000000" cy="0.000000" r="1.000000" id="paint_radial_70_1424_0" gradientUnits="userSpaceOnUse">
			<stop stop-color="#4A289C"/>
			<stop offset="0.960000" stop-color="#00092B"/>
		</radialGradient>
		<radialGradient gradientTransform="translate(1386.36 174.695) rotate(33.7399) scale(79.9854 81.7864)" cx="0.000000" cy="0.000000" r="1.000000" id="paint_radial_70_1425_0" gradientUnits="userSpaceOnUse">
			<stop stop-color="#4A289C"/>
			<stop offset="0.960000" stop-color="#00092B"/>
		</radialGradient>
		<radialGradient gradientTransform="translate(1176.17 190.301) rotate(27.5824) scale(79.5393 81.5382)" cx="0.000000" cy="0.000000" r="1.000000" id="paint_radial_70_1426_0" gradientUnits="userSpaceOnUse">
			<stop stop-color="#4A289C"/>
			<stop offset="0.960000" stop-color="#00092B"/>
		</radialGradient>
		<radialGradient gradientTransform="translate(729.168 138.243) rotate(3.20498) scale(70.8915 74.1689)" cx="0.000000" cy="0.000000" r="1.000000" id="paint_radial_70_1427_0" gradientUnits="userSpaceOnUse">
			<stop stop-color="#4A289C"/>
			<stop offset="0.960000" stop-color="#00092B"/>
		</radialGradient>
		<radialGradient gradientTransform="translate(719.375 206.533) rotate(3.205) scale(70.8915 74.1689)" cx="0.000000" cy="0.000000" r="1.000000" id="paint_radial_70_1428_0" gradientUnits="userSpaceOnUse">
			<stop stop-color="#4A289C"/>
			<stop offset="0.960000" stop-color="#00092B"/>
		</radialGradient>
		<radialGradient gradientTransform="translate(745.328 203.669) rotate(3.20498) scale(44.1618 46.2036)" cx="0.000000" cy="0.000000" r="1.000000" id="paint_radial_70_1429_0" gradientUnits="userSpaceOnUse">
			<stop stop-color="#4A289C"/>
			<stop offset="0.960000" stop-color="#00092B"/>
		</radialGradient>
		<radialGradient gradientTransform="translate(691.18 113.665) rotate(3.20498) scale(44.1618 46.2036)" cx="0.000000" cy="0.000000" r="1.000000" id="paint_radial_70_1430_0" gradientUnits="userSpaceOnUse">
			<stop stop-color="#4A289C"/>
			<stop offset="0.960000" stop-color="#00092B"/>
		</radialGradient>
		<radialGradient gradientTransform="translate(619.908 203.687) rotate(3.20502) scale(44.1618 46.2036)" cx="0.000000" cy="0.000000" r="1.000000" id="paint_radial_70_1431_0" gradientUnits="userSpaceOnUse">
			<stop stop-color="#4A289C"/>
			<stop offset="0.960000" stop-color="#00092B"/>
		</radialGradient>
		<radialGradient gradientTransform="translate(792.543 107.791) rotate(0) scale(115.53 120.846)" cx="0.000000" cy="0.000000" r="1.000000" id="paint_radial_70_1432_0" gradientUnits="userSpaceOnUse">
			<stop stop-color="#4A289C"/>
			<stop offset="0.960000" stop-color="#00092B"/>
		</radialGradient>
		<radialGradient gradientTransform="translate(836.233 119.839) rotate(3.20497) scale(44.162 46.2036)" cx="0.000000" cy="0.000000" r="1.000000" id="paint_radial_70_1433_0" gradientUnits="userSpaceOnUse">
			<stop stop-color="#4A289C"/>
			<stop offset="0.960000" stop-color="#00092B"/>
		</radialGradient>
		<radialGradient gradientTransform="translate(624.409 131.182) rotate(3.20499) scale(44.1619 46.2036)" cx="0.000000" cy="0.000000" r="1.000000" id="paint_radial_70_1434_0" gradientUnits="userSpaceOnUse">
			<stop stop-color="#4A289C"/>
			<stop offset="0.960000" stop-color="#00092B"/>
		</radialGradient>
	</defs>
	<g style="mix-blend-mode:screen">
		<path id="Vector" d="M1846 386.66C1670.96 156.24 1331.52 0 941.44 0C521.81 0 160.79 180.82 0 440.26L0 599L1846 599L1846 386.66Z" fill="url(#paint_radial_70_1405_0)" fill-opacity="1.000000" fill-rule="nonzero"/>
	</g>
	<g style="mix-blend-mode:screen">
		<path id="Vector" d="M1726.74 375.41C1574.32 174.77 1278.73 38.71 939.06 38.71C573.66 38.71 259.3 196.16 119.28 422.09L119.28 560.3L1726.74 560.3L1726.74 375.41Z" fill="url(#paint_radial_70_1406_0)" fill-opacity="1.000000" fill-rule="nonzero"/>
	</g>
	<g style="mix-blend-mode:screen">
		<path id="Vector" d="M1637.6 379.14C1502.09 211.96 1239.29 98.59 937.27 98.59C612.38 98.59 332.89 229.77 208.39 418.03L208.39 533.19L1637.6 533.19L1637.6 379.14Z" fill="url(#paint_radial_70_1407_0)" fill-opacity="1.000000" fill-rule="nonzero"/>
	</g>
	<g opacity="0.500000">
		<path id="Vector" d="M1259.75 202.34C1257.56 217.72 1225.14 225.44 1187.32 219.58C1149.54 213.72 1120.67 196.47 1122.86 181.09C1125.05 165.71 1157.46 157.98 1195.28 163.84C1233.06 169.71 1261.93 186.95 1259.75 202.34ZM561.93 181.55C526.25 195.81 501.62 219.18 506.96 233.7C512.28 248.22 545.55 248.44 581.23 234.16C616.91 219.87 641.53 196.53 636.19 182C630.87 167.48 597.6 167.26 561.93 181.55ZM682.66 206.68C656.95 216.27 639.02 232.55 642.61 243.02C646.19 253.49 669.93 254.2 695.64 244.59C721.36 235 739.29 218.72 735.7 208.25C732.12 197.79 708.38 197.07 682.66 206.68ZM740.42 130.39C720.98 136.79 707.15 148.37 709.55 156.28C711.93 164.19 729.63 165.43 749.06 159.04C768.49 152.64 782.33 141.06 779.93 133.15C777.55 125.24 759.85 124 740.42 130.39ZM1364.24 220.91C1345.62 212.29 1327.9 211.45 1324.69 219.05C1321.49 226.63 1333.98 239.77 1352.6 248.39C1371.22 257.01 1388.94 257.85 1392.15 250.25C1395.35 242.65 1382.86 229.54 1364.24 220.91ZM1275.71 253.49C1252.71 250.71 1233.24 256.04 1232.19 265.42C1231.16 274.79 1248.97 284.62 1271.96 287.39C1294.96 290.17 1314.43 284.83 1315.47 275.46C1316.5 266.11 1298.68 256.26 1275.71 253.49Z" fill="url(#paint_radial_70_1409_0)" fill-opacity="1.000000" fill-rule="nonzero"/>
	</g>
	<g style="mix-blend-mode:screen">
		<path id="Vector" d="M592.19 233.13C575.85 239.67 560.04 243.16 547.17 243.64C557.62 242.1 569.28 238.96 581.23 234.18C616.91 219.91 641.53 196.54 636.19 182.02C633.3 174.15 622.19 170.47 606.94 171.06C627.7 168.01 643.61 171.31 647.15 180.98C652.47 195.5 627.87 218.87 592.19 233.13ZM714.74 199.96C725.76 199.76 733.74 202.55 735.7 208.27C739.29 218.74 721.34 235 695.64 244.61C688.3 247.35 681.13 249.23 674.53 250.29C683.68 250.12 694.93 247.91 706.61 243.57C732.32 233.97 750.25 217.7 746.66 207.23C744.1 199.76 731.25 197.29 714.74 199.96ZM1195.28 163.84C1233.06 169.71 1261.93 186.95 1259.75 202.33C1258.47 211.39 1246.67 217.81 1229.46 220.33C1252.48 219.21 1269.16 212.18 1270.71 201.29C1272.9 185.91 1244.03 168.67 1206.24 162.8C1190.71 160.39 1176.11 160.28 1164.11 162.03C1173.62 161.58 1184.22 162.13 1195.28 163.84ZM1375.2 219.87C1361 213.3 1347.35 211.27 1340.24 214.03C1347.15 214.61 1355.58 216.91 1364.24 220.91C1382.86 229.54 1395.37 242.67 1392.15 250.25C1391.37 252.06 1389.77 253.38 1387.56 254.23C1395.51 254.89 1401.39 253.28 1403.11 249.21C1406.32 241.63 1393.83 228.49 1375.2 219.87ZM1286.67 252.44C1277.39 251.33 1268.71 251.55 1261.56 252.79C1266.03 252.68 1270.79 252.88 1275.71 253.47C1298.71 256.24 1316.5 266.07 1315.47 275.44C1314.84 281.03 1307.64 285.16 1297.06 287.01C1313.41 286.6 1325.62 281.75 1326.43 274.4C1327.47 265.05 1309.66 255.2 1286.67 252.43L1286.67 252.44ZM763.44 126.32C772.23 126.32 778.57 128.66 779.93 133.15C782.31 141.06 768.49 152.66 749.06 159.04C744.91 160.41 740.85 161.39 737 162.07C743.65 162.07 751.66 160.74 760.02 158C779.46 151.6 793.29 140.02 790.89 132.11C789.02 125.88 777.66 123.82 763.44 126.32Z" fill="url(#paint_radial_70_1410_0)" fill-opacity="1.000000" fill-rule="nonzero"/>
	</g>
	<g opacity="0.500000">
		<path id="Vector" d="M1307.26 284.1C1300.15 280.42 1290.44 277.51 1279.56 276.19C1265.22 274.46 1252.26 275.88 1244.28 279.48C1251.39 283.17 1261.09 286.08 1271.98 287.39C1286.31 289.13 1299.28 287.7 1307.26 284.1Z" fill="url(#paint_radial_70_1412_0)" fill-opacity="1.000000" fill-rule="nonzero"/>
	</g>
	<g opacity="0.500000">
		<path id="Vector" d="M1256.14 209.46C1245.41 199.39 1224.24 190.46 1199.11 186.55C1167.68 181.67 1140.03 186.19 1130.29 196.67C1141.03 206.74 1162.19 215.67 1187.32 219.58C1218.75 224.46 1246.41 219.95 1256.14 209.46Z" fill="url(#paint_radial_70_1413_0)" fill-opacity="1.000000" fill-rule="nonzero"/>
	</g>
	<g opacity="0.500000">
		<path id="Vector" d="M1334.69 237.28C1339.45 241.27 1345.58 245.14 1352.6 248.39C1365.81 254.51 1378.54 256.68 1385.98 254.73C1381.22 250.75 1375.09 246.87 1368.07 243.62C1354.86 237.5 1342.13 235.33 1334.69 237.28Z" fill="url(#paint_radial_70_1414_0)" fill-opacity="1.000000" fill-rule="nonzero"/>
	</g>
	<g opacity="0.500000">
		<path id="Vector" d="M513.85 240.99C526.47 247.66 553.08 245.43 581.23 234.16C605.93 224.28 625.3 210.06 633.14 197.42C620.51 190.75 593.91 192.98 565.76 204.25C541.06 214.14 521.68 228.35 513.85 240.99Z" fill="url(#paint_radial_70_1415_0)" fill-opacity="1.000000" fill-rule="nonzero"/>
	</g>
	<g opacity="0.500000">
		<path id="Vector" d="M744.25 153.1C736.21 155.73 729.17 159.28 723.81 163.06C730.83 163.41 739.74 162.11 749.06 159.04C757.1 156.41 764.13 152.86 769.49 149.08C762.47 148.74 753.57 150.03 744.25 153.1Z" fill="url(#paint_radial_70_1416_0)" fill-opacity="1.000000" fill-rule="nonzero"/>
	</g>
	<g opacity="0.500000">
		<path id="Vector" d="M652.47 250.24C662.49 252.76 678.61 250.95 695.64 244.59C710.46 239.06 722.64 231.33 729.68 223.75C719.66 221.22 703.55 223.03 686.51 229.39C671.7 234.93 659.51 242.65 652.47 250.24Z" fill="url(#paint_radial_70_1417_0)" fill-opacity="1.000000" fill-rule="nonzero"/>
	</g>
	<g opacity="0.250000">
		<path id="Vector" d="M615.19 250.22C616.93 256.01 606.66 264.52 592.27 269.25C577.87 273.98 564.77 273.13 563.04 267.33C561.3 261.54 571.57 253.03 585.96 248.3C600.36 243.57 613.45 244.43 615.19 250.22Z" fill="url(#paint_radial_70_1418_0)" fill-opacity="1.000000" fill-rule="nonzero"/>
	</g>
	<g opacity="0.250000">
		<path id="Vector" d="M1153.81 143.02C1153.03 149.03 1140.26 152.15 1125.31 150C1110.35 147.84 1098.88 141.23 1099.67 135.22C1100.46 129.21 1113.24 126.08 1128.18 128.24C1143.14 130.39 1154.62 137.01 1153.81 143.02Z" fill="url(#paint_radial_70_1419_0)" fill-opacity="1.000000" fill-rule="nonzero"/>
	</g>
	<g opacity="0.250000">
		<path id="Vector" d="M1467.07 264.94C1464.05 270.11 1451.15 267.66 1438.26 259.46C1425.38 251.26 1417.37 240.41 1420.39 235.22C1423.41 230.05 1436.32 232.5 1449.21 240.7C1462.09 248.9 1470.09 259.75 1467.07 264.94Z" fill="url(#paint_radial_70_1420_0)" fill-opacity="1.000000" fill-rule="nonzero"/>
	</g>
	<g opacity="0.250000">
		<path id="Vector" d="M1189.44 149.34C1189.11 151.9 1183.68 153.21 1177.32 152.3C1170.99 151.39 1166.11 148.57 1166.44 146.03C1166.79 143.47 1172.19 142.16 1178.56 143.07C1184.9 143.99 1189.79 146.8 1189.44 149.34Z" fill="url(#paint_radial_70_1421_0)" fill-opacity="1.000000" fill-rule="nonzero"/>
	</g>
	<g opacity="0.250000">
		<path id="Vector" d="M1251.24 236C1250.9 238.56 1245.48 239.88 1239.13 238.96C1232.79 238.05 1227.9 235.24 1228.24 232.7C1228.57 230.14 1233.99 228.82 1240.35 229.74C1246.71 230.65 1251.57 233.46 1251.24 236Z" fill="url(#paint_radial_70_1422_0)" fill-opacity="1.000000" fill-rule="nonzero"/>
	</g>
	<g opacity="0.250000">
		<path id="Vector" d="M1311.32 178.51C1310.98 181.07 1305.56 182.39 1299.19 181.47C1292.84 180.56 1287.98 177.75 1288.31 175.21C1288.65 172.65 1294.06 171.33 1300.43 172.25C1306.77 173.16 1311.66 175.97 1311.32 178.51Z" fill="url(#paint_radial_70_1423_0)" fill-opacity="1.000000" fill-rule="nonzero"/>
	</g>
	<g opacity="0.250000">
		<path id="Vector" d="M1361.88 268.16C1360.98 270.55 1355.41 270.47 1349.45 267.99C1343.48 265.51 1339.41 261.56 1340.31 259.17C1341.22 256.77 1346.79 256.85 1352.75 259.33C1358.69 261.82 1362.79 265.76 1361.88 268.16Z" fill="url(#paint_radial_70_1424_0)" fill-opacity="1.000000" fill-rule="nonzero"/>
	</g>
	<g opacity="0.250000">
		<path id="Vector" d="M1348.64 199.38C1347.6 203.36 1338.71 204.33 1328.79 201.51C1318.86 198.7 1311.66 193.2 1312.69 189.22C1313.73 185.24 1322.62 184.27 1332.54 187.08C1342.47 189.89 1349.67 195.39 1348.64 199.38Z" fill="url(#paint_radial_70_1425_0)" fill-opacity="1.000000" fill-rule="nonzero"/>
	</g>
	<g opacity="0.250000">
		<path id="Vector" d="M1146.02 215.83C1156.17 217.59 1163.79 222.3 1163.04 226.36C1162.29 230.42 1153.46 232.3 1143.31 230.55C1133.16 228.79 1125.55 224.08 1126.29 220.02C1127.04 215.96 1135.88 214.08 1146.02 215.83Z" fill="url(#paint_radial_70_1426_0)" fill-opacity="1.000000" fill-rule="evenodd"/>
	</g>
	<g opacity="0.250000">
		<path id="Vector" d="M753.81 175.61C754.7 179.21 748.14 184.09 739.17 186.48C730.19 188.89 722.21 187.9 721.32 184.3C720.44 180.71 727 175.83 735.97 173.43C744.95 171.02 752.93 172.01 753.81 175.61Z" fill="url(#paint_radial_70_1427_0)" fill-opacity="1.000000" fill-rule="nonzero"/>
	</g>
	<g opacity="0.250000">
		<path id="Vector" d="M744.57 244.06C745.46 247.66 738.89 252.54 729.93 254.93C720.95 257.34 712.97 256.35 712.08 252.76C711.19 249.16 717.76 244.28 726.72 241.89C735.7 239.47 743.68 240.46 744.57 244.06Z" fill="url(#paint_radial_70_1428_0)" fill-opacity="1.000000" fill-rule="nonzero"/>
	</g>
	<g opacity="0.250000">
		<path id="Vector" d="M763.02 227.35C763.57 229.59 759.49 232.62 753.89 234.12C748.31 235.62 743.32 235.02 742.78 232.77C742.23 230.52 746.31 227.49 751.91 225.99C757.51 224.5 762.48 225.1 763.02 227.35Z" fill="url(#paint_radial_70_1429_0)" fill-opacity="1.000000" fill-rule="nonzero"/>
	</g>
	<g opacity="0.250000">
		<path id="Vector" d="M707.89 137.12C708.44 139.36 704.36 142.4 698.76 143.89C693.17 145.39 688.19 144.79 687.64 142.54C687.1 140.3 691.17 137.26 696.78 135.77C702.36 134.27 707.34 134.87 707.89 137.12Z" fill="url(#paint_radial_70_1430_0)" fill-opacity="1.000000" fill-rule="nonzero"/>
	</g>
	<g opacity="0.250000">
		<path id="Vector" d="M637.13 227.35C637.68 229.59 633.6 232.62 628 234.12C622.4 235.62 617.43 235.02 616.89 232.77C616.34 230.52 620.42 227.49 626.02 225.99C631.6 224.5 636.59 225.1 637.13 227.35Z" fill="url(#paint_radial_70_1431_0)" fill-opacity="1.000000" fill-rule="nonzero"/>
	</g>
	<g opacity="0.250000">
		<path id="Vector" d="M831.61 166.18C833.34 171.97 823.08 180.49 808.68 185.22C794.29 189.95 781.19 189.09 779.46 183.3C777.72 177.51 787.99 169 802.38 164.26C816.78 159.53 829.87 160.39 831.61 166.18Z" fill="url(#paint_radial_70_1432_0)" fill-opacity="1.000000" fill-rule="nonzero"/>
	</g>
	<g opacity="0.250000">
		<path id="Vector" d="M853.55 143.31C854.1 145.56 850.02 148.59 844.42 150.09C838.84 151.59 833.85 150.98 833.31 148.74C832.76 146.49 836.84 143.46 842.44 141.96C848.04 140.46 853.01 141.06 853.55 143.31Z" fill="url(#paint_radial_70_1433_0)" fill-opacity="1.000000" fill-rule="nonzero"/>
	</g>
	<g opacity="0.250000">
		<path id="Vector" d="M641.04 154.67C641.59 156.92 637.51 159.95 631.91 161.45C626.32 162.95 621.34 162.35 620.79 160.1C620.25 157.85 624.32 154.82 629.93 153.32C635.51 151.82 640.49 152.43 641.04 154.67Z" fill="url(#paint_radial_70_1434_0)" fill-opacity="1.000000" fill-rule="nonzero"/>
	</g>
</svg>
