<svg width="142.000000" height="24.286133" viewBox="0 0 142 24.2861" fill="none" xmlns="http://www.w3.org/2000/svg" xmlns:xlink="http://www.w3.org/1999/xlink">
	<desc>
			Created with Pixso.
	</desc>
	<defs/>
	<path d="M138.83 6.67L138.83 11.25L132.44 11.25L132.44 6.67L129.29 6.67L129.29 18.79L132.44 18.79L132.44 13.89L138.83 13.89L138.83 18.79L142 18.79L142 6.67L138.83 6.67Z" fill="#FFFFFF" fill-opacity="1.000000" fill-rule="nonzero"/>
	<path d="" fill="#FFFFFF" fill-opacity="1.000000" fill-rule="nonzero"/>
	<path d="M48.84 4.48C47.36 4.48 46.42 5.25 45.73 6.77L41.63 15.87L37.52 6.77C36.83 5.25 35.89 4.48 34.41 4.48C33.03 4.48 31.6 5.44 31.6 7.5L31.6 18.79L34.74 18.79L34.74 7.82L38.88 16.86C39.44 18.12 40.33 18.92 41.63 18.92C42.92 18.92 43.81 18.12 44.37 16.86L48.51 7.82L48.51 18.79L51.65 18.79L51.65 7.51C51.65 5.44 50.22 4.48 48.84 4.48Z" fill="#FFFFFF" fill-opacity="1.000000" fill-rule="nonzero"/>
	<path d="M57.17 16.23C57.02 16.23 56.9 16.11 56.9 15.97L56.9 13.81L64.76 13.81L64.76 11.33L56.9 11.33L56.9 9.49C56.9 9.34 57.02 9.23 57.17 9.23L64.94 9.23L64.94 6.67L55.62 6.67C54.53 6.67 53.75 7.54 53.75 8.47L53.75 16.96C53.75 17.88 54.55 18.75 55.62 18.75L64.94 18.75L64.94 16.2L57.17 16.2L57.17 16.23Z" fill="#FFFFFF" fill-opacity="1.000000" fill-rule="nonzero"/>
	<path d="M70.29 18.79L70.29 9.5C70.29 9.36 70.41 9.24 70.56 9.24L78.34 9.24L78.34 6.68L69.01 6.68C67.92 6.68 67.15 7.56 67.15 8.48L67.15 18.79L70.29 18.79Z" fill="#FFFFFF" fill-opacity="1.000000" fill-rule="nonzero"/>
	<path d="" fill="#FFFFFF" fill-opacity="1.000000" fill-rule="nonzero"/>
	<path d="" fill="#FFFFFF" fill-opacity="1.000000" fill-rule="nonzero"/>
	<path d="" fill="#FFFFFF" fill-opacity="1.000000" fill-rule="nonzero"/>
	<path d="" fill="#FFFFFF" fill-opacity="1.000000" fill-rule="nonzero"/>
</svg>
