<svg width="291.000000" height="329.555176" viewBox="0 0 291 329.555" fill="none" xmlns="http://www.w3.org/2000/svg" xmlns:xlink="http://www.w3.org/1999/xlink">
	<desc>
			Created with Pixso.
	</desc>
	<defs>
		<clipPath id="clip70_2064">
			<rect id="Frame" rx="0.000000" width="253.669586" height="232.348495" transform="matrix(-0.985052 0.172259 0.172006 0.985096 251.363 56.3152)" fill="white" fill-opacity="0"/>
		</clipPath>
		<clipPath id="clip70_2110">
			<rect id="Frame" rx="0.000000" width="47.548008" height="49.172253" transform="matrix(-0.96259 0.270963 0.270582 0.962697 174.777 0.5)" fill="white" fill-opacity="0"/>
		</clipPath>
		<linearGradient x1="90.854713" y1="239.148285" x2="69.072563" y2="242.957397" id="paint_linear_70_2070_0" gradientUnits="userSpaceOnUse">
			<stop stop-color="#800BF5"/>
			<stop offset="1.000000" stop-color="#25C6F9"/>
		</linearGradient>
		<linearGradient x1="77.204758" y1="294.370758" x2="66.755882" y2="296.197998" id="paint_linear_70_2071_0" gradientUnits="userSpaceOnUse">
			<stop stop-color="#800BF5"/>
			<stop offset="1.000000" stop-color="#25C6F9"/>
		</linearGradient>
		<linearGradient x1="62.020573" y1="301.877106" x2="55.392136" y2="303.036255" id="paint_linear_70_2072_0" gradientUnits="userSpaceOnUse">
			<stop stop-color="#800BF5"/>
			<stop offset="1.000000" stop-color="#25C6F9"/>
		</linearGradient>
		<linearGradient x1="122.671494" y1="186.751923" x2="100.209549" y2="190.679932" id="paint_linear_70_2076_0" gradientUnits="userSpaceOnUse">
			<stop stop-color="#800BF5"/>
			<stop offset="1.000000" stop-color="#25C6F9"/>
		</linearGradient>
		<linearGradient x1="199.937012" y1="102.479622" x2="196.391251" y2="103.099678" id="paint_linear_70_2092_0" gradientUnits="userSpaceOnUse">
			<stop stop-color="#800BF5"/>
			<stop offset="1.000000" stop-color="#25C6F9"/>
		</linearGradient>
		<linearGradient x1="121.030380" y1="84.957748" x2="171.842346" y2="145.174088" id="paint_linear_70_2093_0" gradientUnits="userSpaceOnUse">
			<stop stop-color="#3D4A4A"/>
			<stop offset="0.510000" stop-color="#1C2222"/>
			<stop offset="1.000000" stop-color="#000000"/>
		</linearGradient>
		<linearGradient x1="134.693710" y1="104.565071" x2="142.216583" y2="165.102539" id="paint_linear_70_2094_0" gradientUnits="userSpaceOnUse">
			<stop stop-color="#3D4A4A"/>
			<stop offset="0.510000" stop-color="#1C2222"/>
			<stop offset="1.000000" stop-color="#000000"/>
		</linearGradient>
		<linearGradient x1="144.137314" y1="103.388977" x2="151.668945" y2="163.915314" id="paint_linear_70_2095_0" gradientUnits="userSpaceOnUse">
			<stop stop-color="#3D4A4A"/>
			<stop offset="0.510000" stop-color="#1C2222"/>
			<stop offset="1.000000" stop-color="#000000"/>
		</linearGradient>
		<linearGradient x1="257.560059" y1="122.312447" x2="244.920624" y2="124.522743" id="paint_linear_70_2096_0" gradientUnits="userSpaceOnUse">
			<stop stop-color="#800BF5"/>
			<stop offset="1.000000" stop-color="#25C6F9"/>
		</linearGradient>
		<linearGradient x1="208.773270" y1="156.723434" x2="176.456390" y2="162.374802" id="paint_linear_70_2097_0" gradientUnits="userSpaceOnUse">
			<stop stop-color="#800BF5"/>
			<stop offset="1.000000" stop-color="#25C6F9"/>
		</linearGradient>
		<linearGradient x1="87.940582" y1="212.674835" x2="74.571861" y2="215.012665" id="paint_linear_70_2102_0" gradientUnits="userSpaceOnUse">
			<stop stop-color="#800BF5"/>
			<stop offset="1.000000" stop-color="#25C6F9"/>
		</linearGradient>
		<linearGradient x1="74.578629" y1="207.648499" x2="60.493858" y2="210.111557" id="paint_linear_70_2103_0" gradientUnits="userSpaceOnUse">
			<stop stop-color="#800BF5"/>
			<stop offset="1.000000" stop-color="#25C6F9"/>
		</linearGradient>
		<linearGradient x1="144.774551" y1="205.221085" x2="115.093643" y2="210.411499" id="paint_linear_70_2105_0" gradientUnits="userSpaceOnUse">
			<stop stop-color="#800BF5"/>
			<stop offset="1.000000" stop-color="#25C6F9"/>
		</linearGradient>
		<linearGradient x1="78.656540" y1="135.527695" x2="53.032284" y2="140.008698" id="paint_linear_70_2108_0" gradientUnits="userSpaceOnUse">
			<stop stop-color="#800BF5"/>
			<stop offset="1.000000" stop-color="#25C6F9"/>
		</linearGradient>
		<linearGradient x1="82.887138" y1="119.269936" x2="75.441528" y2="120.571976" id="paint_linear_70_2109_0" gradientUnits="userSpaceOnUse">
			<stop stop-color="#800BF5"/>
			<stop offset="1.000000" stop-color="#25C6F9"/>
		</linearGradient>
		<linearGradient x1="186.654449" y1="44.035168" x2="139.922638" y2="57.189884" id="paint_linear_70_2115_0" gradientUnits="userSpaceOnUse">
			<stop stop-color="#5283FB"/>
			<stop offset="1.000000" stop-color="#0052C2"/>
		</linearGradient>
	</defs>
	<rect id="Frame" rx="0.000000" width="253.669586" height="232.348495" transform="matrix(-0.985052 0.172259 0.172006 0.985096 251.363 56.3152)" fill="#FFFFFF" fill-opacity="0"/>
	<g clip-path="url(#clip70_2064)">
		<path id="Vector" d="M200.35 230.4C208.54 231.46 220.98 235.75 229.05 233.94C243.14 207.93 249.87 172.76 251.01 143.21C243.27 139.95 231.58 138.25 223.2 137.51C217.85 168.55 210.49 200.58 200.35 230.4Z" fill="#12071D" fill-opacity="1.000000" fill-rule="nonzero"/>
		<path id="Vector" d="M37.56 314.82C43.33 318.32 49.92 320.09 56.67 320.84C60.19 321.24 63.77 321.34 67.32 321.27C77.6 321.07 86.88 319.51 97.17 319.57C97.54 317.48 97.9 315.38 98.27 313.3C101.18 296.82 104.3 280.2 108.01 263.93C109.36 263.89 110.22 263.91 111.58 263.87C111.8 262.43 111.32 260.97 111.54 259.53C125.2 259.37 138.87 258.58 152.48 257.19C143.94 245.35 131.67 234.29 119.36 226.02C118.45 225.41 117.54 224.82 116.64 224.23C110.13 223.49 102.97 223.2 95.97 223.32C91.14 223.4 86.37 223.67 81.97 224.13C76.25 229.53 70.46 237.95 69.97 242.27C70.33 247.74 70.66 253.17 70.98 258.59C71.55 268.06 72.07 277.49 72.7 287.02C72.22 287.32 71.73 287.66 71.26 288.03C69.24 289.53 67.36 291.48 65.89 293.48C65.72 293.7 65.55 293.92 65.41 294.13C64.18 294.61 62.94 295.07 61.68 295.51C59.24 296.32 56.72 297 54.18 297.48C50.89 298.13 47.55 298.47 44.22 298.44C41.19 300.64 38.98 304.1 37.98 307.84C37.35 310.14 37.18 312.54 37.57 314.82L37.56 314.82Z" fill="#CE9CFF" fill-opacity="1.000000" fill-rule="nonzero"/>
		<path id="Vector" d="M70.96 258.6C74.8 258.13 78.49 257.62 82.45 257.19C83.75 252.09 85.6 246.86 87.51 241.94C91.1 239.77 94.24 237.3 97.84 235.14C97.87 235.18 97.91 235.23 97.93 235.28C98.14 231.21 97.46 227.1 95.94 223.32C91.1 223.39 86.34 223.67 81.93 224.13C76.22 229.53 70.43 237.94 69.94 242.27C70.3 247.73 70.63 253.16 70.95 258.58L70.96 258.6Z" fill="url(#paint_linear_70_2070_0)" fill-opacity="1.000000" fill-rule="nonzero"/>
		<path id="Vector" d="M65.87 293.49C68.59 297.22 71.76 299.97 76.05 301.94C77.99 299.6 79.41 297.24 81.36 294.9C77.84 292.83 74.45 290.54 71.24 288.04C69.22 289.53 67.34 291.49 65.87 293.49Z" fill="url(#paint_linear_70_2071_0)" fill-opacity="1.000000" fill-rule="nonzero"/>
		<path id="Vector" d="M54.16 297.48C55.44 301.23 56.66 305.04 57.51 308.88C60.21 308.69 62.86 308.16 65.5 307.61C65.1 303.36 63.79 299.22 61.67 295.51C59.23 296.32 56.71 297.01 54.17 297.48L54.16 297.48Z" fill="url(#paint_linear_70_2072_0)" fill-opacity="1.000000" fill-rule="nonzero"/>
		<path id="Vector" d="M37.56 314.82C43.33 318.32 49.92 320.09 56.67 320.84C60.19 321.24 63.77 321.34 67.32 321.27C77.6 321.07 86.88 319.51 97.17 319.58C97.54 317.48 97.9 315.38 98.26 313.3C91.67 311.56 85.21 311.46 78.42 312.05C74.53 312.39 70.65 312.85 66.8 313.48C64.83 313.79 62.87 314.14 60.92 314.54C60.36 314.65 59.87 314.78 59.39 314.88C58.44 315.09 57.57 315.23 56.45 315.05C49.86 314.04 43.5 311.58 37.98 307.84C37.35 310.14 37.18 312.54 37.57 314.82L37.56 314.82Z" fill="#800BF5" fill-opacity="1.000000" fill-rule="nonzero"/>
		<g opacity="0.200000" style="mix-blend-mode:multiply">
			<path id="Vector" d="M56.66 320.84C60.18 321.24 63.76 321.34 67.31 321.27C77.59 321.07 86.87 319.51 97.16 319.58C97.53 317.49 97.89 315.38 98.26 313.3C101.17 296.82 104.29 280.2 108 263.93C109.35 263.9 110.21 263.91 111.57 263.87C111.79 262.43 111.31 260.98 111.53 259.53C125.19 259.37 138.87 258.58 152.47 257.2C143.93 245.35 131.67 234.29 119.35 226.02C111.52 226.72 103.76 228.4 96.33 231.04C89.6 250.6 85.27 271.16 83.35 291.75C83.1 294.48 81.48 296.82 79.23 298.39C76.99 299.97 74.43 301.01 72.03 302.34C66.78 305.26 62.38 309.67 59.37 314.88C58.27 316.77 57.36 318.77 56.67 320.84L56.66 320.84Z" fill="#800BF5" fill-opacity="1.000000" fill-rule="nonzero"/>
		</g>
		<path id="Vector" d="M79.29 167.29C85.15 174.37 91.6 180.89 98.63 186.63C103.21 190.39 108.05 193.82 113.12 196.85C113.91 197.32 117.65 195.7 118.55 195.44C123.13 194.14 127.65 192.62 132.14 190.98C133.75 190.39 135.35 189.78 136.94 189.16C142.5 186.99 148.42 185.04 153.12 181.12C157.74 177.25 161.22 171.37 160.99 165.08C160.85 161.22 159.03 157.38 156.2 154.91C154.95 153.82 153.88 153.24 152.84 153C150.92 152.55 149.12 153.27 146.59 154.09C142.1 155.52 137.7 157.29 133.47 159.4C132.21 160.04 122.09 166.82 121.62 166.5C111.38 159.4 101.01 153.67 89.96 148.11C84.82 153.23 80.87 159.99 79.28 167.31L79.29 167.29Z" fill="#CE9CFF" fill-opacity="1.000000" fill-rule="nonzero"/>
		<path id="Vector" d="M98.64 186.63C103.22 190.39 108.05 193.82 113.12 196.85C113.91 197.32 117.65 195.7 118.55 195.44C123.13 194.14 127.65 192.62 132.14 190.98C130.7 188.48 129.02 186.08 127.11 183.89C123.47 184.87 120.12 185.47 116.35 185.79C111.68 186.17 107.49 184.1 103.62 181.45C101.78 183.02 100.12 184.75 98.63 186.63L98.64 186.63Z" fill="url(#paint_linear_70_2076_0)" fill-opacity="1.000000" fill-rule="nonzero"/>
		<g opacity="0.200000" style="mix-blend-mode:multiply">
			<path id="Vector" d="M150.44 162.64C141.03 164.58 131.89 167.8 123.35 172.19C122.94 174.38 121.75 176.53 120.31 178.23C119.38 176.87 119.11 175.43 119.15 173.79C118.02 174.81 117.1 175.61 115.97 176.63C115.47 174.7 115.43 172.97 115.75 171C108.37 165.62 100.88 161.43 92.5 157.8C91.05 161.66 88.82 165.66 85.45 168.02C92.24 177.05 101.08 185.24 110.47 191.5C123.43 190.76 135.94 187.21 147.59 181.46C150.27 180.14 153.05 178.52 154.31 175.81C155.37 173.56 155.15 170.87 154.27 168.53C153.38 166.2 151.97 164.62 150.44 162.64Z" fill="#800BF5" fill-opacity="1.000000" fill-rule="nonzero"/>
		</g>
		<path id="Vector" d="M137.24 199.79C137.44 199.42 145.68 201.23 146.39 201.36C150.11 202.1 153.84 202.75 157.5 203.75C163.53 205.41 169.48 207.43 175.29 209.77C183.59 213.12 191.6 217.17 199.19 221.9C202.34 223.86 205.41 225.94 208.4 228.14C211.48 227.27 214.02 224.7 214.86 221.62C215.48 219.37 215.45 217.01 216.11 214.78C216.74 212.69 217.85 210.76 218.76 208.77C220.73 204.37 222.46 199.87 223.94 195.28C225.42 190.7 226.65 186.03 227.61 181.31C228.11 178.94 228.54 176.56 228.92 174.17C229.09 173.07 229.04 168 229.81 167.37C238.87 159.89 247.29 151.55 255.17 142.75C257.89 139.7 260.56 136.61 263.16 133.47C263.42 126.45 262.74 119.3 259.31 113.53C256 110.06 252.47 106.82 248.75 103.83C232.28 90.57 212.06 81.98 191.08 79.19C192.17 88.14 195.16 99.89 201.61 106.51C204.81 109.79 208.46 112.72 212.28 115.24C214.12 116.46 216.05 117.58 218.04 118.59C218.19 118.66 218.43 118.8 218.76 118.98C220.25 119.82 223.25 121.5 223.86 121.15C221.23 122.65 218.63 124.22 216.09 125.86C216.04 125.89 216.01 125.91 215.96 125.94C213.26 127.66 210.61 129.44 208 131.32C204.96 133.49 201.98 135.76 199.08 138.12C189.68 138.74 180.17 138.59 170.89 140.39C170.54 140.46 170.21 140.53 169.85 140.6C164.01 141.82 157.73 143.77 153.66 148C152.2 149.51 151.02 151.32 150.24 153.5C149.2 156.42 148.77 159.53 148.25 162.58C146.15 174.93 143.2 188.71 137.23 199.79L137.24 199.79Z" fill="#CE9CFF" fill-opacity="1.000000" fill-rule="nonzero"/>
		<g opacity="0.300000" style="mix-blend-mode:multiply">
			<path id="Vector" d="M165.71 151.83C167.62 155.6 173.95 155.81 177.56 155.42C186.56 154.48 195.85 149.58 203.16 144.47C205.67 142.71 208.59 140.6 211.01 138.12C214.12 134.96 216.45 131.19 216.26 126.76C216.24 126.43 216.18 126.14 216.1 125.86C216.05 125.88 216.02 125.91 215.97 125.94C213.27 127.66 210.62 129.44 208.01 131.32C204.97 133.49 201.99 135.76 199.09 138.12C189.69 138.74 180.18 138.59 170.9 140.39C170.55 140.45 170.22 140.53 169.86 140.6C168.8 141.82 167.85 143.13 167 144.49C165.63 146.69 164.55 149.5 165.71 151.83Z" fill="#800BF5" fill-opacity="1.000000" fill-rule="nonzero"/>
		</g>
		<g opacity="0.200000" style="mix-blend-mode:multiply">
			<path id="Vector" d="M199.19 221.91C202.34 223.87 205.41 225.95 208.4 228.15C211.48 227.28 214.02 224.71 214.87 221.63C215.48 219.38 215.45 217.01 216.11 214.79C216.74 212.7 217.86 210.77 218.76 208.78C220.74 204.38 222.46 199.88 223.94 195.29C225.43 190.71 226.65 186.04 227.62 181.32C228.12 178.95 228.54 176.57 228.92 174.18C229.09 173.08 229.05 168.01 229.81 167.38C238.87 159.9 247.29 151.56 255.17 142.75C257.89 139.71 260.56 136.62 263.16 133.48C263.42 126.46 262.74 119.31 259.32 113.54C256 110.07 252.48 106.83 248.75 103.84C232.28 90.57 212.06 81.98 191.08 79.19C192.17 88.14 195.16 99.89 201.61 106.51C204.81 109.79 208.46 112.72 212.28 115.24C214.12 116.46 216.05 117.58 218.04 118.59C218.19 118.66 218.43 118.8 218.76 118.98C225.07 116.95 232.17 117.56 238.04 120.64C235.55 120.9 233.3 122.15 231.09 123.33C233.23 125.12 235.48 128.3 236.71 130.81C235.78 130.72 235.07 131.05 234.15 130.95C228.45 138.45 222.37 145.66 216.01 152.62C214.7 151.7 214.11 150.93 212.8 150.01C212.88 153.38 212.8 156.99 213.37 160.32C214.01 163.98 215.29 167.36 215.36 171.13C215.48 177.49 213.16 183.94 211.1 189.87C209.04 195.78 205.97 201.4 204.86 207.57C204.28 210.73 204.21 214.04 202.9 216.97C202.05 218.87 200.71 220.47 199.19 221.92L199.19 221.91Z" fill="#800BF5" fill-opacity="1.000000" fill-rule="nonzero"/>
		</g>
		<path id="Vector" d="M127.77 126.68C129.33 131.24 131.6 135.58 134.43 139.49C139.96 147.1 147.63 152.66 157.15 153.63C159.45 153.87 161.77 153.87 164.07 153.71C169.7 153.32 175.27 151.91 180.64 150.24C181.57 149.97 182.49 149.67 183.4 149.38C192.05 146.58 199.63 140.61 204.36 132.86C212.3 119.86 211.35 103.4 203.61 90.75C202.03 88.16 200.17 85.74 198.04 83.53C197.53 83 197 82.49 196.47 82C194.77 80.41 192.94 78.98 191.03 77.74C186.74 74.95 182 73.02 177.08 71.97C167.83 69.99 157.92 71.05 149.03 75.21C148.24 75.58 147.48 75.96 146.72 76.37C138.6 80.77 130.7 87.98 127.69 96.89C127.69 96.92 127.68 96.97 127.66 97C127.51 97.47 127.36 97.95 127.23 98.42C127.14 98.67 127.08 98.92 127.01 99.17C124.52 108.15 124.75 117.87 127.77 126.7L127.77 126.68Z" fill="#CE9CFF" fill-opacity="1.000000" fill-rule="nonzero"/>
		<g opacity="0.200000" style="mix-blend-mode:multiply">
			<path id="Vector" d="M180.44 148.83C180.5 149.28 180.56 149.76 180.65 150.23C181.58 149.96 182.5 149.66 183.41 149.37C192.06 146.57 199.64 140.6 204.37 132.85C212.31 119.84 211.35 103.39 203.62 90.73C201.48 87.65 199.13 84.72 196.48 81.98C196.33 81.82 196.18 81.67 196.02 81.51C194.55 80.03 192.9 78.57 191.04 77.73C190.26 77.38 189.43 77.15 188.55 77.06C183.96 76.65 180.06 80.95 179.12 85.47C178.16 89.96 179.32 94.62 180.17 99.14C181.86 108.18 182.33 117.45 181.57 126.62C180.95 134.02 179.53 141.46 180.44 148.83Z" fill="#800BF5" fill-opacity="1.000000" fill-rule="nonzero"/>
		</g>
		<path id="Vector" d="M127.77 126.68C129.33 131.24 131.6 135.58 134.43 139.49C139.96 147.1 147.63 152.66 157.15 153.63C159.45 153.87 161.77 153.87 164.07 153.71C168.17 153.29 172.22 152.28 176 150.64C184.75 146.86 192.05 139.75 195.82 131C199.59 122.25 199.71 111.95 195.9 103.22C179.55 91.36 158.25 87.89 138.89 93.66C134.68 94.91 130.56 96.61 127 99.16C124.51 108.14 124.74 117.87 127.76 126.69L127.77 126.68Z" fill="#38217B" fill-opacity="1.000000" fill-rule="nonzero"/>
		<path id="Vector" d="M189.07 100.77C169.78 88.87 152.22 92.22 144.88 93.92C136.8 95.8 130.24 98.87 125.78 104.93L125.5 107.37L123.11 106.41C123.11 106.41 132.51 88.62 165.75 90.96C173.42 91.48 182.22 95.32 188.9 99.43L189.06 100.79L189.07 100.77Z" fill="#14063D" fill-opacity="1.000000" fill-rule="nonzero"/>
		<path id="Vector" d="M165.76 90.95C132.52 88.62 123.12 106.39 123.12 106.39L125.4 97.17C125.4 97.17 139.3 83.47 162.99 86.58C177.61 88.5 189.24 96.1 189.24 96.1L188.9 99.41C182.22 95.3 173.42 91.46 165.76 90.94L165.76 90.95Z" fill="#800BF5" fill-opacity="1.000000" fill-rule="nonzero"/>
		<path id="Vector" d="M196.72 114.48C196.77 126.13 191.3 137.03 182.24 144.35C173.18 151.68 160.68 154.17 149.3 151.66C149.07 152.09 149.07 152.67 148.84 153.09C156.03 153.92 163.93 154.6 170.87 152.54C178.42 150.28 184.87 145 189.35 138.49C198.71 126.3 197.75 115.09 197.75 115.09L196.71 114.48L196.72 114.48Z" fill="#14063D" fill-opacity="1.000000" fill-rule="nonzero"/>
		<path id="Vector" d="M170.88 152.54C178.43 150.28 184.88 145 189.36 138.49C198.72 126.3 197.75 115.09 197.75 115.09L197.19 114.75L199.67 115.49C201.32 126.61 196.44 138.26 187.93 145.6C179.41 152.94 167.66 156.07 156.49 154.91C153.94 154.65 151.29 153.84 148.85 153.09C156.04 153.91 163.94 154.6 170.88 152.54Z" fill="#800BF5" fill-opacity="1.000000" fill-rule="nonzero"/>
		<path id="Vector" d="M192.46 110.23C192.52 110.31 192.56 110.39 192.62 110.47C194.68 113.47 200.48 118.61 204.03 114.12C204.21 113.9 204.37 113.67 204.5 113.42C205.27 112.07 205.48 110.47 205.52 108.94C205.6 104.41 204.25 99.65 201.48 95.97C199.76 93.68 196.53 90.45 193.2 91.51C192.9 91.6 192.6 91.73 192.3 91.9C186.22 95.33 189.69 106.01 192.46 110.23Z" fill="#14063D" fill-opacity="1.000000" fill-rule="nonzero"/>
		<path id="Vector" d="M192.47 110.23C192.52 110.31 192.56 110.39 192.62 110.47C194.68 113.47 200.48 118.61 204.03 114.12C204.21 113.9 204.37 113.67 204.5 113.42C202.75 114.62 200.34 114.57 198.42 113.69C196.48 112.8 194.97 111.18 193.83 109.39C191.16 105.27 190.2 100.06 191.23 95.23C191.53 93.84 192.09 92.35 193.21 91.51C192.91 91.6 192.61 91.73 192.31 91.9C186.23 95.33 189.7 106.01 192.48 110.23L192.47 110.23Z" fill="#800BF5" fill-opacity="1.000000" fill-rule="nonzero"/>
		<path id="Vector" d="M197.31 105.65C197.94 106.77 199.87 108.26 200.97 106.97C202.06 105.68 201.51 103.17 201.06 101.76C200.63 100.4 199.74 99.12 198.57 98.28C198.18 98 197.67 97.83 197.2 97.94C195.84 98.26 195.7 100.79 196.06 101.82C195.97 101.22 196.06 100.6 196.22 100.01C196.38 99.43 196.84 98.88 197.45 98.81C198.17 98.74 198.78 99.36 199.19 99.97C200.05 101.26 200.63 102.74 200.85 104.28C200.95 105.08 200.93 106.01 200.29 106.5C199.85 106.84 199.23 106.87 198.72 106.65C198.21 106.45 197.6 106.11 197.31 105.64L197.31 105.65Z" fill="url(#paint_linear_70_2092_0)" fill-opacity="1.000000" fill-rule="nonzero"/>
		<g style="mix-blend-mode:screen">
			<path id="Vector" d="M126.91 106.47C125.91 115.5 128.96 131.37 138.27 141.32C142.92 145.03 149.69 145.55 155.15 143.19C160.61 140.82 164.73 135.86 166.73 130.26C168.74 124.66 168.75 118.47 167.49 112.65C166.23 106.84 163.74 101.35 160.85 96.16C148.55 94.6 135.34 97.55 126.91 106.46L126.91 106.47Z" fill="url(#paint_linear_70_2093_0)" fill-opacity="1.000000" fill-rule="nonzero"/>
		</g>
		<g style="mix-blend-mode:screen">
			<path id="Vector" d="M143.93 128.14C143.6 129.51 143.14 130.95 142.03 131.81C140.95 132.65 139.44 132.76 138.13 132.37C136.82 131.98 135.69 131.15 134.67 130.25C131.67 127.59 129.4 124.12 128.16 120.3C127.18 117.25 126.86 113.92 127.68 110.82C128.51 107.72 130.59 104.89 133.51 103.54C146.71 97.44 145.57 121.32 143.93 128.15L143.93 128.14Z" fill="url(#paint_linear_70_2094_0)" fill-opacity="1.000000" fill-rule="nonzero"/>
		</g>
		<g style="mix-blend-mode:screen">
			<path id="Vector" d="M143.34 143.87C138.25 137.27 150.35 135.06 153.85 139.94C155.59 142.36 157.94 147.27 153.42 147.83C150.04 148.25 145.41 146.57 143.34 143.88L143.34 143.87Z" fill="url(#paint_linear_70_2095_0)" fill-opacity="1.000000" fill-rule="nonzero"/>
		</g>
		<path id="Vector" d="M246.2 134.67C248.31 138.08 251.53 140.85 255.15 142.75C257.87 139.71 260.54 136.61 263.14 133.47C263.4 126.45 262.72 119.31 259.3 113.54C255.98 110.07 252.46 106.82 248.73 103.83C246.01 105.19 243.68 107.33 242.1 109.95C241.63 110.74 244.83 115.54 245.41 116.26C246.77 118 247.7 119.24 248.25 121.51C249.3 125.94 248.59 130.8 246.2 134.68L246.2 134.67Z" fill="url(#paint_linear_70_2096_0)" fill-opacity="1.000000" fill-rule="nonzero"/>
		<path id="Vector" d="M182.26 165.41C185.15 160.83 192.86 157.85 194.81 164.81C195.25 166.4 195.5 168.2 195.56 170.1C197.74 169.3 199.92 168.5 202.11 167.7C202.45 167.57 202.82 167.43 202.95 167.1C203.07 166.83 202.98 166.52 202.9 166.23C201.48 161.03 200.29 156.14 198.85 150.95C202.13 144.63 204.43 137.51 208 131.31C210.6 129.44 213.25 127.65 215.96 125.93C210.47 133.67 205.85 142.03 202.24 150.78C203.17 156.55 204.69 162.55 206.45 168.12C202.88 170.11 199.38 171.95 195.48 173.12C195.16 177.61 193.84 182.29 191.49 185.78C190.7 186.97 189.78 188.02 188.74 188.88C185.51 191.54 181.94 190.3 180.2 186.8C176.85 180.1 178.27 171.74 182.26 165.41Z" fill="url(#paint_linear_70_2097_0)" fill-opacity="1.000000" fill-rule="nonzero"/>
		<path id="Vector" d="M186.14 178.32C186.09 178.39 186.03 178.45 185.98 178.52C185.68 178.87 185.27 179.19 184.78 179.22C184.32 179.25 183.9 179.01 183.6 178.69C180.86 175.69 181.7 170.16 184.05 167.15C185.03 165.9 186.89 164.76 188.07 166.36C189.08 167.71 188.95 170.13 188.78 171.69C188.53 174.01 187.64 176.4 186.13 178.33L186.14 178.32Z" fill="#14063D" fill-opacity="1.000000" fill-rule="nonzero"/>
		<path id="Vector" d="M62.29 231.82C65.13 234.09 68.16 236.16 71.4 237.83C72.07 236.81 72.74 235.83 73.41 234.87C76.04 231.09 78.75 227.76 81.94 224.14C84.66 223.77 87.36 223.5 90.06 223.32C98.12 222.78 106.11 223.02 114.26 223.88C120.93 233.42 128.7 241.64 136.69 250.05C144.84 258.64 153.39 262.31 165.19 262.85C176.19 263.37 187.96 260.78 195.32 251.99C200.01 246.39 203.76 240 206.41 233.19C207.13 231.32 207.78 229.4 208.32 227.47C208.68 226.26 209.01 225.05 209.28 223.82C193.18 212.82 175.15 205.47 155.98 202.27C154.94 202.1 153.88 201.93 152.84 201.79C149.25 198.42 145.6 195.52 141.37 193.02C138 191.04 134.7 190.62 130.85 190.01C127.5 190.71 124.2 191.63 120.94 192.75C111.07 196.14 101.63 201.25 92.59 206.53C92.41 206.53 92.22 206.52 92.04 206.52C89.23 206.44 86.71 206.09 83.93 205.98C83.64 205.97 83.36 205.97 83.06 205.96C81.83 205.04 80.57 204.14 79.29 203.3C77.26 201.91 75.17 200.62 73.03 199.43C70.01 197.72 66.89 196.21 63.67 194.9C60.8 193.73 56.89 194.78 54.25 196.23C50.88 198.1 49.63 201.29 49.21 204.76C49.07 205.93 49.02 207.13 49.01 208.33C48.96 218.33 54.77 225.85 62.28 231.81L62.29 231.82Z" fill="#CE9CFF" fill-opacity="1.000000" fill-rule="nonzero"/>
		<g opacity="0.200000" style="mix-blend-mode:multiply">
			<path id="Vector" d="M90.07 223.32C98.13 222.77 106.12 223.02 114.27 223.88C120.94 233.42 128.71 241.64 136.7 250.05C144.85 258.64 153.39 262.31 165.2 262.85C176.2 263.37 187.97 260.78 195.33 251.98C200.02 246.39 203.77 240 206.42 233.19C207.14 231.32 207.79 229.4 208.33 227.47C204.93 225.34 201.05 223.79 198.18 221.01C196.05 223.91 192.42 225.41 188.85 225.77C185.27 226.12 180.99 225.57 177.46 224.91C172.02 217.05 164.64 210.68 156.39 205.84C151.86 209.51 146.95 212.72 141.92 215.67C124.67 210.25 105.02 213.18 90.05 223.3L90.07 223.32Z" fill="#800BF5" fill-opacity="1.000000" fill-rule="nonzero"/>
		</g>
		<path id="Vector" d="M152.85 201.8C155.47 205.01 156.08 205.35 158.6 208.76C168.52 210.09 177.93 214.07 186.54 219.17C193.53 223.31 200.03 228.19 206.43 233.2C207.6 230.15 208.57 227.02 209.29 223.83C192.32 212.22 173.19 204.69 152.85 201.8Z" fill="#800BF5" fill-opacity="1.000000" fill-rule="nonzero"/>
		<path id="Vector" d="M74.9 219.88C76.97 221.17 79.2 221.53 81.62 221.16C83.4 215.91 86.76 211 92.06 206.52C89.25 206.45 86.74 206.1 83.95 205.98C78.42 209.41 75.55 214.48 74.9 219.88Z" fill="url(#paint_linear_70_2102_0)" fill-opacity="1.000000" fill-rule="nonzero"/>
		<path id="Vector" d="M60.5 213.23C62.57 215.22 64.74 216.42 67.43 217.37C70.73 212.15 74.19 206.75 79.29 203.31C77.27 201.92 75.18 200.63 73.03 199.43C67.97 202.92 63.35 207.88 60.49 213.24L60.5 213.23Z" fill="url(#paint_linear_70_2103_0)" fill-opacity="1.000000" fill-rule="nonzero"/>
		<path id="Vector" d="M62.29 231.82C65.13 234.09 68.16 236.16 71.4 237.83C72.06 236.81 72.73 235.83 73.41 234.87C71.32 233.87 69.32 232.7 67.43 231.4C63.45 228.65 59.91 225.27 57 221.41C53.31 216.47 50.66 210.76 49.23 204.75C49.09 205.92 49.04 207.13 49.02 208.33C48.98 218.33 54.79 225.85 62.3 231.81L62.29 231.82Z" fill="#800BF5" fill-opacity="1.000000" fill-rule="nonzero"/>
		<path id="Vector" d="M114.95 201.16C116.25 197.94 118.41 195.13 120.96 192.76C124.22 191.64 127.52 190.72 130.87 190.02C134.73 190.62 138.01 191.05 141.39 193.03C145.62 195.52 149.28 198.42 152.86 201.79C154.53 203.84 155.38 204.72 156.44 205.97C153.74 213.16 148.7 220.24 141.63 223.39C137.02 219.94 131.32 216.91 125.91 214.9C122.4 213.59 118.95 214.2 115.24 213.8C113.04 209.82 113.26 205.35 114.95 201.15L114.95 201.16Z" fill="url(#paint_linear_70_2105_0)" fill-opacity="1.000000" fill-rule="nonzero"/>
		<path id="Vector" d="M64.78 158.42C67.41 164.02 79.11 170.06 84.41 164.92C86.53 162.87 87.46 159.92 88.33 157.11C89.42 153.57 90.52 149.94 90.48 146.22C90.38 138.45 85.03 131.5 84.67 123.75C85.31 122.59 85.6 121.31 86.25 120.17C85.69 119.66 84.77 119.04 84.23 118.51C84.12 116.01 84.29 113.5 84.72 111.02C84.57 110.9 84.42 110.78 84.27 110.67C82.95 109.73 81.33 109.18 79.81 109.73C77.98 112.47 76.94 115.47 75.99 118.63C75.21 121.17 76.97 124.29 77.41 126.91C77.03 126.99 76.67 127.08 76.3 127.18C72 128.17 68.12 129.39 64.01 131.16C61.1 132.41 62.28 136.91 62.49 140.06C62.77 144.11 63.1 148.14 63.46 152.16C63.66 154.3 63.87 156.49 64.78 158.42Z" fill="#800BF5" fill-opacity="1.000000" fill-rule="nonzero"/>
		<path id="Vector" d="M53.42 144.86C53.74 146.66 54.68 148.27 55.95 149.58C56.64 149.66 57.33 149.78 58.01 149.86C59.12 152.44 60.1 155.28 60.86 157.98C60.64 158.37 60.62 159.02 60.41 159.41C60.64 160.59 60.81 161.57 61.06 162.74C61.88 163.17 62.79 163.54 63.7 163.78C64.87 164.09 66.09 164.19 67.26 163.98C69.74 163.55 71.5 161.82 73.62 160.64C76.01 159.3 78.41 157.99 80.81 156.66C81.07 154.94 80.75 153.48 80.05 151.93C81.05 151.52 81.88 150.67 82.38 149.71C82.2 147.76 81.85 145.84 81.31 143.96C81.19 143.55 81.07 143.11 80.76 142.79C80.17 142.18 79.28 142.28 78.53 142.28C78.43 141.4 78.67 140.58 78.65 139.7C78.6 138.43 78.19 137.05 77.92 135.81C77.84 135.41 77.73 135 77.43 134.74C77.16 134.51 76.79 134.46 76.44 134.41C75.09 134.22 73.79 133.91 72.48 133.67C73.24 132.52 73.63 131.18 73.53 129.8C73.35 127.52 72.7 126.2 70.26 125.98C69.16 125.89 67.97 125.87 67.14 125.14C65.99 124.13 65.1 123.49 63.68 122.95C63.48 123.03 63.29 123.1 63.1 123.2C57.13 125.77 52.97 131.06 51.77 137.5C51.5 139.01 52.66 140.35 53.58 141.63C53.63 141.7 53.69 141.77 53.74 141.85C54.01 141.88 54.61 142.05 54.88 142.08C54.96 142.23 55.01 142.45 55.02 142.67C55.04 142.91 55 143.15 54.91 143.34C54.57 143.99 53.97 144.36 53.45 144.87L53.42 144.86Z" fill="#14063D" fill-opacity="1.000000" fill-rule="nonzero"/>
		<path id="Vector" d="M53.67 141.62C53.64 141.63 53.56 141.62 53.56 141.62L53.56 141.63C53.47 141.51 53.38 141.38 53.28 141.25C52.42 140.1 51.51 138.87 51.76 137.52C52.94 131.06 57.1 125.78 63.08 123.2C63.23 123.42 63.36 123.68 63.48 123.97L63.47 123.98C63.43 124.23 63.38 124.48 63.33 124.72C62.94 126.58 62.72 128.5 62.68 130.41C57.73 134.61 55.02 139.13 53.67 141.62ZM55.01 142.66C55.02 142.91 54.98 143.16 54.9 143.33C54.66 143.79 54.29 144.11 53.91 144.44C53.75 144.57 53.59 144.71 53.43 144.86C53.75 146.66 54.7 148.27 55.96 149.58C56.19 149.61 56.42 149.64 56.65 149.68C57.11 149.74 57.56 149.81 58.02 149.86C59.14 152.43 60.12 155.28 60.87 157.98C60.76 158.17 60.71 158.42 60.65 158.68C60.58 158.95 60.52 159.21 60.41 159.41C60.51 159.9 60.6 160.36 60.69 160.82C60.81 161.44 60.92 162.06 61.07 162.73C61.89 163.17 62.79 163.54 63.71 163.78C67.2 163.22 70.36 161.41 73.1 159.17C72.57 157.68 72.01 155.95 72.05 154.38C69.81 155.49 67.46 156.85 65.6 158.53C67.07 155.75 69.28 153.13 71.97 151.5C71.73 148.92 70.99 146.29 69.96 143.92C67.69 145.25 65.23 146.33 62.8 147.4C62.21 147.66 61.63 147.91 61.05 148.17C63.55 145.87 66.3 143.85 69.23 142.12C68.28 139.17 66.52 136.5 64.21 134.45C62.65 135.8 61 137.28 59.35 138.78C57.89 140.09 56.42 141.42 55.01 142.66Z" fill="url(#paint_linear_70_2108_0)" fill-opacity="1.000000" fill-rule="evenodd"/>
		<path id="Vector" d="M77.42 126.91C76.99 124.29 75.22 121.17 76 118.63C76.96 115.46 77.99 112.47 79.82 109.73C81.34 109.18 82.96 109.73 84.28 110.67C83.83 112.23 83.31 113.68 83.16 115.34C82.96 117.21 82.95 119.11 82.89 121C82.8 123.14 82.65 125.32 82.04 127.39C81.88 127.95 81.67 128.51 81.28 128.95C80.5 129.89 79.14 130.09 77.92 130.22C77.39 129.2 76.85 128.18 76.3 127.18C76.67 127.08 77.03 127 77.41 126.91L77.42 126.91Z" fill="url(#paint_linear_70_2109_0)" fill-opacity="1.000000" fill-rule="evenodd"/>
	</g>
	<rect id="Frame" rx="0.000000" width="47.548008" height="49.172253" transform="matrix(-0.96259 0.270963 0.270582 0.962697 174.777 0.5)" fill="#FFFFFF" fill-opacity="0"/>
	<g clip-path="url(#clip70_2110)">
		<path id="Vector" d="M186.45 43.68C186.45 43.68 154.57 5.96 152.11 6.23C149.66 6.51 139.92 56.78 139.92 56.78L186.45 43.68Z" fill="#49CBF4" fill-opacity="1.000000" fill-rule="evenodd"/>
		<path id="Vector" d="M185.95 43.14C182.08 39.86 147.1 49.08 140.46 55.95C133.36 63.3 194.39 50.3 185.95 43.14Z" fill="url(#paint_linear_70_2115_0)" fill-opacity="1.000000" fill-rule="evenodd"/>
		<path id="Vector" d="M183.35 44.03C179.95 41.22 148.99 49.4 143.09 55.36C136.77 61.74 190.75 50.13 183.35 44.03Z" fill="#14063D" fill-opacity="1.000000" fill-rule="evenodd"/>
		<g opacity="0.200000" style="mix-blend-mode:normal">
			<path id="Vector" d="M183.76 44.44C184.9 44.74 180.44 49.61 172.51 51.88C164.59 54.14 153.35 51.81 152.11 51.36C150.86 50.9 173.48 41.71 183.76 44.44L183.76 44.44Z" fill="#49CBF4" fill-opacity="1.000000" fill-rule="evenodd"/>
		</g>
		<path id="Vector" d="M180.92 37.2C180.92 37.2 165.49 24.37 145.2 31.11L144.27 35.47C144.27 35.47 158 26.43 184.01 40.82L180.92 37.2Z" fill="#800BF5" fill-opacity="1.000000" fill-rule="evenodd"/>
		<path id="Vector" d="M166.81 45.06C166.81 45.06 153.84 40.52 142.63 43.28L141.7 47.84C141.7 47.84 149.18 44.32 158.66 47.31L166.81 45.06Z" fill="#800BF5" fill-opacity="1.000000" fill-rule="evenodd"/>
		<path id="Vector" d="M170.45 25.13C170.45 25.13 159.3 17.83 147.73 19.99L148.94 15.99C148.94 15.99 155.1 13.28 165.43 19.49L170.45 25.13Z" fill="#800BF5" fill-opacity="1.000000" fill-rule="evenodd"/>
		<g opacity="0.500000" style="mix-blend-mode:soft-light">
			<path id="Vector" d="M181.66 39.83C182.24 40.85 162.01 46.64 156.39 44.64C150.78 42.64 151.74 9.69 152 7.69C152.25 5.69 175.94 29.87 181.66 39.83Z" fill="#FFFFFF" fill-opacity="1.000000" fill-rule="evenodd"/>
		</g>
		<g opacity="0.400000" style="mix-blend-mode:multiply">
			<path id="Vector" d="M150.5 9.62C150.78 8.78 153.59 31.21 152.17 38.21C150.77 45.22 143.02 49.79 143.02 49.79C143.02 49.79 145.67 24.32 150.5 9.62Z" fill="#B57CBA" fill-opacity="1.000000" fill-rule="evenodd"/>
		</g>
		<path id="Vector" d="M168.33 29.34C169.8 30.19 167.44 26.74 165.92 25.87C164.4 25 164.17 26.94 168.33 29.34Z" fill="#FFFFFF" fill-opacity="1.000000" fill-rule="evenodd"/>
		<path id="Vector" d="M178.21 42.58C178.21 42.58 175.19 39.4 173.95 39.13C172.71 38.86 173.87 43.48 173.87 43.48L178.2 42.59L178.21 42.58Z" fill="#FFFFFF" fill-opacity="1.000000" fill-rule="evenodd"/>
	</g>
</svg>
