<svg width="140.757812" height="178.187744" viewBox="0 0 140.758 178.188" fill="none" xmlns="http://www.w3.org/2000/svg" xmlns:xlink="http://www.w3.org/1999/xlink">
	<desc>
			Created with Pixso.
	</desc>
	<defs>
		<filter id="filter_70_1376_dd" x="0.000000" y="0.000000" width="140.757812" height="178.187744" filterUnits="userSpaceOnUse" color-interpolation-filters="sRGB">
			<feFlood flood-opacity="0" result="BackgroundImageFix"/>
			<feColorMatrix in="SourceAlpha" type="matrix" values="0 0 0 0 0 0 0 0 0 0 0 0 0 0 0 0 0 0 127 0" result="hardAlpha"/>
			<feOffset dx="0" dy="0"/>
			<feGaussianBlur stdDeviation="8"/>
			<feComposite in2="hardAlpha" operator="out" k2="-1" k3="1"/>
			<feColorMatrix type="matrix" values="0 0 0 0 0 0 0 0 0 0.56863 0 0 0 0 0.74902 0 0 0 1 0"/>
			<feBlend mode="normal" in2="BackgroundImageFix" result="effect_dropShadow_1"/>
			<feBlend mode="normal" in="SourceGraphic" in2="effect_dropShadow_1" result="shape"/>
		</filter>
		<linearGradient x1="70.274063" y1="85.090546" x2="27.372641" y2="54.013287" id="paint_linear_70_1376_0" gradientUnits="userSpaceOnUse">
			<stop stop-color="#0094D3"/>
			<stop offset="1.000000" stop-color="#00FFFF"/>
		</linearGradient>
	</defs>
	<g filter="url(#filter_70_1376_dd)">
		<path id="Vector 37" d="M44.73 154.08C46.64 153.75 48.46 152.79 49.93 151.63C52.41 149.68 52 144.09 51.91 141.27C51.9 140.88 51.89 137.41 52.14 137.57C53.15 138.25 54.15 139.55 54.78 140.55C56.04 142.56 57.57 144.77 59.19 146.46C61.41 148.75 64.25 150.38 67.55 149.08C69.2 148.43 70.71 148.02 71.84 146.55C72.95 145.13 73.32 143.46 73.62 141.71C73.93 139.91 74.15 138.15 74.3 136.35C74.37 135.52 74.36 134.77 74.5 133.94C74.57 133.56 74.63 133.18 74.7 132.8C74.75 132.53 74.62 131.83 74.84 131.99C75.39 132.4 75.92 133.48 76.41 134.03C91.94 153.52 95.17 139.14 94.84 129.52C94.83 129.32 94.62 127.26 94.92 127.3C95.6 127.38 97.14 129.08 97.83 129.46C116.98 142.96 117.98 124.65 116.08 113.81C110.42 77.42 89.26 9.09 49.93 26.9C13.46 43.42 22.83 107.58 33.88 144.24C35.42 149.34 39.48 155 44.73 154.08Z" fill="url(#paint_linear_70_1376_0)" fill-opacity="1.000000" fill-rule="evenodd"/>
	</g>
	<circle id="Ellipse 1887" r="3.852038" transform="matrix(-0.965926 0.258819 0.258819 0.965926 44.3184 73.4584)" fill="#14063D" fill-opacity="1.000000"/>
	<circle id="Ellipse 1889" r="3.852038" transform="matrix(-0.965926 0.258819 0.258819 0.965926 69.0293 67.8121)" fill="#14063D" fill-opacity="1.000000"/>
	<ellipse id="Ellipse 1890" rx="4.500000" ry="5.000000" transform="matrix(-1 0 0 1 61.5234 90.6387)" fill="#14063D" fill-opacity="1.000000"/>
</svg>
