<svg width="281.076172" height="282.998535" viewBox="0 0 281.076 282.999" fill="none" xmlns="http://www.w3.org/2000/svg" xmlns:xlink="http://www.w3.org/1999/xlink">
	<desc>
			Created with Pixso.
	</desc>
	<defs>
		<filter id="filter_70_1533_dd" x="0.000000" y="0.000000" width="281.076172" height="282.998535" filterUnits="userSpaceOnUse" color-interpolation-filters="sRGB">
			<feFlood flood-opacity="0" result="BackgroundImageFix"/>
			<feColorMatrix in="SourceAlpha" type="matrix" values="0 0 0 0 0 0 0 0 0 0 0 0 0 0 0 0 0 0 127 0" result="hardAlpha"/>
			<feOffset dx="0" dy="0"/>
			<feGaussianBlur stdDeviation="19.7027"/>
			<feComposite in2="hardAlpha" operator="out" k2="-1" k3="1"/>
			<feColorMatrix type="matrix" values="0 0 0 0 1 0 0 0 0 0.82745 0 0 0 0 0.34902 0 0 0 1 0"/>
			<feBlend mode="normal" in2="BackgroundImageFix" result="effect_dropShadow_1"/>
			<feBlend mode="normal" in="SourceGraphic" in2="effect_dropShadow_1" result="shape"/>
		</filter>
		<filter id="filter_70_1535_dd" x="29.527344" y="29.396484" width="222.169922" height="224.047852" filterUnits="userSpaceOnUse" color-interpolation-filters="sRGB">
			<feFlood flood-opacity="0" result="BackgroundImageFix"/>
			<feColorMatrix in="SourceAlpha" type="matrix" values="0 0 0 0 0 0 0 0 0 0 0 0 0 0 0 0 0 0 127 0" result="hardAlpha"/>
			<feOffset dx="0" dy="0"/>
			<feGaussianBlur stdDeviation="9.19461"/>
			<feComposite in2="hardAlpha" operator="out" k2="-1" k3="1"/>
			<feColorMatrix type="matrix" values="0 0 0 0 1 0 0 0 0 0.82745 0 0 0 0 0.34902 0 0 0 1 0"/>
			<feBlend mode="normal" in2="BackgroundImageFix" result="effect_dropShadow_1"/>
			<feBlend mode="normal" in="SourceGraphic" in2="effect_dropShadow_1" result="shape"/>
		</filter>
	</defs>
	<g filter="url(#filter_70_1533_dd)">
		<path id="Vector" d="M130.39 223.89C129.58 223.89 128.75 223.81 127.93 223.63C123.36 222.7 119.77 219.31 118.57 214.8L107.59 173.29L67.16 158.81C62.77 157.23 59.72 153.37 59.18 148.74C58.65 144.11 60.76 139.66 64.68 137.12L100.78 113.85L102.06 70.93C102.19 66.26 104.91 62.17 109.17 60.21C113.41 58.28 118.29 58.89 121.92 61.85L155.19 88.98L196.41 76.94C200.91 75.64 205.63 76.94 208.79 80.39C211.94 83.84 212.86 88.67 211.17 93.02L195.65 133.06L219.84 168.54C222.46 172.4 222.68 177.33 220.37 181.39C218.09 185.45 213.77 187.81 209.1 187.55L166.23 185.17L139.97 219.14C137.62 222.17 134.09 223.87 130.37 223.87L130.39 223.89ZM74.93 146.95L113.07 160.62C116.84 161.98 119.71 165.09 120.74 168.97L131.1 208.14L155.89 176.09C158.33 172.91 162.21 171.16 166.19 171.38L206.64 173.62L183.82 140.15C181.56 136.84 181.09 132.62 182.52 128.9L197.16 91.13L158.27 102.5C154.43 103.62 150.27 102.77 147.16 100.25L115.75 74.66L114.53 115.15C114.41 119.15 112.32 122.85 108.95 125.02L74.91 146.97L74.93 146.95Z" fill="#FFF8C4" fill-opacity="1.000000" fill-rule="nonzero"/>
	</g>
	<g filter="url(#filter_70_1535_dd)">
		<path id="Vector" d="M130.39 223.89C129.58 223.89 128.75 223.81 127.93 223.63C123.36 222.7 119.77 219.31 118.57 214.8L107.59 173.29L67.16 158.81C62.77 157.23 59.72 153.37 59.18 148.74C58.65 144.11 60.76 139.66 64.68 137.12L100.78 113.85L102.06 70.93C102.19 66.26 104.91 62.17 109.17 60.21C113.41 58.28 118.29 58.89 121.92 61.85L155.19 88.98L196.41 76.94C200.91 75.64 205.63 76.94 208.79 80.39C211.94 83.84 212.86 88.67 211.17 93.02L195.65 133.06L219.84 168.54C222.46 172.4 222.68 177.33 220.37 181.39C218.09 185.45 213.77 187.81 209.1 187.55L166.23 185.17L139.97 219.14C137.62 222.17 134.09 223.87 130.37 223.87L130.39 223.89ZM74.93 146.95L113.07 160.62C116.84 161.98 119.71 165.09 120.74 168.97L131.1 208.14L155.89 176.09C158.33 172.91 162.21 171.16 166.19 171.38L206.64 173.62L183.82 140.15C181.56 136.84 181.09 132.62 182.52 128.9L197.16 91.13L158.27 102.5C154.43 103.62 150.27 102.77 147.16 100.25L115.75 74.66L114.53 115.15C114.41 119.15 112.32 122.85 108.95 125.02L74.91 146.97L74.93 146.95Z" fill="#FFF8C4" fill-opacity="1.000000" fill-rule="nonzero"/>
		<path id="Vector" d="M127.93 223.63C123.36 222.7 119.77 219.31 118.57 214.8L107.59 173.29L67.16 158.81C62.77 157.23 59.72 153.37 59.18 148.74C58.65 144.11 60.76 139.66 64.68 137.12L100.78 113.85L102.06 70.93C102.19 66.26 104.91 62.17 109.17 60.21C113.41 58.28 118.29 58.89 121.92 61.85L155.19 88.98L196.41 76.94C200.91 75.64 205.63 76.94 208.79 80.39C211.94 83.84 212.86 88.67 211.17 93.02L195.65 133.06L219.84 168.54C222.46 172.4 222.68 177.33 220.37 181.39C218.09 185.45 213.77 187.81 209.1 187.55L166.23 185.17L139.97 219.14C137.62 222.17 134.09 223.87 130.37 223.87L130.39 223.89C129.58 223.89 128.75 223.81 127.93 223.63ZM113.07 160.62C116.84 161.98 119.71 165.09 120.74 168.97L131.1 208.14L155.89 176.09C158.33 172.91 162.21 171.16 166.19 171.38L206.64 173.62L183.82 140.15C181.56 136.84 181.09 132.62 182.52 128.9L197.16 91.13L158.27 102.5C154.43 103.62 150.27 102.77 147.16 100.25L115.75 74.66L114.53 115.15C114.41 119.15 112.32 122.85 108.95 125.02L74.91 146.97L74.93 146.95L113.07 160.62Z" stroke="#FFD359" stroke-opacity="1.000000" stroke-width="3.940549"/>
	</g>
</svg>
