<svg width="230.658203" height="118.722168" viewBox="0 0 230.658 118.722" fill="none" xmlns="http://www.w3.org/2000/svg" xmlns:xlink="http://www.w3.org/1999/xlink">
	<desc>
			Created with Pixso.
	</desc>
	<defs>
		<linearGradient x1="78.649673" y1="22.464874" x2="223.442780" y2="106.061218" id="paint_linear_70_1468_0" gradientUnits="userSpaceOnUse">
			<stop stop-color="#800BF5"/>
			<stop offset="1.000000" stop-color="#25C6F9"/>
		</linearGradient>
	</defs>
	<path id="Vector 42" d="M90.85 0.3Q46.97 3.06 0 30.76L1.01 32.48Q47.57 5.03 90.97 2.3Q119.46 0.51 144.12 9.37Q152.85 12.51 161.09 16.99Q175.32 24.7 186.62 35.48Q198.19 46.5 206.71 60.71Q218.24 79.94 221.6 100.51Q222.8 107.81 222.97 115.27L219.04 111.35C218.65 110.95 218.02 110.95 217.63 111.35C217.23 111.75 217.23 112.37 217.63 112.76L223.29 118.42C223.68 118.82 224.3 118.82 224.7 118.42L230.36 112.76C230.75 112.37 230.75 111.75 230.36 111.35C229.96 110.95 229.34 110.95 228.94 111.35L224.97 115.32Q224.8 107.57 223.55 99.99Q220.1 79.15 208.43 59.68Q199.77 45.24 188.02 34.04Q176.51 23.08 162.05 15.23Q153.56 10.62 144.57 7.41Q119.62 -1.51 90.85 0.3Z" fill="url(#paint_linear_70_1468_0)" fill-opacity="1.000000" fill-rule="evenodd"/>
</svg>
