<svg width="83.974609" height="146.133728" viewBox="0 0 83.9746 146.134" fill="none" xmlns="http://www.w3.org/2000/svg" xmlns:xlink="http://www.w3.org/1999/xlink">
	<desc>
			Created with Pixso.
	</desc>
	<defs>
		<linearGradient x1="7.912910" y1="54.758156" x2="85.023804" y2="99.278145" id="paint_linear_70_1467_0" gradientUnits="userSpaceOnUse">
			<stop stop-color="#800BF5"/>
			<stop offset="1.000000" stop-color="#25C6F9"/>
		</linearGradient>
	</defs>
	<path id="Vector 41" d="M53.78 21.63Q32.88 5.28 0.32 0L0 1.97Q32.05 7.17 52.55 23.21Q63.82 32.03 70.83 43.46Q75.41 50.93 78.17 59.52Q79.42 63.4 80.26 67.38Q83.83 84.26 79.95 102.72Q78.84 107.99 77.19 113.09Q72.16 128.64 62.09 142.56L61.33 137.07C61.25 136.51 60.75 136.14 60.2 136.22C59.64 136.29 59.27 136.79 59.34 137.34L60.45 145.27C60.53 145.82 61.03 146.2 61.58 146.12L69.5 145.01C70.06 144.93 70.43 144.44 70.36 143.88C70.28 143.33 69.78 142.95 69.23 143.03L63.66 143.81Q73.89 129.69 79.03 113.91Q80.75 108.61 81.91 103.13Q85.84 84.41 82.28 67.25Q81.41 63.03 80.08 58.9Q77.22 50.03 72.48 42.32Q65.29 30.64 53.78 21.63Z" fill="url(#paint_linear_70_1467_0)" fill-opacity="1.000000" fill-rule="evenodd"/>
</svg>
